<svg xmlns="http://www.w3.org/2000/svg" xmlns:xlink="http://www.w3.org/1999/xlink" width="478.496" height="69.668" viewBox="0 0 478.496 69.668">
  <defs>
    <filter id="Elipse_19" x="16.391" y="0.5" width="50" height="50" filterUnits="userSpaceOnUse">
      <feOffset input="SourceAlpha"/>
      <feGaussianBlur stdDeviation="3" result="blur"/>
      <feFlood flood-color="#5e50b5" flood-opacity="0.596"/>
      <feComposite operator="in" in2="blur"/>
      <feComposite in="SourceGraphic"/>
    </filter>
    <clipPath id="clip-path">
      <path id="Trazado_55" data-name="Trazado 55" d="M6.058,12.117A6.058,6.058,0,1,0,0,6.058,6.058,6.058,0,0,0,6.058,12.117Z" fill="none" clip-rule="evenodd"/>
    </clipPath>
    <clipPath id="clip-path-2">
      <path id="Trazado_54" data-name="Trazado 54" d="M0,50.891H50.891V0H0Z" fill="none"/>
    </clipPath>
    <filter id="Elipse_21" x="144.391" y="0.5" width="50" height="50" filterUnits="userSpaceOnUse">
      <feOffset input="SourceAlpha"/>
      <feGaussianBlur stdDeviation="3" result="blur-2"/>
      <feFlood flood-color="#5e50b5" flood-opacity="0.596"/>
      <feComposite operator="in" in2="blur-2"/>
      <feComposite in="SourceGraphic"/>
    </filter>
    <clipPath id="clip-path-5">
      <path id="Trazado_86" data-name="Trazado 86" d="M0,36.351H36.351V0H0Z" transform="translate(0)" fill="none"/>
    </clipPath>
  </defs>
  <g id="Entradas" transform="translate(-1341.609 -206.5)">
    <g id="Grupo_287" data-name="Grupo 287" transform="translate(9)">
      <path id="Trazado_31" data-name="Trazado 31" d="M0,50.891H50.891V0H0Z" transform="translate(1348.5 257.391) rotate(-90)" fill="none"/>
      <g id="Grupo_274" data-name="Grupo 274" transform="translate(1389.698 231.946) rotate(-90)">
        <path id="Trazado_42" data-name="Trazado 42" d="M0,0V96.935" transform="translate(0)" fill="none" stroke="#5f6d74" stroke-width="1" stroke-dasharray="2 2"/>
      </g>
      <g id="Grupo_275" data-name="Grupo 275" transform="translate(1518.137 231.946) rotate(-90)">
        <path id="Trazado_43" data-name="Trazado 43" d="M0,0V96.935" transform="translate(0)" fill="none" stroke="#5f6d74" stroke-width="1" stroke-dasharray="2 2"/>
      </g>
      <g id="Grupo_279" data-name="Grupo 279" transform="translate(1649.137 231.946) rotate(-90)">
        <path id="Trazado_43-2" data-name="Trazado 43" d="M0,0V96.935" transform="translate(0)" fill="none" stroke="#5f6d74" stroke-width="1" stroke-dasharray="2 2"/>
      </g>
      <g id="Función">
        <g transform="matrix(1, 0, 0, 1, 1332.61, 206.5)" filter="url(#Elipse_19)">
          <circle id="Elipse_19-2" data-name="Elipse 19" cx="16" cy="16" r="16" transform="translate(25.39 9.5)" fill="#5e50b5"/>
        </g>
        <g id="Grupo_286" data-name="Grupo 286" transform="translate(1367.887 238.004) rotate(-90)" clip-path="url(#clip-path)">
          <g id="Grupo_285" data-name="Grupo 285" transform="translate(-19.387 -19.387)" clip-path="url(#clip-path-2)">
            <path id="Trazado_53" data-name="Trazado 53" d="M0,0H36.351V36.351H0Z" transform="translate(7.27 7.27)" fill="#fff"/>
          </g>
        </g>
        <path id="Trazado_100" data-name="Trazado 100" d="M23.009,5.418V8.834h4.914v1.2H23.009V14h-1.4V4.2h6.916V5.418Zm14.35,8.694a4.066,4.066,0,0,1-3.052-1.12,4.425,4.425,0,0,1-1.092-3.22V4.2h1.4V9.716q0,3.15,2.758,3.15a2.655,2.655,0,0,0,2.058-.777,3.411,3.411,0,0,0,.714-2.373V4.2H41.5V9.772A4.421,4.421,0,0,1,40.411,13,4.081,4.081,0,0,1,37.359,14.112ZM55.6,4.2V14H54.453l-5.88-7.308V14h-1.4V4.2h1.148l5.88,7.308V4.2Zm10.122,9.912a5.41,5.41,0,0,1-2.653-.651,4.79,4.79,0,0,1-1.855-1.792A4.966,4.966,0,0,1,60.543,9.1a4.966,4.966,0,0,1,.672-2.569,4.777,4.777,0,0,1,1.862-1.792,5.45,5.45,0,0,1,2.66-.651,5.552,5.552,0,0,1,2.1.385,4.3,4.3,0,0,1,1.624,1.141l-.91.882a3.651,3.651,0,0,0-2.758-1.162,4,4,0,0,0-1.974.49A3.553,3.553,0,0,0,62.44,7.175a3.78,3.78,0,0,0-.5,1.925,3.78,3.78,0,0,0,.5,1.925,3.553,3.553,0,0,0,1.379,1.351,4,4,0,0,0,1.974.49,3.659,3.659,0,0,0,2.758-1.176l.91.882A4.355,4.355,0,0,1,67.83,13.72,5.517,5.517,0,0,1,65.723,14.112ZM74.263,4.2h1.4V14h-1.4Zm11.564,9.912a5.479,5.479,0,0,1-2.674-.651,4.812,4.812,0,0,1-1.869-1.8A4.938,4.938,0,0,1,80.6,9.1a4.938,4.938,0,0,1,.679-2.562,4.812,4.812,0,0,1,1.869-1.8,5.789,5.789,0,0,1,5.334,0,4.777,4.777,0,0,1,1.862,1.792A4.967,4.967,0,0,1,91.021,9.1a4.967,4.967,0,0,1-.672,2.569,4.777,4.777,0,0,1-1.862,1.792A5.45,5.45,0,0,1,85.827,14.112Zm0-1.246a3.85,3.85,0,0,0,1.939-.49,3.6,3.6,0,0,0,1.358-1.351,3.78,3.78,0,0,0,.5-1.925,3.78,3.78,0,0,0-.5-1.925,3.6,3.6,0,0,0-1.358-1.351,3.85,3.85,0,0,0-1.939-.49,3.928,3.928,0,0,0-1.953.49A3.567,3.567,0,0,0,82.5,7.175,3.78,3.78,0,0,0,82,9.1a3.78,3.78,0,0,0,.5,1.925,3.567,3.567,0,0,0,1.372,1.351A3.928,3.928,0,0,0,85.827,12.866Zm.854-11.284h1.708L86.037,3.4h-1.26ZM104.391,4.2V14h-1.148l-5.88-7.308V14h-1.4V4.2h1.148l5.88,7.308V4.2Z" transform="translate(1311 262)" fill="#707070"/>
      </g>
      <g id="Butacas">
        <path id="Trazado_97" data-name="Trazado 97" d="M27.937,8.9a2.584,2.584,0,0,1,1.316.889,2.451,2.451,0,0,1,.476,1.533,2.265,2.265,0,0,1-1,1.981A5.117,5.117,0,0,1,25.809,14H20.741V4.2h4.788a4.687,4.687,0,0,1,2.751.686,2.171,2.171,0,0,1,.959,1.862,2.355,2.355,0,0,1-1.3,2.156ZM23,5.908v2.31h2.254a2.275,2.275,0,0,0,1.274-.294.981.981,0,0,0,.434-.868.963.963,0,0,0-.434-.861,2.32,2.32,0,0,0-1.274-.287Zm2.646,6.384A2.513,2.513,0,0,0,26.992,12a1.007,1.007,0,0,0,.455-.91q0-1.218-1.806-1.218H23v2.422Zm12.964,1.876a4.435,4.435,0,0,1-3.269-1.162,4.473,4.473,0,0,1-1.169-3.318V4.2h2.268V9.6q0,2.632,2.184,2.632a2.047,2.047,0,0,0,1.624-.637A2.969,2.969,0,0,0,40.8,9.6V4.2h2.24V9.688a4.473,4.473,0,0,1-1.169,3.318A4.435,4.435,0,0,1,38.605,14.168Zm11.34-8.12H46.809V4.2h8.54V6.048H52.213V14H49.945ZM65.331,11.9h-4.55L59.913,14H57.589l4.368-9.8H64.2L68.579,14H66.2Zm-.714-1.722L63.063,6.426l-1.554,3.752Zm12.334,3.99a5.629,5.629,0,0,1-2.709-.651,4.858,4.858,0,0,1-1.9-1.806A4.976,4.976,0,0,1,71.645,9.1a4.976,4.976,0,0,1,.693-2.611,4.858,4.858,0,0,1,1.9-1.806,6.076,6.076,0,0,1,5.026-.2A4.613,4.613,0,0,1,81,5.768L79.541,7.112a3.131,3.131,0,0,0-2.464-1.148,3.272,3.272,0,0,0-1.624.4A2.836,2.836,0,0,0,74.34,7.476a3.272,3.272,0,0,0-.4,1.624,3.272,3.272,0,0,0,.4,1.624,2.836,2.836,0,0,0,1.113,1.113,3.272,3.272,0,0,0,1.624.4,3.115,3.115,0,0,0,2.464-1.162L81,12.418a4.538,4.538,0,0,1-1.736,1.3A5.762,5.762,0,0,1,76.951,14.168ZM91.581,11.9h-4.55L86.163,14H83.839l4.368-9.8h2.24L94.829,14h-2.38Zm-.714-1.722L89.313,6.426l-1.554,3.752Zm11,3.99a8.018,8.018,0,0,1-2.247-.315,5.27,5.27,0,0,1-1.743-.819l.77-1.708a5.225,5.225,0,0,0,1.5.742,5.627,5.627,0,0,0,1.736.28,2.773,2.773,0,0,0,1.428-.287.867.867,0,0,0,.462-.763.729.729,0,0,0-.273-.581,2.07,2.07,0,0,0-.7-.371q-.427-.14-1.155-.308a15.967,15.967,0,0,1-1.834-.532,2.98,2.98,0,0,1-1.225-.854,2.306,2.306,0,0,1-.511-1.568,2.728,2.728,0,0,1,.462-1.547,3.108,3.108,0,0,1,1.393-1.1,5.684,5.684,0,0,1,2.275-.406,7.533,7.533,0,0,1,1.834.224,5.418,5.418,0,0,1,1.568.644l-.7,1.722a5.464,5.464,0,0,0-2.716-.77,2.547,2.547,0,0,0-1.407.308.94.94,0,0,0-.455.812.794.794,0,0,0,.525.749,8.243,8.243,0,0,0,1.6.483,15.966,15.966,0,0,1,1.834.532,3.037,3.037,0,0,1,1.225.84,2.252,2.252,0,0,1,.511,1.554,2.676,2.676,0,0,1-.469,1.533,3.151,3.151,0,0,1-1.407,1.1A5.736,5.736,0,0,1,101.871,14.168Z" transform="translate(1439 262)" fill="#707070"/>
        <g transform="matrix(1, 0, 0, 1, 1332.61, 206.5)" filter="url(#Elipse_21)">
          <circle id="Elipse_21-2" data-name="Elipse 21" cx="16" cy="16" r="16" transform="translate(153.39 9.5)" fill="#5e50b5"/>
        </g>
        <g id="Grupo_301" data-name="Grupo 301" transform="translate(1495.887 238.004) rotate(-90)" clip-path="url(#clip-path)">
          <g id="Grupo_300" data-name="Grupo 300" transform="translate(-19.387 -19.387)" clip-path="url(#clip-path-2)">
            <path id="Trazado_63" data-name="Trazado 63" d="M0,0H36.351V36.351H0Z" transform="translate(7.27 7.27)" fill="#fff"/>
          </g>
        </g>
      </g>
      <g id="Pago">
        <path id="Trazado_98" data-name="Trazado 98" d="M43.015,4.2a4.54,4.54,0,0,1,3,.91A3.086,3.086,0,0,1,47.1,7.616a3.086,3.086,0,0,1-1.092,2.506,4.54,4.54,0,0,1-3,.91H40.593V14h-1.4V4.2Zm-.042,5.614A3.159,3.159,0,0,0,45,9.247a1.977,1.977,0,0,0,.7-1.631A1.977,1.977,0,0,0,45,5.985a3.159,3.159,0,0,0-2.03-.567h-2.38v4.4ZM57.715,11.55H52.507L51.429,14H49.987l4.438-9.8h1.386L60.263,14h-1.47Zm-.49-1.12-2.114-4.8L53,10.43ZM71.169,9.044h1.344v3.822a5.218,5.218,0,0,1-1.694.924,6.333,6.333,0,0,1-2.016.322,5.479,5.479,0,0,1-2.674-.651,4.827,4.827,0,0,1-1.869-1.792A4.927,4.927,0,0,1,63.581,9.1a4.964,4.964,0,0,1,.679-2.576,4.75,4.75,0,0,1,1.876-1.792,5.6,5.6,0,0,1,2.695-.644,5.684,5.684,0,0,1,2.135.385A4.358,4.358,0,0,1,72.6,5.6l-.868.868a3.945,3.945,0,0,0-2.842-1.134,4.139,4.139,0,0,0-2.009.483,3.541,3.541,0,0,0-1.393,1.344,3.766,3.766,0,0,0-.5,1.939,3.74,3.74,0,0,0,.5,1.925,3.59,3.59,0,0,0,1.393,1.351,4.063,4.063,0,0,0,2,.49,4.152,4.152,0,0,0,2.3-.63Zm11.242,5.068a5.479,5.479,0,0,1-2.674-.651,4.812,4.812,0,0,1-1.869-1.8A4.938,4.938,0,0,1,77.189,9.1a4.938,4.938,0,0,1,.679-2.562,4.812,4.812,0,0,1,1.869-1.8,5.789,5.789,0,0,1,5.334,0,4.777,4.777,0,0,1,1.862,1.792A4.967,4.967,0,0,1,87.6,9.1a4.967,4.967,0,0,1-.672,2.569,4.777,4.777,0,0,1-1.862,1.792A5.45,5.45,0,0,1,82.411,14.112Zm0-1.246a3.85,3.85,0,0,0,1.939-.49,3.6,3.6,0,0,0,1.358-1.351,3.78,3.78,0,0,0,.5-1.925,3.78,3.78,0,0,0-.5-1.925A3.6,3.6,0,0,0,84.35,5.824a3.85,3.85,0,0,0-1.939-.49,3.928,3.928,0,0,0-1.953.49,3.567,3.567,0,0,0-1.372,1.351,3.78,3.78,0,0,0-.5,1.925,3.78,3.78,0,0,0,.5,1.925,3.567,3.567,0,0,0,1.372,1.351A3.928,3.928,0,0,0,82.411,12.866Z" transform="translate(1568 262)" fill="#707070"/>
        <g id="Grupo_543" data-name="Grupo 543" transform="translate(1612.649 250.121) rotate(-90)" clip-path="url(#clip-path-5)">
          <g id="Grupo_542" data-name="Grupo 542" transform="translate(2.423 2.423)">
            <path id="Trazado_85" data-name="Trazado 85" d="M15.752,31.5A15.752,15.752,0,1,0,0,15.752,15.752,15.752,0,0,0,15.752,31.5Z" fill="none" stroke="#5f6d74" stroke-width="1" stroke-dasharray="2 2"/>
          </g>
        </g>
      </g>
      <g id="Entradas-2" data-name="Entradas">
        <path id="Trazado_99" data-name="Trazado 99" d="M21.9,12.782V14H14.791V4.2h6.916V5.418H16.191v3.01H21.1v1.19H16.191v3.164ZM35.4,4.2V14H34.251l-5.88-7.308V14h-1.4V4.2h1.148L34,11.508V4.2Zm7.686,1.218h-3.36V4.2h8.106V5.418h-3.36V14H43.085ZM58.709,14,56.6,10.99q-.392.028-.616.028H53.557V14h-1.4V4.2h3.822a4.54,4.54,0,0,1,3,.91,3.086,3.086,0,0,1,1.092,2.506,3.278,3.278,0,0,1-.56,1.932,3.164,3.164,0,0,1-1.6,1.162L60.235,14ZM55.937,9.828a3.132,3.132,0,0,0,2.03-.574,2,2,0,0,0,.7-1.638,1.977,1.977,0,0,0-.7-1.631,3.16,3.16,0,0,0-2.03-.567h-2.38v4.41ZM71.379,11.55H66.171L65.093,14H63.651l4.438-9.8h1.386L73.927,14h-1.47Zm-.49-1.12-2.114-4.8-2.114,4.8ZM78.183,4.2h4.13a5.971,5.971,0,0,1,2.758.616A4.526,4.526,0,0,1,86.94,6.545,4.885,4.885,0,0,1,87.6,9.1a4.885,4.885,0,0,1-.665,2.555,4.526,4.526,0,0,1-1.869,1.729A5.971,5.971,0,0,1,82.313,14h-4.13Zm4.046,8.582a4.534,4.534,0,0,0,2.093-.462,3.34,3.34,0,0,0,1.393-1.3A3.725,3.725,0,0,0,86.2,9.1a3.725,3.725,0,0,0-.49-1.925A3.34,3.34,0,0,0,84.322,5.88a4.534,4.534,0,0,0-2.093-.462H79.583v7.364ZM98.651,11.55H93.443L92.365,14H90.923l4.438-9.8h1.386L101.2,14h-1.47Zm-.49-1.12-2.114-4.8-2.114,4.8Zm10.15,3.682a6.707,6.707,0,0,1-2.135-.343,4.384,4.384,0,0,1-1.617-.889l.518-1.092a4.289,4.289,0,0,0,1.435.819,5.272,5.272,0,0,0,1.8.315,3.24,3.24,0,0,0,1.82-.413,1.273,1.273,0,0,0,.6-1.1,1.083,1.083,0,0,0-.329-.819,2.2,2.2,0,0,0-.812-.483q-.483-.168-1.365-.378a14.067,14.067,0,0,1-1.785-.532,2.951,2.951,0,0,1-1.162-.819,2.187,2.187,0,0,1-.483-1.491,2.523,2.523,0,0,1,.413-1.414,2.837,2.837,0,0,1,1.253-1.008,5.083,5.083,0,0,1,2.086-.378,6.6,6.6,0,0,1,1.708.224,4.544,4.544,0,0,1,1.442.644l-.462,1.12a5.069,5.069,0,0,0-1.316-.6,4.912,4.912,0,0,0-1.372-.2,3.023,3.023,0,0,0-1.785.434,1.329,1.329,0,0,0-.6,1.12,1.071,1.071,0,0,0,.336.819,2.331,2.331,0,0,0,.833.49,13.015,13.015,0,0,0,1.351.371,13.685,13.685,0,0,1,1.778.532,2.993,2.993,0,0,1,1.155.812,2.139,2.139,0,0,1,.483,1.47,2.5,2.5,0,0,1-.42,1.407,2.813,2.813,0,0,1-1.274,1.008A5.27,5.27,0,0,1,108.311,14.112Z" transform="translate(1699 262)" fill="#707070"/>
        <g id="Grupo_541" data-name="Grupo 541" transform="translate(1743.65 250.121) rotate(-90)" clip-path="url(#clip-path-5)">
          <g id="Grupo_540" data-name="Grupo 540" transform="translate(2.423 2.423)">
            <path id="Trazado_83" data-name="Trazado 83" d="M15.752,31.5A15.752,15.752,0,1,0,0,15.752,15.752,15.752,0,0,0,15.752,31.5Z" fill="none" stroke="#5f6d74" stroke-width="1" stroke-dasharray="2 2"/>
          </g>
        </g>
      </g>
    </g>
  </g>
</svg>
