<svg xmlns="http://www.w3.org/2000/svg" xmlns:xlink="http://www.w3.org/1999/xlink" width="479.524" height="69.668" viewBox="0 0 479.524 69.668">
  <defs>
    <filter id="Elipse_19" x="16.391" y="0.5" width="50" height="50" filterUnits="userSpaceOnUse">
      <feOffset input="SourceAlpha"/>
      <feGaussianBlur stdDeviation="3" result="blur"/>
      <feFlood flood-color="#5e50b5" flood-opacity="0.596"/>
      <feComposite operator="in" in2="blur"/>
      <feComposite in="SourceGraphic"/>
    </filter>
    <clipPath id="clip-path">
      <path id="Trazado_55" data-name="Trazado 55" d="M6.058,12.117A6.058,6.058,0,1,0,0,6.058,6.058,6.058,0,0,0,6.058,12.117Z" fill="none" clip-rule="evenodd"/>
    </clipPath>
    <clipPath id="clip-path-2">
      <path id="Trazado_54" data-name="Trazado 54" d="M0,50.891H50.891V0H0Z" fill="none"/>
    </clipPath>
    <filter id="Elipse_21" x="144.391" y="0.5" width="50" height="50" filterUnits="userSpaceOnUse">
      <feOffset input="SourceAlpha"/>
      <feGaussianBlur stdDeviation="3" result="blur-2"/>
      <feFlood flood-color="#5e50b5" flood-opacity="0.596"/>
      <feComposite operator="in" in2="blur-2"/>
      <feComposite in="SourceGraphic"/>
    </filter>
    <filter id="Elipse_22" x="273.391" y="0.5" width="50" height="50" filterUnits="userSpaceOnUse">
      <feOffset input="SourceAlpha"/>
      <feGaussianBlur stdDeviation="3" result="blur-3"/>
      <feFlood flood-color="#5e50b5" flood-opacity="0.596"/>
      <feComposite operator="in" in2="blur-3"/>
      <feComposite in="SourceGraphic"/>
    </filter>
    <filter id="Elipse_26" x="404.391" y="0.5" width="50" height="50" filterUnits="userSpaceOnUse">
      <feOffset input="SourceAlpha"/>
      <feGaussianBlur stdDeviation="3" result="blur-4"/>
      <feFlood flood-color="#5e50b5" flood-opacity="0.596"/>
      <feComposite operator="in" in2="blur-4"/>
      <feComposite in="SourceGraphic"/>
    </filter>
  </defs>
  <g id="Entradas" transform="translate(-1341.609 -206.5)">
    <g id="Grupo_287" data-name="Grupo 287" transform="translate(9)">
      <path id="Trazado_31" data-name="Trazado 31" d="M0,50.891H50.891V0H0Z" transform="translate(1348.5 257.391) rotate(-90)" fill="none"/>
      <g id="Grupo_274" data-name="Grupo 274" transform="translate(1389.698 231.946) rotate(-90)">
        <path id="Trazado_42" data-name="Trazado 42" d="M0,0V96.935" transform="translate(0)" fill="none" stroke="#5f6d74" stroke-width="1" stroke-dasharray="2 2"/>
      </g>
      <g id="Grupo_275" data-name="Grupo 275" transform="translate(1518.137 231.946) rotate(-90)">
        <path id="Trazado_43" data-name="Trazado 43" d="M0,0V96.935" transform="translate(0)" fill="none" stroke="#5f6d74" stroke-width="1" stroke-dasharray="2 2"/>
      </g>
      <g id="Grupo_279" data-name="Grupo 279" transform="translate(1649.137 231.946) rotate(-90)">
        <path id="Trazado_43-2" data-name="Trazado 43" d="M0,0V96.935" transform="translate(0)" fill="none" stroke="#5f6d74" stroke-width="1" stroke-dasharray="2 2"/>
      </g>
      <g id="Función">
        <g transform="matrix(1, 0, 0, 1, 1332.61, 206.5)" filter="url(#Elipse_19)">
          <circle id="Elipse_19-2" data-name="Elipse 19" cx="16" cy="16" r="16" transform="translate(25.39 9.5)" fill="#5e50b5"/>
        </g>
        <g id="Grupo_286" data-name="Grupo 286" transform="translate(1367.887 238.004) rotate(-90)" clip-path="url(#clip-path)">
          <g id="Grupo_285" data-name="Grupo 285" transform="translate(-19.387 -19.387)" clip-path="url(#clip-path-2)">
            <path id="Trazado_53" data-name="Trazado 53" d="M0,0H36.351V36.351H0Z" transform="translate(7.27 7.27)" fill="#fff"/>
          </g>
        </g>
        <path id="Trazado_92" data-name="Trazado 92" d="M23.009,5.418V8.834h4.914v1.2H23.009V14h-1.4V4.2h6.916V5.418Zm14.35,8.694a4.066,4.066,0,0,1-3.052-1.12,4.425,4.425,0,0,1-1.092-3.22V4.2h1.4V9.716q0,3.15,2.758,3.15a2.655,2.655,0,0,0,2.058-.777,3.411,3.411,0,0,0,.714-2.373V4.2H41.5V9.772A4.421,4.421,0,0,1,40.411,13,4.081,4.081,0,0,1,37.359,14.112ZM55.6,4.2V14H54.453l-5.88-7.308V14h-1.4V4.2h1.148l5.88,7.308V4.2Zm10.122,9.912a5.41,5.41,0,0,1-2.653-.651,4.79,4.79,0,0,1-1.855-1.792A4.966,4.966,0,0,1,60.543,9.1a4.966,4.966,0,0,1,.672-2.569,4.777,4.777,0,0,1,1.862-1.792,5.45,5.45,0,0,1,2.66-.651,5.552,5.552,0,0,1,2.1.385,4.3,4.3,0,0,1,1.624,1.141l-.91.882a3.651,3.651,0,0,0-2.758-1.162,4,4,0,0,0-1.974.49A3.553,3.553,0,0,0,62.44,7.175a3.78,3.78,0,0,0-.5,1.925,3.78,3.78,0,0,0,.5,1.925,3.553,3.553,0,0,0,1.379,1.351,4,4,0,0,0,1.974.49,3.659,3.659,0,0,0,2.758-1.176l.91.882A4.355,4.355,0,0,1,67.83,13.72,5.517,5.517,0,0,1,65.723,14.112ZM74.263,4.2h1.4V14h-1.4Zm11.564,9.912a5.479,5.479,0,0,1-2.674-.651,4.812,4.812,0,0,1-1.869-1.8A4.938,4.938,0,0,1,80.6,9.1a4.938,4.938,0,0,1,.679-2.562,4.812,4.812,0,0,1,1.869-1.8,5.789,5.789,0,0,1,5.334,0,4.777,4.777,0,0,1,1.862,1.792A4.967,4.967,0,0,1,91.021,9.1a4.967,4.967,0,0,1-.672,2.569,4.777,4.777,0,0,1-1.862,1.792A5.45,5.45,0,0,1,85.827,14.112Zm0-1.246a3.85,3.85,0,0,0,1.939-.49,3.6,3.6,0,0,0,1.358-1.351,3.78,3.78,0,0,0,.5-1.925,3.78,3.78,0,0,0-.5-1.925,3.6,3.6,0,0,0-1.358-1.351,3.85,3.85,0,0,0-1.939-.49,3.928,3.928,0,0,0-1.953.49A3.567,3.567,0,0,0,82.5,7.175,3.78,3.78,0,0,0,82,9.1a3.78,3.78,0,0,0,.5,1.925,3.567,3.567,0,0,0,1.372,1.351A3.928,3.928,0,0,0,85.827,12.866Zm.854-11.284h1.708L86.037,3.4h-1.26ZM104.391,4.2V14h-1.148l-5.88-7.308V14h-1.4V4.2h1.148l5.88,7.308V4.2Z" transform="translate(1311 262)" fill="#707070"/>
      </g>
      <g id="Butacas">
        <path id="Trazado_91" data-name="Trazado 91" d="M28.588,8.918a2.51,2.51,0,0,1,1.344.861,2.47,2.47,0,0,1,.49,1.575,2.265,2.265,0,0,1-.959,1.96A4.772,4.772,0,0,1,26.67,14H21.994V4.2h4.4a4.334,4.334,0,0,1,2.6.672A2.18,2.18,0,0,1,29.9,6.734a2.421,2.421,0,0,1-.357,1.33A2.325,2.325,0,0,1,28.588,8.918ZM23.394,5.334V8.47h2.87a2.914,2.914,0,0,0,1.659-.4A1.328,1.328,0,0,0,28.5,6.9a1.328,1.328,0,0,0-.581-1.169,2.914,2.914,0,0,0-1.659-.4Zm3.22,7.532a3.315,3.315,0,0,0,1.792-.392,1.364,1.364,0,0,0,.6-1.232q0-1.638-2.394-1.638h-3.22v3.262Zm12.838,1.246a4.066,4.066,0,0,1-3.052-1.12,4.425,4.425,0,0,1-1.092-3.22V4.2h1.4V9.716q0,3.15,2.758,3.15a2.655,2.655,0,0,0,2.058-.777,3.411,3.411,0,0,0,.714-2.373V4.2H43.6V9.772A4.421,4.421,0,0,1,42.5,13,4.081,4.081,0,0,1,39.452,14.112ZM51.03,5.418H47.67V4.2h8.106V5.418h-3.36V14H51.03ZM65.856,11.55H60.648L59.57,14H58.128l4.438-9.8h1.386L68.4,14h-1.47Zm-.49-1.12-2.114-4.8-2.114,4.8ZM76.9,14.112a5.41,5.41,0,0,1-2.653-.651,4.79,4.79,0,0,1-1.855-1.792A4.966,4.966,0,0,1,71.722,9.1a4.966,4.966,0,0,1,.672-2.569,4.777,4.777,0,0,1,1.862-1.792,5.45,5.45,0,0,1,2.66-.651,5.552,5.552,0,0,1,2.1.385A4.3,4.3,0,0,1,80.64,5.614l-.91.882a3.651,3.651,0,0,0-2.758-1.162A4,4,0,0,0,75,5.824a3.553,3.553,0,0,0-1.379,1.351,3.78,3.78,0,0,0-.5,1.925,3.78,3.78,0,0,0,.5,1.925A3.553,3.553,0,0,0,75,12.376a4,4,0,0,0,1.974.49A3.659,3.659,0,0,0,79.73,11.69l.91.882a4.355,4.355,0,0,1-1.631,1.148A5.517,5.517,0,0,1,76.9,14.112ZM91.448,11.55H86.24L85.162,14H83.72l4.438-9.8h1.386L94,14h-1.47Zm-.49-1.12-2.114-4.8-2.114,4.8Zm10.15,3.682a6.707,6.707,0,0,1-2.135-.343,4.384,4.384,0,0,1-1.617-.889l.518-1.092a4.289,4.289,0,0,0,1.435.819,5.272,5.272,0,0,0,1.8.315,3.24,3.24,0,0,0,1.82-.413,1.273,1.273,0,0,0,.6-1.1,1.083,1.083,0,0,0-.329-.819,2.2,2.2,0,0,0-.812-.483q-.483-.168-1.365-.378A14.067,14.067,0,0,1,99.239,9.2a2.951,2.951,0,0,1-1.162-.819,2.187,2.187,0,0,1-.483-1.491,2.523,2.523,0,0,1,.413-1.414A2.837,2.837,0,0,1,99.26,4.466a5.083,5.083,0,0,1,2.086-.378,6.6,6.6,0,0,1,1.708.224,4.544,4.544,0,0,1,1.442.644l-.462,1.12a5.069,5.069,0,0,0-1.316-.6,4.912,4.912,0,0,0-1.372-.2,3.023,3.023,0,0,0-1.785.434,1.329,1.329,0,0,0-.6,1.12,1.071,1.071,0,0,0,.336.819,2.331,2.331,0,0,0,.833.49,13.015,13.015,0,0,0,1.351.371,13.685,13.685,0,0,1,1.778.532,2.993,2.993,0,0,1,1.155.812,2.139,2.139,0,0,1,.483,1.47,2.5,2.5,0,0,1-.42,1.407,2.813,2.813,0,0,1-1.274,1.008A5.27,5.27,0,0,1,101.108,14.112Z" transform="translate(1439 262)" fill="#707070"/>
        <g transform="matrix(1, 0, 0, 1, 1332.61, 206.5)" filter="url(#Elipse_21)">
          <circle id="Elipse_21-2" data-name="Elipse 21" cx="16" cy="16" r="16" transform="translate(153.39 9.5)" fill="#5e50b5"/>
        </g>
        <g id="Grupo_301" data-name="Grupo 301" transform="translate(1495.887 238.004) rotate(-90)" clip-path="url(#clip-path)">
          <g id="Grupo_300" data-name="Grupo 300" transform="translate(-19.387 -19.387)" clip-path="url(#clip-path-2)">
            <path id="Trazado_63" data-name="Trazado 63" d="M0,0H36.351V36.351H0Z" transform="translate(7.27 7.27)" fill="#fff"/>
          </g>
        </g>
      </g>
      <g id="Pago">
        <path id="Trazado_90" data-name="Trazado 90" d="M43.015,4.2a4.54,4.54,0,0,1,3,.91A3.086,3.086,0,0,1,47.1,7.616a3.086,3.086,0,0,1-1.092,2.506,4.54,4.54,0,0,1-3,.91H40.593V14h-1.4V4.2Zm-.042,5.614A3.159,3.159,0,0,0,45,9.247a1.977,1.977,0,0,0,.7-1.631A1.977,1.977,0,0,0,45,5.985a3.159,3.159,0,0,0-2.03-.567h-2.38v4.4ZM57.715,11.55H52.507L51.429,14H49.987l4.438-9.8h1.386L60.263,14h-1.47Zm-.49-1.12-2.114-4.8L53,10.43ZM71.169,9.044h1.344v3.822a5.218,5.218,0,0,1-1.694.924,6.333,6.333,0,0,1-2.016.322,5.479,5.479,0,0,1-2.674-.651,4.827,4.827,0,0,1-1.869-1.792A4.927,4.927,0,0,1,63.581,9.1a4.964,4.964,0,0,1,.679-2.576,4.75,4.75,0,0,1,1.876-1.792,5.6,5.6,0,0,1,2.695-.644,5.684,5.684,0,0,1,2.135.385A4.358,4.358,0,0,1,72.6,5.6l-.868.868a3.945,3.945,0,0,0-2.842-1.134,4.139,4.139,0,0,0-2.009.483,3.541,3.541,0,0,0-1.393,1.344,3.766,3.766,0,0,0-.5,1.939,3.74,3.74,0,0,0,.5,1.925,3.59,3.59,0,0,0,1.393,1.351,4.063,4.063,0,0,0,2,.49,4.152,4.152,0,0,0,2.3-.63Zm11.242,5.068a5.479,5.479,0,0,1-2.674-.651,4.812,4.812,0,0,1-1.869-1.8A4.938,4.938,0,0,1,77.189,9.1a4.938,4.938,0,0,1,.679-2.562,4.812,4.812,0,0,1,1.869-1.8,5.789,5.789,0,0,1,5.334,0,4.777,4.777,0,0,1,1.862,1.792A4.967,4.967,0,0,1,87.6,9.1a4.967,4.967,0,0,1-.672,2.569,4.777,4.777,0,0,1-1.862,1.792A5.45,5.45,0,0,1,82.411,14.112Zm0-1.246a3.85,3.85,0,0,0,1.939-.49,3.6,3.6,0,0,0,1.358-1.351,3.78,3.78,0,0,0,.5-1.925,3.78,3.78,0,0,0-.5-1.925A3.6,3.6,0,0,0,84.35,5.824a3.85,3.85,0,0,0-1.939-.49,3.928,3.928,0,0,0-1.953.49,3.567,3.567,0,0,0-1.372,1.351,3.78,3.78,0,0,0-.5,1.925,3.78,3.78,0,0,0,.5,1.925,3.567,3.567,0,0,0,1.372,1.351A3.928,3.928,0,0,0,82.411,12.866Z" transform="translate(1568 262)" fill="#707070"/>
        <g transform="matrix(1, 0, 0, 1, 1332.61, 206.5)" filter="url(#Elipse_22)">
          <circle id="Elipse_22-2" data-name="Elipse 22" cx="16" cy="16" r="16" transform="translate(282.39 9.5)" fill="#5e50b5"/>
        </g>
        <g id="Grupo_376" data-name="Grupo 376" transform="translate(1624.887 238.004) rotate(-90)" clip-path="url(#clip-path)">
          <g id="Grupo_375" data-name="Grupo 375" transform="translate(-19.387 -19.387)" clip-path="url(#clip-path-2)">
            <path id="Trazado_67" data-name="Trazado 67" d="M0,0H36.351V36.351H0Z" transform="translate(7.27 7.27)" fill="#fff"/>
          </g>
        </g>
      </g>
      <g id="Entradas-2" data-name="Entradas">
        <path id="Trazado_89" data-name="Trazado 89" d="M21.224,12.18V14H13.636V4.2h7.406V6.02H15.89V8.148h4.55V9.912H15.89V12.18ZM34.818,4.2V14H32.956L28.07,8.05V14H25.83V4.2h1.876l4.872,5.95V4.2Zm7.154,1.848H38.836V4.2h8.54V6.048H44.24V14H41.972ZM57.638,14l-1.89-2.73H53.662V14H51.394V4.2h4.242a5.444,5.444,0,0,1,2.261.434,3.359,3.359,0,0,1,1.477,1.232,3.394,3.394,0,0,1,.518,1.89,3.192,3.192,0,0,1-2.016,3.094l2.2,3.15ZM57.6,7.756a1.552,1.552,0,0,0-.532-1.267,2.382,2.382,0,0,0-1.554-.441H53.662V9.464H55.51a2.356,2.356,0,0,0,1.554-.448A1.557,1.557,0,0,0,57.6,7.756ZM70.938,11.9h-4.55L65.52,14H63.2l4.368-9.8H69.8L74.186,14h-2.38Zm-.714-1.722L68.67,6.426l-1.554,3.752ZM78.008,4.2H82.46a6.257,6.257,0,0,1,2.821.609,4.56,4.56,0,0,1,1.9,1.715A4.824,4.824,0,0,1,87.864,9.1a4.824,4.824,0,0,1-.679,2.576,4.56,4.56,0,0,1-1.9,1.715A6.257,6.257,0,0,1,82.46,14H78.008Zm4.34,7.938a3.293,3.293,0,0,0,2.345-.819A2.893,2.893,0,0,0,85.568,9.1a2.893,2.893,0,0,0-.875-2.219,3.293,3.293,0,0,0-2.345-.819H80.276v6.076ZM98.686,11.9h-4.55L93.268,14H90.944l4.368-9.8h2.24l4.382,9.8h-2.38Zm-.714-1.722L96.418,6.426l-1.554,3.752Zm11,3.99a8.018,8.018,0,0,1-2.247-.315,5.27,5.27,0,0,1-1.743-.819l.77-1.708a5.225,5.225,0,0,0,1.5.742,5.627,5.627,0,0,0,1.736.28,2.773,2.773,0,0,0,1.428-.287.867.867,0,0,0,.462-.763.729.729,0,0,0-.273-.581,2.07,2.07,0,0,0-.7-.371q-.427-.14-1.155-.308a15.967,15.967,0,0,1-1.834-.532,2.98,2.98,0,0,1-1.225-.854,2.306,2.306,0,0,1-.511-1.568,2.728,2.728,0,0,1,.462-1.547,3.108,3.108,0,0,1,1.393-1.1,5.684,5.684,0,0,1,2.275-.406,7.533,7.533,0,0,1,1.834.224,5.418,5.418,0,0,1,1.568.644l-.7,1.722a5.464,5.464,0,0,0-2.716-.77,2.547,2.547,0,0,0-1.407.308.94.94,0,0,0-.455.812.794.794,0,0,0,.525.749,8.243,8.243,0,0,0,1.6.483,15.966,15.966,0,0,1,1.834.532,3.037,3.037,0,0,1,1.225.84,2.252,2.252,0,0,1,.511,1.554,2.676,2.676,0,0,1-.469,1.533,3.151,3.151,0,0,1-1.407,1.1A5.736,5.736,0,0,1,108.976,14.168Z" transform="translate(1699 262)" fill="#707070"/>
        <g transform="matrix(1, 0, 0, 1, 1332.61, 206.5)" filter="url(#Elipse_26)">
          <circle id="Elipse_26-2" data-name="Elipse 26" cx="16" cy="16" r="16" transform="translate(413.39 9.5)" fill="#5e50b5"/>
        </g>
        <g id="Grupo_400" data-name="Grupo 400" transform="translate(1755.887 238.004) rotate(-90)" clip-path="url(#clip-path)">
          <g id="Grupo_399" data-name="Grupo 399" transform="translate(-19.387 -19.387)" clip-path="url(#clip-path-2)">
            <path id="Trazado_76" data-name="Trazado 76" d="M0,0H36.351V36.351H0Z" transform="translate(7.27 7.27)" fill="#fff"/>
          </g>
        </g>
      </g>
    </g>
  </g>
</svg>
