<svg xmlns="http://www.w3.org/2000/svg" xmlns:xlink="http://www.w3.org/1999/xlink" width="478.496" height="69.668" viewBox="0 0 478.496 69.668">
  <defs>
    <filter id="Elipse_19" x="16.391" y="0.5" width="50" height="50" filterUnits="userSpaceOnUse">
      <feOffset input="SourceAlpha"/>
      <feGaussianBlur stdDeviation="3" result="blur"/>
      <feFlood flood-color="#5e50b5" flood-opacity="0.596"/>
      <feComposite operator="in" in2="blur"/>
      <feComposite in="SourceGraphic"/>
    </filter>
    <clipPath id="clip-path">
      <path id="Trazado_55" data-name="Trazado 55" d="M6.058,12.117A6.058,6.058,0,1,0,0,6.058,6.058,6.058,0,0,0,6.058,12.117Z" fill="none" clip-rule="evenodd"/>
    </clipPath>
    <clipPath id="clip-path-2">
      <path id="Trazado_54" data-name="Trazado 54" d="M0,50.891H50.891V0H0Z" fill="none"/>
    </clipPath>
    <filter id="Elipse_21" x="144.391" y="0.5" width="50" height="50" filterUnits="userSpaceOnUse">
      <feOffset input="SourceAlpha"/>
      <feGaussianBlur stdDeviation="3" result="blur-2"/>
      <feFlood flood-color="#5e50b5" flood-opacity="0.596"/>
      <feComposite operator="in" in2="blur-2"/>
      <feComposite in="SourceGraphic"/>
    </filter>
    <filter id="Elipse_22" x="273.391" y="0.5" width="50" height="50" filterUnits="userSpaceOnUse">
      <feOffset input="SourceAlpha"/>
      <feGaussianBlur stdDeviation="3" result="blur-3"/>
      <feFlood flood-color="#5e50b5" flood-opacity="0.596"/>
      <feComposite operator="in" in2="blur-3"/>
      <feComposite in="SourceGraphic"/>
    </filter>
    <clipPath id="clip-path-7">
      <path id="Trazado_84" data-name="Trazado 84" d="M0,36.351H36.351V0H0Z" transform="translate(0)" fill="none"/>
    </clipPath>
  </defs>
  <g id="Entradas" transform="translate(-1341.609 -206.5)">
    <g id="Grupo_287" data-name="Grupo 287" transform="translate(9)">
      <path id="Trazado_31" data-name="Trazado 31" d="M0,50.891H50.891V0H0Z" transform="translate(1348.5 257.391) rotate(-90)" fill="none"/>
      <g id="Grupo_274" data-name="Grupo 274" transform="translate(1389.698 231.946) rotate(-90)">
        <path id="Trazado_42" data-name="Trazado 42" d="M0,0V96.935" transform="translate(0)" fill="none" stroke="#5f6d74" stroke-width="1" stroke-dasharray="2 2"/>
      </g>
      <g id="Grupo_275" data-name="Grupo 275" transform="translate(1518.137 231.946) rotate(-90)">
        <path id="Trazado_43" data-name="Trazado 43" d="M0,0V96.935" transform="translate(0)" fill="none" stroke="#5f6d74" stroke-width="1" stroke-dasharray="2 2"/>
      </g>
      <g id="Grupo_279" data-name="Grupo 279" transform="translate(1649.137 231.946) rotate(-90)">
        <path id="Trazado_43-2" data-name="Trazado 43" d="M0,0V96.935" transform="translate(0)" fill="none" stroke="#5f6d74" stroke-width="1" stroke-dasharray="2 2"/>
      </g>
      <g id="Función">
        <g transform="matrix(1, 0, 0, 1, 1332.61, 206.5)" filter="url(#Elipse_19)">
          <circle id="Elipse_19-2" data-name="Elipse 19" cx="16" cy="16" r="16" transform="translate(25.39 9.5)" fill="#5e50b5"/>
        </g>
        <g id="Grupo_286" data-name="Grupo 286" transform="translate(1367.887 238.004) rotate(-90)" clip-path="url(#clip-path)">
          <g id="Grupo_285" data-name="Grupo 285" transform="translate(-19.387 -19.387)" clip-path="url(#clip-path-2)">
            <path id="Trazado_53" data-name="Trazado 53" d="M0,0H36.351V36.351H0Z" transform="translate(7.27 7.27)" fill="#fff"/>
          </g>
        </g>
        <path id="Trazado_96" data-name="Trazado 96" d="M23.009,5.418V8.834h4.914v1.2H23.009V14h-1.4V4.2h6.916V5.418Zm14.35,8.694a4.066,4.066,0,0,1-3.052-1.12,4.425,4.425,0,0,1-1.092-3.22V4.2h1.4V9.716q0,3.15,2.758,3.15a2.655,2.655,0,0,0,2.058-.777,3.411,3.411,0,0,0,.714-2.373V4.2H41.5V9.772A4.421,4.421,0,0,1,40.411,13,4.081,4.081,0,0,1,37.359,14.112ZM55.6,4.2V14H54.453l-5.88-7.308V14h-1.4V4.2h1.148l5.88,7.308V4.2Zm10.122,9.912a5.41,5.41,0,0,1-2.653-.651,4.79,4.79,0,0,1-1.855-1.792A4.966,4.966,0,0,1,60.543,9.1a4.966,4.966,0,0,1,.672-2.569,4.777,4.777,0,0,1,1.862-1.792,5.45,5.45,0,0,1,2.66-.651,5.552,5.552,0,0,1,2.1.385,4.3,4.3,0,0,1,1.624,1.141l-.91.882a3.651,3.651,0,0,0-2.758-1.162,4,4,0,0,0-1.974.49A3.553,3.553,0,0,0,62.44,7.175a3.78,3.78,0,0,0-.5,1.925,3.78,3.78,0,0,0,.5,1.925,3.553,3.553,0,0,0,1.379,1.351,4,4,0,0,0,1.974.49,3.659,3.659,0,0,0,2.758-1.176l.91.882A4.355,4.355,0,0,1,67.83,13.72,5.517,5.517,0,0,1,65.723,14.112ZM74.263,4.2h1.4V14h-1.4Zm11.564,9.912a5.479,5.479,0,0,1-2.674-.651,4.812,4.812,0,0,1-1.869-1.8A4.938,4.938,0,0,1,80.6,9.1a4.938,4.938,0,0,1,.679-2.562,4.812,4.812,0,0,1,1.869-1.8,5.789,5.789,0,0,1,5.334,0,4.777,4.777,0,0,1,1.862,1.792A4.967,4.967,0,0,1,91.021,9.1a4.967,4.967,0,0,1-.672,2.569,4.777,4.777,0,0,1-1.862,1.792A5.45,5.45,0,0,1,85.827,14.112Zm0-1.246a3.85,3.85,0,0,0,1.939-.49,3.6,3.6,0,0,0,1.358-1.351,3.78,3.78,0,0,0,.5-1.925,3.78,3.78,0,0,0-.5-1.925,3.6,3.6,0,0,0-1.358-1.351,3.85,3.85,0,0,0-1.939-.49,3.928,3.928,0,0,0-1.953.49A3.567,3.567,0,0,0,82.5,7.175,3.78,3.78,0,0,0,82,9.1a3.78,3.78,0,0,0,.5,1.925,3.567,3.567,0,0,0,1.372,1.351A3.928,3.928,0,0,0,85.827,12.866Zm.854-11.284h1.708L86.037,3.4h-1.26ZM104.391,4.2V14h-1.148l-5.88-7.308V14h-1.4V4.2h1.148l5.88,7.308V4.2Z" transform="translate(1311 262)" fill="#707070"/>
      </g>
      <g id="Butacas">
        <path id="Trazado_93" data-name="Trazado 93" d="M28.588,8.918a2.51,2.51,0,0,1,1.344.861,2.47,2.47,0,0,1,.49,1.575,2.265,2.265,0,0,1-.959,1.96A4.772,4.772,0,0,1,26.67,14H21.994V4.2h4.4a4.334,4.334,0,0,1,2.6.672A2.18,2.18,0,0,1,29.9,6.734a2.421,2.421,0,0,1-.357,1.33A2.325,2.325,0,0,1,28.588,8.918ZM23.394,5.334V8.47h2.87a2.914,2.914,0,0,0,1.659-.4A1.328,1.328,0,0,0,28.5,6.9a1.328,1.328,0,0,0-.581-1.169,2.914,2.914,0,0,0-1.659-.4Zm3.22,7.532a3.315,3.315,0,0,0,1.792-.392,1.364,1.364,0,0,0,.6-1.232q0-1.638-2.394-1.638h-3.22v3.262Zm12.838,1.246a4.066,4.066,0,0,1-3.052-1.12,4.425,4.425,0,0,1-1.092-3.22V4.2h1.4V9.716q0,3.15,2.758,3.15a2.655,2.655,0,0,0,2.058-.777,3.411,3.411,0,0,0,.714-2.373V4.2H43.6V9.772A4.421,4.421,0,0,1,42.5,13,4.081,4.081,0,0,1,39.452,14.112ZM51.03,5.418H47.67V4.2h8.106V5.418h-3.36V14H51.03ZM65.856,11.55H60.648L59.57,14H58.128l4.438-9.8h1.386L68.4,14h-1.47Zm-.49-1.12-2.114-4.8-2.114,4.8ZM76.9,14.112a5.41,5.41,0,0,1-2.653-.651,4.79,4.79,0,0,1-1.855-1.792A4.966,4.966,0,0,1,71.722,9.1a4.966,4.966,0,0,1,.672-2.569,4.777,4.777,0,0,1,1.862-1.792,5.45,5.45,0,0,1,2.66-.651,5.552,5.552,0,0,1,2.1.385A4.3,4.3,0,0,1,80.64,5.614l-.91.882a3.651,3.651,0,0,0-2.758-1.162A4,4,0,0,0,75,5.824a3.553,3.553,0,0,0-1.379,1.351,3.78,3.78,0,0,0-.5,1.925,3.78,3.78,0,0,0,.5,1.925A3.553,3.553,0,0,0,75,12.376a4,4,0,0,0,1.974.49A3.659,3.659,0,0,0,79.73,11.69l.91.882a4.355,4.355,0,0,1-1.631,1.148A5.517,5.517,0,0,1,76.9,14.112ZM91.448,11.55H86.24L85.162,14H83.72l4.438-9.8h1.386L94,14h-1.47Zm-.49-1.12-2.114-4.8-2.114,4.8Zm10.15,3.682a6.707,6.707,0,0,1-2.135-.343,4.384,4.384,0,0,1-1.617-.889l.518-1.092a4.289,4.289,0,0,0,1.435.819,5.272,5.272,0,0,0,1.8.315,3.24,3.24,0,0,0,1.82-.413,1.273,1.273,0,0,0,.6-1.1,1.083,1.083,0,0,0-.329-.819,2.2,2.2,0,0,0-.812-.483q-.483-.168-1.365-.378A14.067,14.067,0,0,1,99.239,9.2a2.951,2.951,0,0,1-1.162-.819,2.187,2.187,0,0,1-.483-1.491,2.523,2.523,0,0,1,.413-1.414A2.837,2.837,0,0,1,99.26,4.466a5.083,5.083,0,0,1,2.086-.378,6.6,6.6,0,0,1,1.708.224,4.544,4.544,0,0,1,1.442.644l-.462,1.12a5.069,5.069,0,0,0-1.316-.6,4.912,4.912,0,0,0-1.372-.2,3.023,3.023,0,0,0-1.785.434,1.329,1.329,0,0,0-.6,1.12,1.071,1.071,0,0,0,.336.819,2.331,2.331,0,0,0,.833.49,13.015,13.015,0,0,0,1.351.371,13.685,13.685,0,0,1,1.778.532,2.993,2.993,0,0,1,1.155.812,2.139,2.139,0,0,1,.483,1.47,2.5,2.5,0,0,1-.42,1.407,2.813,2.813,0,0,1-1.274,1.008A5.27,5.27,0,0,1,101.108,14.112Z" transform="translate(1439 262)" fill="#707070"/>
        <g transform="matrix(1, 0, 0, 1, 1332.61, 206.5)" filter="url(#Elipse_21)">
          <circle id="Elipse_21-2" data-name="Elipse 21" cx="16" cy="16" r="16" transform="translate(153.39 9.5)" fill="#5e50b5"/>
        </g>
        <g id="Grupo_301" data-name="Grupo 301" transform="translate(1495.887 238.004) rotate(-90)" clip-path="url(#clip-path)">
          <g id="Grupo_300" data-name="Grupo 300" transform="translate(-19.387 -19.387)" clip-path="url(#clip-path-2)">
            <path id="Trazado_63" data-name="Trazado 63" d="M0,0H36.351V36.351H0Z" transform="translate(7.27 7.27)" fill="#fff"/>
          </g>
        </g>
      </g>
      <g id="Pago">
        <path id="Trazado_94" data-name="Trazado 94" d="M42.8,4.2a5.444,5.444,0,0,1,2.261.434,3.359,3.359,0,0,1,1.477,1.232,3.394,3.394,0,0,1,.518,1.89,3.4,3.4,0,0,1-.518,1.883,3.3,3.3,0,0,1-1.477,1.232A5.522,5.522,0,0,1,42.8,11.3H40.824V14H38.556V4.2Zm-.126,5.25a2.382,2.382,0,0,0,1.554-.441,1.536,1.536,0,0,0,.532-1.253,1.552,1.552,0,0,0-.532-1.267,2.382,2.382,0,0,0-1.554-.441H40.824v3.4ZM57.428,11.9h-4.55L52.01,14H49.686l4.368-9.8h2.24L60.676,14H58.3Zm-.714-1.722L55.16,6.426l-1.554,3.752ZM70.98,8.946h2.072v3.976a5.92,5.92,0,0,1-1.848.924,7.175,7.175,0,0,1-2.114.322,5.729,5.729,0,0,1-2.744-.651,4.846,4.846,0,0,1-1.911-1.806A4.976,4.976,0,0,1,63.742,9.1a4.976,4.976,0,0,1,.693-2.611A4.823,4.823,0,0,1,66.36,4.683a5.841,5.841,0,0,1,2.772-.651,6.066,6.066,0,0,1,2.338.434,4.633,4.633,0,0,1,1.764,1.26L71.778,7.07a3.368,3.368,0,0,0-2.534-1.106,3.459,3.459,0,0,0-1.666.392,2.812,2.812,0,0,0-1.134,1.106A3.255,3.255,0,0,0,66.038,9.1a3.227,3.227,0,0,0,.406,1.624,2.872,2.872,0,0,0,1.127,1.113,3.34,3.34,0,0,0,1.645.4,3.676,3.676,0,0,0,1.764-.42ZM82.7,14.168a5.72,5.72,0,0,1-2.751-.658A4.884,4.884,0,0,1,78.029,11.7a4.95,4.95,0,0,1-.693-2.6,4.95,4.95,0,0,1,.693-2.6A4.884,4.884,0,0,1,79.947,4.69a6.065,6.065,0,0,1,5.5,0A4.9,4.9,0,0,1,88.06,9.1a4.9,4.9,0,0,1-2.618,4.41A5.68,5.68,0,0,1,82.7,14.168Zm0-1.932a3.11,3.11,0,0,0,1.568-.4,2.863,2.863,0,0,0,1.1-1.113,3.272,3.272,0,0,0,.4-1.624,3.272,3.272,0,0,0-.4-1.624,2.863,2.863,0,0,0-1.1-1.113,3.28,3.28,0,0,0-3.136,0,2.863,2.863,0,0,0-1.1,1.113,3.272,3.272,0,0,0-.4,1.624,3.272,3.272,0,0,0,.4,1.624,2.863,2.863,0,0,0,1.1,1.113A3.11,3.11,0,0,0,82.7,12.236Z" transform="translate(1568 262)" fill="#707070"/>
        <g transform="matrix(1, 0, 0, 1, 1332.61, 206.5)" filter="url(#Elipse_22)">
          <circle id="Elipse_22-2" data-name="Elipse 22" cx="16" cy="16" r="16" transform="translate(282.39 9.5)" fill="#5e50b5"/>
        </g>
        <g id="Grupo_376" data-name="Grupo 376" transform="translate(1624.887 238.004) rotate(-90)" clip-path="url(#clip-path)">
          <g id="Grupo_375" data-name="Grupo 375" transform="translate(-19.387 -19.387)" clip-path="url(#clip-path-2)">
            <path id="Trazado_67" data-name="Trazado 67" d="M0,0H36.351V36.351H0Z" transform="translate(7.27 7.27)" fill="#fff"/>
          </g>
        </g>
      </g>
      <g id="Entradas-2" data-name="Entradas">
        <path id="Trazado_95" data-name="Trazado 95" d="M21.9,12.782V14H14.791V4.2h6.916V5.418H16.191v3.01H21.1v1.19H16.191v3.164ZM35.4,4.2V14H34.251l-5.88-7.308V14h-1.4V4.2h1.148L34,11.508V4.2Zm7.686,1.218h-3.36V4.2h8.106V5.418h-3.36V14H43.085ZM58.709,14,56.6,10.99q-.392.028-.616.028H53.557V14h-1.4V4.2h3.822a4.54,4.54,0,0,1,3,.91,3.086,3.086,0,0,1,1.092,2.506,3.278,3.278,0,0,1-.56,1.932,3.164,3.164,0,0,1-1.6,1.162L60.235,14ZM55.937,9.828a3.132,3.132,0,0,0,2.03-.574,2,2,0,0,0,.7-1.638,1.977,1.977,0,0,0-.7-1.631,3.16,3.16,0,0,0-2.03-.567h-2.38v4.41ZM71.379,11.55H66.171L65.093,14H63.651l4.438-9.8h1.386L73.927,14h-1.47Zm-.49-1.12-2.114-4.8-2.114,4.8ZM78.183,4.2h4.13a5.971,5.971,0,0,1,2.758.616A4.526,4.526,0,0,1,86.94,6.545,4.885,4.885,0,0,1,87.6,9.1a4.885,4.885,0,0,1-.665,2.555,4.526,4.526,0,0,1-1.869,1.729A5.971,5.971,0,0,1,82.313,14h-4.13Zm4.046,8.582a4.534,4.534,0,0,0,2.093-.462,3.34,3.34,0,0,0,1.393-1.3A3.725,3.725,0,0,0,86.2,9.1a3.725,3.725,0,0,0-.49-1.925A3.34,3.34,0,0,0,84.322,5.88a4.534,4.534,0,0,0-2.093-.462H79.583v7.364ZM98.651,11.55H93.443L92.365,14H90.923l4.438-9.8h1.386L101.2,14h-1.47Zm-.49-1.12-2.114-4.8-2.114,4.8Zm10.15,3.682a6.707,6.707,0,0,1-2.135-.343,4.384,4.384,0,0,1-1.617-.889l.518-1.092a4.289,4.289,0,0,0,1.435.819,5.272,5.272,0,0,0,1.8.315,3.24,3.24,0,0,0,1.82-.413,1.273,1.273,0,0,0,.6-1.1,1.083,1.083,0,0,0-.329-.819,2.2,2.2,0,0,0-.812-.483q-.483-.168-1.365-.378a14.067,14.067,0,0,1-1.785-.532,2.951,2.951,0,0,1-1.162-.819,2.187,2.187,0,0,1-.483-1.491,2.523,2.523,0,0,1,.413-1.414,2.837,2.837,0,0,1,1.253-1.008,5.083,5.083,0,0,1,2.086-.378,6.6,6.6,0,0,1,1.708.224,4.544,4.544,0,0,1,1.442.644l-.462,1.12a5.069,5.069,0,0,0-1.316-.6,4.912,4.912,0,0,0-1.372-.2,3.023,3.023,0,0,0-1.785.434,1.329,1.329,0,0,0-.6,1.12,1.071,1.071,0,0,0,.336.819,2.331,2.331,0,0,0,.833.49,13.015,13.015,0,0,0,1.351.371,13.685,13.685,0,0,1,1.778.532,2.993,2.993,0,0,1,1.155.812,2.139,2.139,0,0,1,.483,1.47,2.5,2.5,0,0,1-.42,1.407,2.813,2.813,0,0,1-1.274,1.008A5.27,5.27,0,0,1,108.311,14.112Z" transform="translate(1699 262)" fill="#707070"/>
        <g id="Grupo_541" data-name="Grupo 541" transform="translate(1743.65 250.121) rotate(-90)" clip-path="url(#clip-path-7)">
          <g id="Grupo_540" data-name="Grupo 540" transform="translate(2.423 2.423)">
            <path id="Trazado_83" data-name="Trazado 83" d="M15.752,31.5A15.752,15.752,0,1,0,0,15.752,15.752,15.752,0,0,0,15.752,31.5Z" fill="none" stroke="#5f6d74" stroke-width="1" stroke-dasharray="2 2"/>
          </g>
        </g>
      </g>
    </g>
  </g>
</svg>
