<svg xmlns="http://www.w3.org/2000/svg" xmlns:xlink="http://www.w3.org/1999/xlink" width="349.243" height="449.104" viewBox="0 0 349.243 449.104">
  <defs>
    <filter id="Sustracción_3" x="0" y="0" width="349.243" height="449.104" filterUnits="userSpaceOnUse">
      <feOffset dy="3" input="SourceAlpha"/>
      <feGaussianBlur stdDeviation="7.5" result="blur"/>
      <feFlood flood-color="#a5b0b5" flood-opacity="0.29"/>
      <feComposite operator="in" in2="blur"/>
      <feComposite in="SourceGraphic"/>
    </filter>
  </defs>
  <g id="Grupo_556" data-name="Grupo 556" transform="translate(-117.5 -386.5)">
    <g transform="matrix(1, 0, 0, 1, 117.5, 386.5)" filter="url(#Sustracción_3)">
      <g id="Sustracción_3-2" data-name="Sustracción 3" transform="translate(-191.5 11576.5)" fill="#fff">
        <path d="M 510.2427368164062 -11153.3955078125 L 222.0013885498047 -11153.3955078125 C 217.8646392822266 -11153.3955078125 214.4991912841797 -11156.759765625 214.4991912841797 -11160.89453125 L 214.4991912841797 -11299.5126953125 C 214.6681365966797 -11299.50390625 214.8353881835938 -11299.4990234375 214.9997863769531 -11299.4990234375 C 220.2380828857422 -11299.4990234375 224.4997863769531 -11303.7607421875 224.4997863769531 -11308.9990234375 C 224.4997863769531 -11314.2373046875 220.2380828857422 -11318.4990234375 214.9997863769531 -11318.4990234375 C 214.8338012695312 -11318.4990234375 214.6665649414062 -11318.4951171875 214.4991912841797 -11318.486328125 L 214.4991912841797 -11549.0009765625 C 214.4991912841797 -11553.1357421875 217.8646392822266 -11556.5 222.0013885498047 -11556.5 L 510.2427368164062 -11556.5 C 514.3778686523438 -11556.5 517.7420654296875 -11553.1357421875 517.7420654296875 -11549.0009765625 L 517.7420654296875 -11318.4951171875 C 512.6231079101562 -11318.357421875 508.5013427734375 -11314.150390625 508.5013427734375 -11308.9990234375 C 508.5013427734375 -11303.84765625 512.6231079101562 -11299.640625 517.7421264648438 -11299.5029296875 L 517.7420654296875 -11160.89453125 C 517.7420654296875 -11156.759765625 514.3778686523438 -11153.3955078125 510.2427368164062 -11153.3955078125 Z" stroke="none"/>
        <path d="M 510.2427368164062 -11153.8955078125 C 514.1021728515625 -11153.8955078125 517.2420654296875 -11157.03515625 517.2420654296875 -11160.89453125 L 517.2421264648438 -11299.02734375 C 512.0814819335938 -11299.4169921875 508.0013427734375 -11303.740234375 508.0013427734375 -11308.9990234375 C 508.0013427734375 -11314.2578125 512.0814208984375 -11318.5810546875 517.2420654296875 -11318.970703125 L 517.2420654296875 -11549.0009765625 C 517.2420654296875 -11552.8603515625 514.1021728515625 -11556 510.2427368164062 -11556 L 222.0013885498047 -11556 C 218.1403350830078 -11556 214.9991912841797 -11552.8603515625 214.9991912841797 -11549.0009765625 L 214.9991912841797 -11318.9990234375 C 214.9993896484375 -11318.9990234375 214.9995880126953 -11318.9990234375 214.9997863769531 -11318.9990234375 C 220.5137786865234 -11318.9990234375 224.9997863769531 -11314.5126953125 224.9997863769531 -11308.9990234375 C 224.9997863769531 -11303.4853515625 220.5137786865234 -11298.9990234375 214.9997863769531 -11298.9990234375 C 214.9995880126953 -11298.9990234375 214.9993896484375 -11298.9990234375 214.9991912841797 -11298.9990234375 L 214.9991912841797 -11160.89453125 C 214.9991912841797 -11157.03515625 218.1403350830078 -11153.8955078125 222.0013885498047 -11153.8955078125 L 510.2427368164062 -11153.8955078125 M 510.2427368164062 -11152.8955078125 L 222.0013885498047 -11152.8955078125 C 217.5889892578125 -11152.8955078125 213.9991912841797 -11156.4833984375 213.9991912841797 -11160.89453125 L 213.9991912841797 -11300.0546875 C 214.3309326171875 -11300.0185546875 214.667236328125 -11299.9990234375 214.9997863769531 -11299.9990234375 C 219.9623870849609 -11299.9990234375 223.9997863769531 -11304.0361328125 223.9997863769531 -11308.9990234375 C 223.9997863769531 -11313.9619140625 219.9623870849609 -11317.9990234375 214.9997863769531 -11317.9990234375 C 214.6670379638672 -11317.9990234375 214.3303833007812 -11317.98046875 213.9991912841797 -11317.9443359375 L 213.9991912841797 -11549.0009765625 C 213.9991912841797 -11553.412109375 217.5889892578125 -11557 222.0013885498047 -11557 L 510.2427368164062 -11557 C 514.653564453125 -11557 518.2420654296875 -11553.412109375 518.2420654296875 -11549.0009765625 L 518.2420654296875 -11317.99609375 C 518.169677734375 -11317.998046875 518.09130859375 -11317.9990234375 518.0013427734375 -11317.9990234375 C 513.0386962890625 -11317.9990234375 509.0013427734375 -11313.9619140625 509.0013427734375 -11308.9990234375 C 509.0013427734375 -11304.0361328125 513.0386962890625 -11299.9990234375 518.0013427734375 -11299.9990234375 C 518.1017456054688 -11299.9990234375 518.176025390625 -11300 518.2421264648438 -11300.0029296875 L 518.2420654296875 -11160.89453125 C 518.2420654296875 -11156.4833984375 514.653564453125 -11152.8955078125 510.2427368164062 -11152.8955078125 Z" stroke="none" fill="#5e50b5"/>
      </g>
    </g>
    <path id="Trazado_123" data-name="Trazado 123" d="M62.108,18.6V21H50.558V5.6H61.8V8H53.418v4h7.436v2.354H53.418V18.6ZM72.294,21,69.28,16.93,66.244,21H63.208l4.576-5.962L63.406,9.252h3.058l2.882,3.85,2.882-3.85H75.2l-4.4,5.742L75.4,21Zm15.774-5.808q0,.286-.044.814H78.806a3.2,3.2,0,0,0,1.265,2.057,4.146,4.146,0,0,0,2.541.759,4.282,4.282,0,0,0,3.19-1.276l1.474,1.694a4.966,4.966,0,0,1-2,1.43,7.933,7.933,0,0,1-6.138-.286,5.546,5.546,0,0,1-2.277-2.145,6.058,6.058,0,0,1-.8-3.113,6.147,6.147,0,0,1,.781-3.091A5.54,5.54,0,0,1,79,9.89a6.323,6.323,0,0,1,3.124-.77,6.164,6.164,0,0,1,3.069.759,5.375,5.375,0,0,1,2.112,2.134A6.471,6.471,0,0,1,88.068,15.192Zm-5.94-3.872a3.25,3.25,0,0,0-3.344,2.86H85.45a3.242,3.242,0,0,0-1.078-2.068A3.278,3.278,0,0,0,82.128,11.32Zm20.064-2.068V25.268h-2.75v-5.7a4.743,4.743,0,0,1-3.762,1.584,6.236,6.236,0,0,1-3.069-.748A5.32,5.32,0,0,1,90.5,18.294a6.408,6.408,0,0,1-.759-3.168,6.289,6.289,0,0,1,.77-3.146,5.415,5.415,0,0,1,2.112-2.112A6.174,6.174,0,0,1,95.68,9.12a5.683,5.683,0,0,1,2.211.418,4.255,4.255,0,0,1,1.683,1.254V9.252Zm-6.2,9.548A3.36,3.36,0,0,0,98.5,17.788a3.644,3.644,0,0,0,.99-2.662,3.644,3.644,0,0,0-.99-2.662,3.36,3.36,0,0,0-2.508-1.012,3.324,3.324,0,0,0-2.5,1.012,3.667,3.667,0,0,0-.979,2.662,3.667,3.667,0,0,0,.979,2.662A3.324,3.324,0,0,0,95.988,18.8Zm21.186-9.548V21h-2.618V19.5a4.377,4.377,0,0,1-1.65,1.221,5.309,5.309,0,0,1-2.134.429,5.107,5.107,0,0,1-3.707-1.309,5.165,5.165,0,0,1-1.353-3.883V9.252h2.75v6.336a3.4,3.4,0,0,0,.715,2.365,2.62,2.62,0,0,0,2.035.781,3.082,3.082,0,0,0,2.343-.913,3.668,3.668,0,0,0,.869-2.629V9.252Zm3.608,0h2.75V21h-2.75Zm1.386-1.936a1.766,1.766,0,0,1-1.254-.473,1.545,1.545,0,0,1-.506-1.177,1.545,1.545,0,0,1,.506-1.177,1.766,1.766,0,0,1,1.254-.473,1.816,1.816,0,0,1,1.254.451,1.454,1.454,0,0,1,.506,1.133,1.659,1.659,0,0,1-.495,1.221A1.713,1.713,0,0,1,122.168,7.316Zm16.016,7.876q0,.286-.044.814h-9.218a3.2,3.2,0,0,0,1.265,2.057,4.146,4.146,0,0,0,2.541.759,4.282,4.282,0,0,0,3.19-1.276l1.474,1.694a4.966,4.966,0,0,1-2,1.43,7.933,7.933,0,0,1-6.138-.286,5.546,5.546,0,0,1-2.277-2.145,6.058,6.058,0,0,1-.8-3.113,6.147,6.147,0,0,1,.781-3.091A5.54,5.54,0,0,1,129.12,9.89a6.323,6.323,0,0,1,3.124-.77,6.164,6.164,0,0,1,3.069.759,5.375,5.375,0,0,1,2.112,2.134A6.471,6.471,0,0,1,138.184,15.192Zm-5.94-3.872a3.25,3.25,0,0,0-3.344,2.86h6.666a3.242,3.242,0,0,0-1.078-2.068A3.278,3.278,0,0,0,132.244,11.32Zm8.58-6.644h2.75V21h-2.75ZM167.664,21l-.022-10.208-5.06,8.448h-1.276l-5.06-8.316V21h-2.728V5.6h2.354l6.116,10.208L167.994,5.6h2.354L170.37,21Zm17.644-5.808q0,.286-.044.814h-9.218a3.2,3.2,0,0,0,1.265,2.057,4.146,4.146,0,0,0,2.541.759,4.282,4.282,0,0,0,3.19-1.276l1.474,1.694a4.966,4.966,0,0,1-2,1.43,7.933,7.933,0,0,1-6.138-.286,5.545,5.545,0,0,1-2.277-2.145,6.057,6.057,0,0,1-.8-3.113,6.147,6.147,0,0,1,.781-3.091,5.54,5.54,0,0,1,2.167-2.145,6.323,6.323,0,0,1,3.124-.77,6.164,6.164,0,0,1,3.069.759,5.375,5.375,0,0,1,2.112,2.134A6.471,6.471,0,0,1,185.308,15.192Zm-5.94-3.872a3.25,3.25,0,0,0-3.344,2.86h6.666a3.242,3.242,0,0,0-1.078-2.068A3.278,3.278,0,0,0,179.368,11.32Zm15.246-2.2a4.909,4.909,0,0,1,3.564,1.3,5.12,5.12,0,0,1,1.342,3.85V21h-2.75V14.62a3.3,3.3,0,0,0-.726-2.321,2.684,2.684,0,0,0-2.068-.781,3.175,3.175,0,0,0-2.4.913,3.639,3.639,0,0,0-.88,2.629V21h-2.75V9.252h2.618V10.77a4.3,4.3,0,0,1,1.716-1.232A6.175,6.175,0,0,1,194.614,9.12Zm20.02-4.444V21h-2.64V19.482a4.255,4.255,0,0,1-1.683,1.254,5.683,5.683,0,0,1-2.211.418,6.191,6.191,0,0,1-3.047-.748,5.375,5.375,0,0,1-2.123-2.123,6.351,6.351,0,0,1-.77-3.157,6.289,6.289,0,0,1,.77-3.146,5.394,5.394,0,0,1,2.123-2.112A6.191,6.191,0,0,1,208.1,9.12a5.585,5.585,0,0,1,2.134.4,4.292,4.292,0,0,1,1.65,1.188V4.676ZM208.43,18.8a3.537,3.537,0,0,0,1.782-.451,3.259,3.259,0,0,0,1.254-1.287,3.937,3.937,0,0,0,.462-1.936,3.937,3.937,0,0,0-.462-1.936,3.259,3.259,0,0,0-1.254-1.287,3.746,3.746,0,0,0-3.564,0,3.259,3.259,0,0,0-1.254,1.287,3.937,3.937,0,0,0-.462,1.936,3.937,3.937,0,0,0,.462,1.936,3.259,3.259,0,0,0,1.254,1.287A3.537,3.537,0,0,0,208.43,18.8Zm15.092,2.354a6.666,6.666,0,0,1-3.212-.77,5.614,5.614,0,0,1-2.233-2.145,6.057,6.057,0,0,1-.8-3.113,6,6,0,0,1,.8-3.1A5.637,5.637,0,0,1,220.31,9.89a7.13,7.13,0,0,1,6.446,0,5.637,5.637,0,0,1,2.233,2.134,6,6,0,0,1,.8,3.1,6.057,6.057,0,0,1-.8,3.113,5.614,5.614,0,0,1-2.233,2.145A6.712,6.712,0,0,1,223.522,21.154Zm0-2.354a3.36,3.36,0,0,0,2.508-1.012,3.644,3.644,0,0,0,.99-2.662,3.644,3.644,0,0,0-.99-2.662,3.36,3.36,0,0,0-2.508-1.012,3.324,3.324,0,0,0-2.5,1.012,3.667,3.667,0,0,0-.979,2.662,3.667,3.667,0,0,0,.979,2.662A3.324,3.324,0,0,0,223.522,18.8Zm17.908,0V21H231.288V19.262l6.446-7.81H231.42v-2.2h9.834V10.99l-6.468,7.81Zm7.018-9.68a5.728,5.728,0,0,1,3.971,1.243,4.8,4.8,0,0,1,1.375,3.751V21h-2.6V19.57a3.2,3.2,0,0,1-1.441,1.177,5.633,5.633,0,0,1-2.255.407,5.525,5.525,0,0,1-2.31-.451,3.569,3.569,0,0,1-1.529-1.254,3.182,3.182,0,0,1-.539-1.815,3.111,3.111,0,0,1,1.177-2.541,5.845,5.845,0,0,1,3.707-.957h3.036V13.96a2.408,2.408,0,0,0-.737-1.892,3.189,3.189,0,0,0-2.189-.66,6.318,6.318,0,0,0-1.947.308,4.783,4.783,0,0,0-1.617.858l-1.078-2A6.675,6.675,0,0,1,245.7,9.494,9.887,9.887,0,0,1,248.448,9.12Zm-.374,10.032a3.551,3.551,0,0,0,1.837-.473,2.574,2.574,0,0,0,1.133-1.353V15.962h-2.838q-2.376,0-2.376,1.562a1.4,1.4,0,0,0,.594,1.188A2.723,2.723,0,0,0,248.074,19.152Z" transform="translate(140 554)" fill="#5e50b5"/>
    <path id="Trazado_124" data-name="Trazado 124" d="M93.457,10.2h-2.79v2.73h-.945V10.2h-2.79V9.315h2.79V6.57h.945V9.315h2.79Zm4.59-1.4a5.4,5.4,0,0,1,3.323.817,2.742,2.742,0,0,1,1.042,2.288,3.141,3.141,0,0,1-.427,1.635,2.912,2.912,0,0,1-1.283,1.132,4.808,4.808,0,0,1-2.1.413,6.216,6.216,0,0,1-2.138-.368,4.369,4.369,0,0,1-1.627-.983l.525-.855a3.876,3.876,0,0,0,1.38.877,4.98,4.98,0,0,0,1.845.338,3.1,3.1,0,0,0,2.018-.585,1.916,1.916,0,0,0,.712-1.56,1.86,1.86,0,0,0-.8-1.635,4.94,4.94,0,0,0-2.707-.555H95.573l.54-5.265h5.745v.96h-4.8L96.7,8.805ZM112.7,12.24h-2.1V15h-1.08V12.24H103.6v-.78l5.565-6.96h1.2l-5.37,6.78h4.56V8.85h1.05v2.43h2.1Zm9.1,2.85a3.775,3.775,0,0,1-2.167-.645,4.227,4.227,0,0,1-1.485-1.852,7,7,0,0,1-.533-2.842,7,7,0,0,1,.533-2.842,4.227,4.227,0,0,1,1.485-1.852,3.964,3.964,0,0,1,4.335,0,4.276,4.276,0,0,1,1.493,1.852,6.914,6.914,0,0,1,.54,2.842,6.914,6.914,0,0,1-.54,2.842,4.276,4.276,0,0,1-1.493,1.852A3.775,3.775,0,0,1,121.807,15.09Zm0-.99a2.66,2.66,0,0,0,1.613-.51,3.3,3.3,0,0,0,1.088-1.485,6.344,6.344,0,0,0,.39-2.355,6.344,6.344,0,0,0-.39-2.355A3.3,3.3,0,0,0,123.42,5.91a2.8,2.8,0,0,0-3.225,0,3.3,3.3,0,0,0-1.088,1.485,6.344,6.344,0,0,0-.39,2.355,6.344,6.344,0,0,0,.39,2.355,3.3,3.3,0,0,0,1.088,1.485A2.66,2.66,0,0,0,121.807,14.1Zm8.625-9.6V15h-1.08V5.46h-2.475V4.5Zm5.415,0V15h-1.08V5.46h-2.475V4.5Zm9.345,0V15h-1.08V5.46h-2.475V4.5Zm5.415,0V15h-1.08V5.46h-2.475V4.5Zm5.265,4.305a5.4,5.4,0,0,1,3.323.817,2.742,2.742,0,0,1,1.042,2.288,3.141,3.141,0,0,1-.428,1.635,2.912,2.912,0,0,1-1.282,1.132,4.808,4.808,0,0,1-2.1.413,6.216,6.216,0,0,1-2.137-.368,4.369,4.369,0,0,1-1.628-.983l.525-.855a3.877,3.877,0,0,0,1.38.877,4.98,4.98,0,0,0,1.845.338,3.1,3.1,0,0,0,2.018-.585,1.916,1.916,0,0,0,.712-1.56,1.86,1.86,0,0,0-.8-1.635,4.94,4.94,0,0,0-2.708-.555H153.4l.54-5.265h5.745v.96h-4.8l-.36,3.345Zm8.64-4.305V15h-1.08V5.46h-2.475V4.5Zm5.415,0V15h-1.08V5.46h-2.475V4.5Zm6.855,4.215a4.153,4.153,0,0,1,1.837.39,2.99,2.99,0,0,1,1.253,1.1,3.038,3.038,0,0,1,.45,1.657,3.1,3.1,0,0,1-.465,1.695,3.07,3.07,0,0,1-1.283,1.133,4.147,4.147,0,0,1-1.837.4,3.871,3.871,0,0,1-3.2-1.373,6.019,6.019,0,0,1-1.11-3.877,6.662,6.662,0,0,1,.6-2.97,4.2,4.2,0,0,1,1.68-1.837,4.957,4.957,0,0,1,2.52-.622,4.732,4.732,0,0,1,2.49.57l-.435.87a3.665,3.665,0,0,0-2.04-.495,3.482,3.482,0,0,0-2.73,1.1,4.643,4.643,0,0,0-.99,3.2q0,.375.045.855a2.831,2.831,0,0,1,1.245-1.327A4,4,0,0,1,176.783,8.715Zm-.09,5.46a2.713,2.713,0,0,0,1.853-.623,2.092,2.092,0,0,0,.712-1.657,2.069,2.069,0,0,0-.712-1.65,2.85,2.85,0,0,0-1.928-.615,3.129,3.129,0,0,0-1.4.3,2.364,2.364,0,0,0-.952.825,2.085,2.085,0,0,0-.345,1.17,2.037,2.037,0,0,0,.322,1.11,2.317,2.317,0,0,0,.952.825A3.32,3.32,0,0,0,176.692,14.175Zm8.145-9.765a3.871,3.871,0,0,1,3.195,1.372,6.019,6.019,0,0,1,1.11,3.877,6.662,6.662,0,0,1-.6,2.97,4.2,4.2,0,0,1-1.68,1.837,4.957,4.957,0,0,1-2.52.623,4.732,4.732,0,0,1-2.49-.57l.435-.87a3.665,3.665,0,0,0,2.04.5,3.482,3.482,0,0,0,2.73-1.1,4.643,4.643,0,0,0,.99-3.2q0-.39-.045-.855a2.831,2.831,0,0,1-1.245,1.327,4,4,0,0,1-1.965.472,4.153,4.153,0,0,1-1.838-.39,2.99,2.99,0,0,1-1.253-1.1,3.038,3.038,0,0,1-.45-1.657,3.1,3.1,0,0,1,.465-1.695A3.07,3.07,0,0,1,183,4.807,4.147,4.147,0,0,1,184.838,4.41Zm.12,5.46a3.129,3.129,0,0,0,1.4-.3,2.364,2.364,0,0,0,.952-.825,2.085,2.085,0,0,0,.345-1.17,2.037,2.037,0,0,0-.322-1.11,2.317,2.317,0,0,0-.952-.825,3.32,3.32,0,0,0-1.5-.315,2.713,2.713,0,0,0-1.853.622,2.092,2.092,0,0,0-.712,1.657,2.069,2.069,0,0,0,.712,1.65A2.85,2.85,0,0,0,184.958,9.87Zm8.5-1.065a5.4,5.4,0,0,1,3.323.817,2.742,2.742,0,0,1,1.042,2.288,3.141,3.141,0,0,1-.428,1.635,2.912,2.912,0,0,1-1.283,1.132,4.808,4.808,0,0,1-2.1.413,6.216,6.216,0,0,1-2.137-.368,4.369,4.369,0,0,1-1.628-.983l.525-.855a3.877,3.877,0,0,0,1.38.877A4.98,4.98,0,0,0,194,14.1a3.1,3.1,0,0,0,2.018-.585,1.916,1.916,0,0,0,.712-1.56,1.86,1.86,0,0,0-.8-1.635,4.94,4.94,0,0,0-2.708-.555h-2.235l.54-5.265h5.745v.96h-4.8l-.36,3.345Zm10.08-.09a4.153,4.153,0,0,1,1.837.39,2.99,2.99,0,0,1,1.253,1.1,3.038,3.038,0,0,1,.45,1.657,3.1,3.1,0,0,1-.465,1.695,3.07,3.07,0,0,1-1.283,1.133,4.147,4.147,0,0,1-1.837.4,3.871,3.871,0,0,1-3.2-1.373,6.019,6.019,0,0,1-1.11-3.877,6.662,6.662,0,0,1,.6-2.97,4.2,4.2,0,0,1,1.68-1.837,4.957,4.957,0,0,1,2.52-.622,4.732,4.732,0,0,1,2.49.57l-.435.87a3.665,3.665,0,0,0-2.04-.495,3.482,3.482,0,0,0-2.73,1.1,4.643,4.643,0,0,0-.99,3.2q0,.375.045.855a2.831,2.831,0,0,1,1.245-1.327A4,4,0,0,1,203.543,8.715Zm-.09,5.46a2.713,2.713,0,0,0,1.853-.623,2.092,2.092,0,0,0,.712-1.657,2.069,2.069,0,0,0-.712-1.65,2.85,2.85,0,0,0-1.928-.615,3.129,3.129,0,0,0-1.4.3,2.364,2.364,0,0,0-.952.825,2.085,2.085,0,0,0-.345,1.17,2.037,2.037,0,0,0,.322,1.11,2.317,2.317,0,0,0,.952.825A3.32,3.32,0,0,0,203.452,14.175Zm10.89-4.68a3.191,3.191,0,0,1,1.523.99,2.452,2.452,0,0,1,.533,1.59,2.648,2.648,0,0,1-.5,1.6,3.123,3.123,0,0,1-1.417,1.05,5.838,5.838,0,0,1-2.167.368,4.85,4.85,0,0,1-2.97-.81,2.609,2.609,0,0,1-1.08-2.2,2.491,2.491,0,0,1,.518-1.6,3.12,3.12,0,0,1,1.507-.983,2.619,2.619,0,0,1-1.23-.908,2.362,2.362,0,0,1-.42-1.4,2.4,2.4,0,0,1,1-2.025,4.352,4.352,0,0,1,2.678-.75,5.147,5.147,0,0,1,1.942.337,2.937,2.937,0,0,1,1.3.967,2.408,2.408,0,0,1,.465,1.47,2.3,2.3,0,0,1-.435,1.4A2.716,2.716,0,0,1,214.342,9.495Zm-4.62-2.28a1.627,1.627,0,0,0,.69,1.38,3.146,3.146,0,0,0,1.9.51,3.181,3.181,0,0,0,1.912-.51,1.607,1.607,0,0,0,.7-1.365,1.624,1.624,0,0,0-.713-1.395,3.194,3.194,0,0,0-1.9-.51,3.153,3.153,0,0,0-1.9.51A1.621,1.621,0,0,0,209.723,7.215Zm2.6,6.96a3.664,3.664,0,0,0,2.182-.57,1.809,1.809,0,0,0,.788-1.545,1.79,1.79,0,0,0-.788-1.538,4.486,4.486,0,0,0-4.35,0,1.79,1.79,0,0,0-.787,1.538,1.809,1.809,0,0,0,.78,1.552A3.665,3.665,0,0,0,212.318,14.175Z" transform="translate(141 593)" fill="#5f6d74"/>
    <path id="Trazado_125" data-name="Trazado 125" d="M87.33,16.36V19H76.75V16.9l5.4-5.1a5.735,5.735,0,0,0,1.16-1.41,2.565,2.565,0,0,0,.3-1.17,1.547,1.547,0,0,0-.57-1.29,2.652,2.652,0,0,0-1.67-.45,3.835,3.835,0,0,0-1.66.35,3.179,3.179,0,0,0-1.24,1.05L76.11,7.36a5.536,5.536,0,0,1,2.26-1.91,7.548,7.548,0,0,1,3.3-.69,6.785,6.785,0,0,1,2.73.51,4.208,4.208,0,0,1,1.82,1.44,3.726,3.726,0,0,1,.65,2.19,4.882,4.882,0,0,1-.48,2.14,8.238,8.238,0,0,1-1.86,2.28l-3.22,3.04Zm22.72.04V19H99.21V5h10.58V7.6h-7.36v3.04h6.5v2.52h-6.5V16.4ZM127.47,5V19h-2.66l-6.98-8.5V19h-3.2V5h2.68l6.96,8.5V5Zm8.22,2.64h-4.48V5h12.2V7.64h-4.48V19h-3.24ZM156.07,19l-2.7-3.9h-2.98V19h-3.24V5h6.06a7.777,7.777,0,0,1,3.23.62,4.8,4.8,0,0,1,2.11,1.76,4.849,4.849,0,0,1,.74,2.7,4.752,4.752,0,0,1-.75,2.69,4.754,4.754,0,0,1-2.13,1.73l3.14,4.5Zm-.06-8.92a2.218,2.218,0,0,0-.76-1.81,3.4,3.4,0,0,0-2.22-.63h-2.64v4.88h2.64a3.365,3.365,0,0,0,2.22-.64A2.224,2.224,0,0,0,156.01,10.08ZM173.07,16h-6.5l-1.24,3h-3.32l6.24-14h3.2l6.26,14h-3.4Zm-1.02-2.46-2.22-5.36-2.22,5.36ZM181.17,5h6.36a8.938,8.938,0,0,1,4.03.87,6.514,6.514,0,0,1,2.72,2.45,6.891,6.891,0,0,1,.97,3.68,6.891,6.891,0,0,1-.97,3.68,6.514,6.514,0,0,1-2.72,2.45,8.938,8.938,0,0,1-4.03.87h-6.36Zm6.2,11.34a4.7,4.7,0,0,0,3.35-1.17A4.132,4.132,0,0,0,191.97,12a4.132,4.132,0,0,0-1.25-3.17,4.7,4.7,0,0,0-3.35-1.17h-2.96v8.68ZM208.71,16h-6.5l-1.24,3h-3.32l6.24-14h3.2l6.26,14h-3.4Zm-1.02-2.46-2.22-5.36-2.22,5.36Zm13.72,5.7a11.455,11.455,0,0,1-3.21-.45,7.528,7.528,0,0,1-2.49-1.17l1.1-2.44a7.464,7.464,0,0,0,2.14,1.06,8.038,8.038,0,0,0,2.48.4,3.962,3.962,0,0,0,2.04-.41,1.239,1.239,0,0,0,.66-1.09,1.042,1.042,0,0,0-.39-.83,2.957,2.957,0,0,0-1-.53q-.61-.2-1.65-.44a22.808,22.808,0,0,1-2.62-.76,4.257,4.257,0,0,1-1.75-1.22,3.3,3.3,0,0,1-.73-2.24,3.9,3.9,0,0,1,.66-2.21,4.44,4.44,0,0,1,1.99-1.57,8.12,8.12,0,0,1,3.25-.58,10.761,10.761,0,0,1,2.62.32,7.74,7.74,0,0,1,2.24.92l-1,2.46a7.806,7.806,0,0,0-3.88-1.1,3.638,3.638,0,0,0-2.01.44,1.343,1.343,0,0,0-.65,1.16,1.134,1.134,0,0,0,.75,1.07,11.775,11.775,0,0,0,2.29.69,22.809,22.809,0,0,1,2.62.76,4.339,4.339,0,0,1,1.75,1.2,3.217,3.217,0,0,1,.73,2.22,3.823,3.823,0,0,1-.67,2.19,4.5,4.5,0,0,1-2.01,1.57A8.194,8.194,0,0,1,221.41,19.24Z" transform="translate(140 691)" fill="#5f6d74"/>
    <g id="ic_check_copy" data-name="ic_check copy" transform="translate(399 427)">
      <path id="Shape" d="M0,0H24V24H0Z" fill="none"/>
      <circle id="Oval_3_Copy" data-name="Oval 3 Copy" cx="12" cy="12" r="12" fill="#5e50b5"/>
      <path id="Shape-2" data-name="Shape" d="M5.707,9.713a1,1,0,0,1-1.414,0L.707,6.127a1,1,0,0,1,0-1.414h0a1,1,0,0,1,1.407,0L4.646,7.237a.5.5,0,0,0,.707,0L11.88.71a1,1,0,0,1,1.417,0h0a1,1,0,0,1,0,1.412Z" transform="translate(5 7)" fill="#fff"/>
    </g>
    <g id="qr-google-com-ar" transform="translate(230 430.53)">
      <rect id="Rectángulo_28" data-name="Rectángulo 28" width="113" height="113" transform="translate(0 0.47)" fill="#fff"/>
      <g id="Grupo_142" data-name="Grupo 142" transform="translate(13.754 13.754)">
        <rect id="Rectángulo_29" data-name="Rectángulo 29" width="3" height="4" transform="translate(0.246 -0.284)"/>
        <rect id="Rectángulo_30" data-name="Rectángulo 30" width="3" height="3" transform="translate(0.246 3.716)"/>
        <rect id="Rectángulo_31" data-name="Rectángulo 31" width="3" height="4" transform="translate(0.246 6.716)"/>
        <rect id="Rectángulo_32" data-name="Rectángulo 32" width="3" height="3" transform="translate(0.246 10.716)"/>
        <rect id="Rectángulo_33" data-name="Rectángulo 33" width="3" height="3" transform="translate(0.246 13.716)"/>
        <rect id="Rectángulo_34" data-name="Rectángulo 34" width="3" height="4" transform="translate(0.246 16.716)"/>
        <rect id="Rectángulo_35" data-name="Rectángulo 35" width="3" height="3" transform="translate(0.246 20.716)"/>
        <rect id="Rectángulo_36" data-name="Rectángulo 36" width="3" height="3" transform="translate(0.246 27.716)"/>
        <rect id="Rectángulo_37" data-name="Rectángulo 37" width="3" height="4" transform="translate(0.246 30.716)"/>
        <rect id="Rectángulo_38" data-name="Rectángulo 38" width="3" height="3" transform="translate(0.246 34.716)"/>
        <rect id="Rectángulo_39" data-name="Rectángulo 39" width="3" height="4" transform="translate(0.246 37.716)"/>
        <rect id="Rectángulo_40" data-name="Rectángulo 40" width="3" height="3" transform="translate(0.246 41.716)"/>
        <rect id="Rectángulo_41" data-name="Rectángulo 41" width="3" height="4" transform="translate(0.246 61.716)"/>
        <rect id="Rectángulo_42" data-name="Rectángulo 42" width="3" height="3" transform="translate(0.246 65.716)"/>
        <rect id="Rectángulo_43" data-name="Rectángulo 43" width="3" height="3" transform="translate(0.246 68.716)"/>
        <rect id="Rectángulo_44" data-name="Rectángulo 44" width="3" height="4" transform="translate(0.246 71.716)"/>
        <rect id="Rectángulo_45" data-name="Rectángulo 45" width="3" height="3" transform="translate(0.246 75.716)"/>
        <rect id="Rectángulo_46" data-name="Rectángulo 46" width="3" height="4" transform="translate(0.246 78.716)"/>
        <rect id="Rectángulo_47" data-name="Rectángulo 47" width="3" height="3" transform="translate(0.246 82.716)"/>
        <rect id="Rectángulo_48" data-name="Rectángulo 48" width="4" height="4" transform="translate(3.246 -0.284)"/>
        <rect id="Rectángulo_49" data-name="Rectángulo 49" width="4" height="3" transform="translate(3.246 20.716)"/>
        <rect id="Rectángulo_50" data-name="Rectángulo 50" width="4" height="3" transform="translate(3.246 34.716)"/>
        <rect id="Rectángulo_51" data-name="Rectángulo 51" width="4" height="4" transform="translate(3.246 37.716)"/>
        <rect id="Rectángulo_52" data-name="Rectángulo 52" width="4" height="3" transform="translate(3.246 41.716)"/>
        <rect id="Rectángulo_53" data-name="Rectángulo 53" width="4" height="3" transform="translate(3.246 51.716)"/>
        <rect id="Rectángulo_54" data-name="Rectángulo 54" width="4" height="4" transform="translate(3.246 54.716)"/>
        <rect id="Rectángulo_55" data-name="Rectángulo 55" width="4" height="4" transform="translate(3.246 61.716)"/>
        <rect id="Rectángulo_56" data-name="Rectángulo 56" width="4" height="3" transform="translate(3.246 82.716)"/>
        <rect id="Rectángulo_57" data-name="Rectángulo 57" width="3" height="4" transform="translate(7.246 -0.284)"/>
        <rect id="Rectángulo_58" data-name="Rectángulo 58" width="3" height="4" transform="translate(7.246 6.716)"/>
        <rect id="Rectángulo_59" data-name="Rectángulo 59" width="3" height="3" transform="translate(7.246 10.716)"/>
        <rect id="Rectángulo_60" data-name="Rectángulo 60" width="3" height="3" transform="translate(7.246 13.716)"/>
        <rect id="Rectángulo_61" data-name="Rectángulo 61" width="3" height="3" transform="translate(7.246 20.716)"/>
        <rect id="Rectángulo_62" data-name="Rectángulo 62" width="3" height="4" transform="translate(7.246 30.716)"/>
        <rect id="Rectángulo_63" data-name="Rectángulo 63" width="3" height="3" transform="translate(7.246 34.716)"/>
        <rect id="Rectángulo_64" data-name="Rectángulo 64" width="3" height="4" transform="translate(7.246 37.716)"/>
        <rect id="Rectángulo_65" data-name="Rectángulo 65" width="3" height="3" transform="translate(7.246 41.716)"/>
        <rect id="Rectángulo_66" data-name="Rectángulo 66" width="3" height="3" transform="translate(7.246 44.716)"/>
        <rect id="Rectángulo_67" data-name="Rectángulo 67" width="3" height="4" transform="translate(7.246 47.716)"/>
        <rect id="Rectángulo_68" data-name="Rectángulo 68" width="3" height="3" transform="translate(7.246 51.716)"/>
        <rect id="Rectángulo_69" data-name="Rectángulo 69" width="3" height="4" transform="translate(7.246 61.716)"/>
        <rect id="Rectángulo_70" data-name="Rectángulo 70" width="3" height="3" transform="translate(7.246 68.716)"/>
        <rect id="Rectángulo_71" data-name="Rectángulo 71" width="3" height="4" transform="translate(7.246 71.716)"/>
        <rect id="Rectángulo_72" data-name="Rectángulo 72" width="3" height="3" transform="translate(7.246 75.716)"/>
        <rect id="Rectángulo_73" data-name="Rectángulo 73" width="3" height="3" transform="translate(7.246 82.716)"/>
        <rect id="Rectángulo_74" data-name="Rectángulo 74" width="4" height="4" transform="translate(10.246 -0.284)"/>
        <rect id="Rectángulo_75" data-name="Rectángulo 75" width="4" height="4" transform="translate(10.246 6.716)"/>
        <rect id="Rectángulo_76" data-name="Rectángulo 76" width="4" height="3" transform="translate(10.246 10.716)"/>
        <rect id="Rectángulo_77" data-name="Rectángulo 77" width="4" height="3" transform="translate(10.246 13.716)"/>
        <rect id="Rectángulo_78" data-name="Rectángulo 78" width="4" height="3" transform="translate(10.246 20.716)"/>
        <rect id="Rectángulo_79" data-name="Rectángulo 79" width="4" height="3" transform="translate(10.246 27.716)"/>
        <rect id="Rectángulo_80" data-name="Rectángulo 80" width="4" height="3" transform="translate(10.246 34.716)"/>
        <rect id="Rectángulo_81" data-name="Rectángulo 81" width="4" height="4" transform="translate(10.246 37.716)"/>
        <rect id="Rectángulo_82" data-name="Rectángulo 82" width="4" height="3" transform="translate(10.246 44.716)"/>
        <rect id="Rectángulo_83" data-name="Rectángulo 83" width="4" height="4" transform="translate(10.246 47.716)"/>
        <rect id="Rectángulo_84" data-name="Rectángulo 84" width="4" height="4" transform="translate(10.246 61.716)"/>
        <rect id="Rectángulo_85" data-name="Rectángulo 85" width="4" height="3" transform="translate(10.246 68.716)"/>
        <rect id="Rectángulo_86" data-name="Rectángulo 86" width="4" height="4" transform="translate(10.246 71.716)"/>
        <rect id="Rectángulo_87" data-name="Rectángulo 87" width="4" height="3" transform="translate(10.246 75.716)"/>
        <rect id="Rectángulo_88" data-name="Rectángulo 88" width="4" height="3" transform="translate(10.246 82.716)"/>
        <rect id="Rectángulo_89" data-name="Rectángulo 89" width="3" height="4" transform="translate(14.246 -0.284)"/>
        <rect id="Rectángulo_90" data-name="Rectángulo 90" width="3" height="4" transform="translate(14.246 6.716)"/>
        <rect id="Rectángulo_91" data-name="Rectángulo 91" width="3" height="3" transform="translate(14.246 10.716)"/>
        <rect id="Rectángulo_92" data-name="Rectángulo 92" width="3" height="3" transform="translate(14.246 13.716)"/>
        <rect id="Rectángulo_93" data-name="Rectángulo 93" width="3" height="3" transform="translate(14.246 20.716)"/>
        <rect id="Rectángulo_94" data-name="Rectángulo 94" width="3" height="3" transform="translate(14.246 27.716)"/>
        <rect id="Rectángulo_95" data-name="Rectángulo 95" width="3" height="4" transform="translate(14.246 30.716)"/>
        <rect id="Rectángulo_96" data-name="Rectángulo 96" width="3" height="3" transform="translate(14.246 44.716)"/>
        <rect id="Rectángulo_97" data-name="Rectángulo 97" width="3" height="4" transform="translate(14.246 61.716)"/>
        <rect id="Rectángulo_98" data-name="Rectángulo 98" width="3" height="3" transform="translate(14.246 68.716)"/>
        <rect id="Rectángulo_99" data-name="Rectángulo 99" width="3" height="4" transform="translate(14.246 71.716)"/>
        <rect id="Rectángulo_100" data-name="Rectángulo 100" width="3" height="3" transform="translate(14.246 75.716)"/>
        <rect id="Rectángulo_101" data-name="Rectángulo 101" width="3" height="3" transform="translate(14.246 82.716)"/>
        <rect id="Rectángulo_102" data-name="Rectángulo 102" width="3" height="4" transform="translate(17.246 -0.284)"/>
        <rect id="Rectángulo_103" data-name="Rectángulo 103" width="3" height="3" transform="translate(17.246 20.716)"/>
        <rect id="Rectángulo_104" data-name="Rectángulo 104" width="3" height="3" transform="translate(17.246 27.716)"/>
        <rect id="Rectángulo_105" data-name="Rectángulo 105" width="3" height="4" transform="translate(17.246 30.716)"/>
        <rect id="Rectángulo_106" data-name="Rectángulo 106" width="3" height="3" transform="translate(17.246 34.716)"/>
        <rect id="Rectángulo_107" data-name="Rectángulo 107" width="3" height="3" transform="translate(17.246 41.716)"/>
        <rect id="Rectángulo_108" data-name="Rectángulo 108" width="3" height="3" transform="translate(17.246 44.716)"/>
        <rect id="Rectángulo_109" data-name="Rectángulo 109" width="3" height="4" transform="translate(17.246 47.716)"/>
        <rect id="Rectángulo_110" data-name="Rectángulo 110" width="3" height="3" transform="translate(17.246 51.716)"/>
        <rect id="Rectángulo_111" data-name="Rectángulo 111" width="3" height="4" transform="translate(17.246 61.716)"/>
        <rect id="Rectángulo_112" data-name="Rectángulo 112" width="3" height="3" transform="translate(17.246 82.716)"/>
        <rect id="Rectángulo_113" data-name="Rectángulo 113" width="4" height="4" transform="translate(20.246 -0.284)"/>
        <rect id="Rectángulo_114" data-name="Rectángulo 114" width="4" height="3" transform="translate(20.246 3.716)"/>
        <rect id="Rectángulo_115" data-name="Rectángulo 115" width="4" height="4" transform="translate(20.246 6.716)"/>
        <rect id="Rectángulo_116" data-name="Rectángulo 116" width="4" height="3" transform="translate(20.246 10.716)"/>
        <rect id="Rectángulo_117" data-name="Rectángulo 117" width="4" height="3" transform="translate(20.246 13.716)"/>
        <rect id="Rectángulo_118" data-name="Rectángulo 118" width="4" height="4" transform="translate(20.246 16.716)"/>
        <rect id="Rectángulo_119" data-name="Rectángulo 119" width="4" height="3" transform="translate(20.246 20.716)"/>
        <rect id="Rectángulo_120" data-name="Rectángulo 120" width="4" height="3" transform="translate(20.246 27.716)"/>
        <rect id="Rectángulo_121" data-name="Rectángulo 121" width="4" height="3" transform="translate(20.246 34.716)"/>
        <rect id="Rectángulo_122" data-name="Rectángulo 122" width="4" height="3" transform="translate(20.246 41.716)"/>
        <rect id="Rectángulo_123" data-name="Rectángulo 123" width="4" height="4" transform="translate(20.246 47.716)"/>
        <rect id="Rectángulo_124" data-name="Rectángulo 124" width="4" height="4" transform="translate(20.246 54.716)"/>
        <rect id="Rectángulo_125" data-name="Rectángulo 125" width="4" height="4" transform="translate(20.246 61.716)"/>
        <rect id="Rectángulo_126" data-name="Rectángulo 126" width="4" height="3" transform="translate(20.246 65.716)"/>
        <rect id="Rectángulo_127" data-name="Rectángulo 127" width="4" height="3" transform="translate(20.246 68.716)"/>
        <rect id="Rectángulo_128" data-name="Rectángulo 128" width="4" height="4" transform="translate(20.246 71.716)"/>
        <rect id="Rectángulo_129" data-name="Rectángulo 129" width="4" height="3" transform="translate(20.246 75.716)"/>
        <rect id="Rectángulo_130" data-name="Rectángulo 130" width="4" height="4" transform="translate(20.246 78.716)"/>
        <rect id="Rectángulo_131" data-name="Rectángulo 131" width="4" height="3" transform="translate(20.246 82.716)"/>
        <rect id="Rectángulo_132" data-name="Rectángulo 132" width="3" height="3" transform="translate(24.246 27.716)"/>
        <rect id="Rectángulo_133" data-name="Rectángulo 133" width="3" height="4" transform="translate(24.246 30.716)"/>
        <rect id="Rectángulo_134" data-name="Rectángulo 134" width="3" height="3" transform="translate(24.246 34.716)"/>
        <rect id="Rectángulo_135" data-name="Rectángulo 135" width="3" height="4" transform="translate(24.246 37.716)"/>
        <rect id="Rectángulo_136" data-name="Rectángulo 136" width="3" height="3" transform="translate(24.246 41.716)"/>
        <rect id="Rectángulo_137" data-name="Rectángulo 137" width="3" height="3" transform="translate(24.246 44.716)"/>
        <rect id="Rectángulo_138" data-name="Rectángulo 138" width="3" height="4" transform="translate(24.246 47.716)"/>
        <rect id="Rectángulo_139" data-name="Rectángulo 139" width="3" height="3" transform="translate(24.246 51.716)"/>
        <rect id="Rectángulo_140" data-name="Rectángulo 140" width="3" height="4" transform="translate(24.246 54.716)"/>
        <rect id="Rectángulo_141" data-name="Rectángulo 141" width="4" height="4" transform="translate(27.246 -0.284)"/>
        <rect id="Rectángulo_142" data-name="Rectángulo 142" width="4" height="3" transform="translate(27.246 3.716)"/>
        <rect id="Rectángulo_143" data-name="Rectángulo 143" width="4" height="4" transform="translate(27.246 6.716)"/>
        <rect id="Rectángulo_144" data-name="Rectángulo 144" width="4" height="3" transform="translate(27.246 13.716)"/>
        <rect id="Rectángulo_145" data-name="Rectángulo 145" width="4" height="3" transform="translate(27.246 20.716)"/>
        <rect id="Rectángulo_146" data-name="Rectángulo 146" width="4" height="3" transform="translate(27.246 27.716)"/>
        <rect id="Rectángulo_147" data-name="Rectángulo 147" width="4" height="4" transform="translate(27.246 30.716)"/>
        <rect id="Rectángulo_148" data-name="Rectángulo 148" width="4" height="4" transform="translate(27.246 37.716)"/>
        <rect id="Rectángulo_149" data-name="Rectángulo 149" width="4" height="3" transform="translate(27.246 41.716)"/>
        <rect id="Rectángulo_150" data-name="Rectángulo 150" width="4" height="3" transform="translate(27.246 44.716)"/>
        <rect id="Rectángulo_151" data-name="Rectángulo 151" width="4" height="4" transform="translate(27.246 47.716)"/>
        <rect id="Rectángulo_152" data-name="Rectángulo 152" width="4" height="3" transform="translate(27.246 58.716)"/>
        <rect id="Rectángulo_153" data-name="Rectángulo 153" width="4" height="4" transform="translate(27.246 61.716)"/>
        <rect id="Rectángulo_154" data-name="Rectángulo 154" width="4" height="3" transform="translate(27.246 65.716)"/>
        <rect id="Rectángulo_155" data-name="Rectángulo 155" width="4" height="3" transform="translate(27.246 68.716)"/>
        <rect id="Rectángulo_156" data-name="Rectángulo 156" width="4" height="4" transform="translate(27.246 71.716)"/>
        <rect id="Rectángulo_157" data-name="Rectángulo 157" width="4" height="3" transform="translate(27.246 82.716)"/>
        <rect id="Rectángulo_158" data-name="Rectángulo 158" width="3" height="4" transform="translate(31.246 -0.284)"/>
        <rect id="Rectángulo_159" data-name="Rectángulo 159" width="3" height="3" transform="translate(31.246 3.716)"/>
        <rect id="Rectángulo_160" data-name="Rectángulo 160" width="3" height="4" transform="translate(31.246 6.716)"/>
        <rect id="Rectángulo_161" data-name="Rectángulo 161" width="3" height="3" transform="translate(31.246 10.716)"/>
        <rect id="Rectángulo_162" data-name="Rectángulo 162" width="3" height="3" transform="translate(31.246 13.716)"/>
        <rect id="Rectángulo_163" data-name="Rectángulo 163" width="3" height="3" transform="translate(31.246 27.716)"/>
        <rect id="Rectángulo_164" data-name="Rectángulo 164" width="3" height="4" transform="translate(31.246 30.716)"/>
        <rect id="Rectángulo_165" data-name="Rectángulo 165" width="3" height="3" transform="translate(31.246 34.716)"/>
        <rect id="Rectángulo_166" data-name="Rectángulo 166" width="3" height="3" transform="translate(31.246 44.716)"/>
        <rect id="Rectángulo_167" data-name="Rectángulo 167" width="3" height="4" transform="translate(31.246 54.716)"/>
        <rect id="Rectángulo_168" data-name="Rectángulo 168" width="3" height="3" transform="translate(31.246 68.716)"/>
        <rect id="Rectángulo_169" data-name="Rectángulo 169" width="3" height="4" transform="translate(31.246 71.716)"/>
        <rect id="Rectángulo_170" data-name="Rectángulo 170" width="3" height="3" transform="translate(31.246 82.716)"/>
        <rect id="Rectángulo_171" data-name="Rectángulo 171" width="4" height="4" transform="translate(34.246 -0.284)"/>
        <rect id="Rectángulo_172" data-name="Rectángulo 172" width="4" height="4" transform="translate(34.246 6.716)"/>
        <rect id="Rectángulo_173" data-name="Rectángulo 173" width="4" height="3" transform="translate(34.246 13.716)"/>
        <rect id="Rectángulo_174" data-name="Rectángulo 174" width="4" height="3" transform="translate(34.246 20.716)"/>
        <rect id="Rectángulo_175" data-name="Rectángulo 175" width="4" height="3" transform="translate(34.246 27.716)"/>
        <rect id="Rectángulo_176" data-name="Rectángulo 176" width="4" height="4" transform="translate(34.246 30.716)"/>
        <rect id="Rectángulo_177" data-name="Rectángulo 177" width="4" height="4" transform="translate(34.246 37.716)"/>
        <rect id="Rectángulo_178" data-name="Rectángulo 178" width="4" height="3" transform="translate(34.246 44.716)"/>
        <rect id="Rectángulo_179" data-name="Rectángulo 179" width="4" height="3" transform="translate(34.246 68.716)"/>
        <rect id="Rectángulo_180" data-name="Rectángulo 180" width="4" height="4" transform="translate(34.246 78.716)"/>
        <rect id="Rectángulo_181" data-name="Rectángulo 181" width="4" height="3" transform="translate(34.246 82.716)"/>
        <rect id="Rectángulo_182" data-name="Rectángulo 182" width="3" height="4" transform="translate(38.246 -0.284)"/>
        <rect id="Rectángulo_183" data-name="Rectángulo 183" width="3" height="4" transform="translate(38.246 6.716)"/>
        <rect id="Rectángulo_184" data-name="Rectángulo 184" width="3" height="3" transform="translate(38.246 27.716)"/>
        <rect id="Rectángulo_185" data-name="Rectángulo 185" width="3" height="3" transform="translate(38.246 34.716)"/>
        <rect id="Rectángulo_186" data-name="Rectángulo 186" width="3" height="3" transform="translate(38.246 41.716)"/>
        <rect id="Rectángulo_187" data-name="Rectángulo 187" width="3" height="4" transform="translate(38.246 47.716)"/>
        <rect id="Rectángulo_188" data-name="Rectángulo 188" width="3" height="3" transform="translate(38.246 51.716)"/>
        <rect id="Rectángulo_189" data-name="Rectángulo 189" width="3" height="3" transform="translate(38.246 58.716)"/>
        <rect id="Rectángulo_190" data-name="Rectángulo 190" width="3" height="4" transform="translate(38.246 61.716)"/>
        <rect id="Rectángulo_191" data-name="Rectángulo 191" width="3" height="4" transform="translate(41.246 -0.284)"/>
        <rect id="Rectángulo_192" data-name="Rectángulo 192" width="3" height="3" transform="translate(41.246 10.716)"/>
        <rect id="Rectángulo_193" data-name="Rectángulo 193" width="3" height="3" transform="translate(41.246 20.716)"/>
        <rect id="Rectángulo_194" data-name="Rectángulo 194" width="3" height="4" transform="translate(41.246 23.716)"/>
        <rect id="Rectángulo_195" data-name="Rectángulo 195" width="3" height="4" transform="translate(41.246 30.716)"/>
        <rect id="Rectángulo_196" data-name="Rectángulo 196" width="3" height="3" transform="translate(41.246 41.716)"/>
        <rect id="Rectángulo_197" data-name="Rectángulo 197" width="3" height="4" transform="translate(41.246 47.716)"/>
        <rect id="Rectángulo_198" data-name="Rectángulo 198" width="3" height="3" transform="translate(41.246 58.716)"/>
        <rect id="Rectángulo_199" data-name="Rectángulo 199" width="3" height="3" transform="translate(41.246 65.716)"/>
        <rect id="Rectángulo_200" data-name="Rectángulo 200" width="3" height="3" transform="translate(41.246 68.716)"/>
        <rect id="Rectángulo_201" data-name="Rectángulo 201" width="3" height="3" transform="translate(41.246 75.716)"/>
        <rect id="Rectángulo_202" data-name="Rectángulo 202" width="4" height="4" transform="translate(44.246 23.716)"/>
        <rect id="Rectángulo_203" data-name="Rectángulo 203" width="4" height="3" transform="translate(44.246 27.716)"/>
        <rect id="Rectángulo_204" data-name="Rectángulo 204" width="4" height="4" transform="translate(44.246 30.716)"/>
        <rect id="Rectángulo_205" data-name="Rectángulo 205" width="4" height="3" transform="translate(44.246 34.716)"/>
        <rect id="Rectángulo_206" data-name="Rectángulo 206" width="4" height="4" transform="translate(44.246 37.716)"/>
        <rect id="Rectángulo_207" data-name="Rectángulo 207" width="4" height="3" transform="translate(44.246 41.716)"/>
        <rect id="Rectángulo_208" data-name="Rectángulo 208" width="4" height="3" transform="translate(44.246 44.716)"/>
        <rect id="Rectángulo_209" data-name="Rectángulo 209" width="4" height="4" transform="translate(44.246 47.716)"/>
        <rect id="Rectángulo_210" data-name="Rectángulo 210" width="4" height="3" transform="translate(44.246 58.716)"/>
        <rect id="Rectángulo_211" data-name="Rectángulo 211" width="4" height="3" transform="translate(44.246 68.716)"/>
        <rect id="Rectángulo_212" data-name="Rectángulo 212" width="4" height="3" transform="translate(44.246 82.716)"/>
        <rect id="Rectángulo_213" data-name="Rectángulo 213" width="3" height="4" transform="translate(48.246 -0.284)"/>
        <rect id="Rectángulo_214" data-name="Rectángulo 214" width="3" height="3" transform="translate(48.246 13.716)"/>
        <rect id="Rectángulo_215" data-name="Rectángulo 215" width="3" height="3" transform="translate(48.246 20.716)"/>
        <rect id="Rectángulo_216" data-name="Rectángulo 216" width="3" height="3" transform="translate(48.246 44.716)"/>
        <rect id="Rectángulo_217" data-name="Rectángulo 217" width="3" height="4" transform="translate(48.246 54.716)"/>
        <rect id="Rectángulo_218" data-name="Rectángulo 218" width="3" height="3" transform="translate(48.246 58.716)"/>
        <rect id="Rectángulo_219" data-name="Rectángulo 219" width="3" height="3" transform="translate(48.246 65.716)"/>
        <rect id="Rectángulo_220" data-name="Rectángulo 220" width="3" height="3" transform="translate(48.246 68.716)"/>
        <rect id="Rectángulo_221" data-name="Rectángulo 221" width="3" height="4" transform="translate(48.246 71.716)"/>
        <rect id="Rectángulo_222" data-name="Rectángulo 222" width="3" height="3" transform="translate(48.246 75.716)"/>
        <rect id="Rectángulo_223" data-name="Rectángulo 223" width="3" height="4" transform="translate(48.246 78.716)"/>
        <rect id="Rectángulo_224" data-name="Rectángulo 224" width="3" height="3" transform="translate(48.246 82.716)"/>
        <rect id="Rectángulo_225" data-name="Rectángulo 225" width="4" height="4" transform="translate(51.246 -0.284)"/>
        <rect id="Rectángulo_226" data-name="Rectángulo 226" width="4" height="3" transform="translate(51.246 27.716)"/>
        <rect id="Rectángulo_227" data-name="Rectángulo 227" width="4" height="4" transform="translate(51.246 30.716)"/>
        <rect id="Rectángulo_228" data-name="Rectángulo 228" width="4" height="3" transform="translate(51.246 34.716)"/>
        <rect id="Rectángulo_229" data-name="Rectángulo 229" width="4" height="4" transform="translate(51.246 37.716)"/>
        <rect id="Rectángulo_230" data-name="Rectángulo 230" width="4" height="3" transform="translate(51.246 44.716)"/>
        <rect id="Rectángulo_231" data-name="Rectángulo 231" width="4" height="4" transform="translate(51.246 47.716)"/>
        <rect id="Rectángulo_232" data-name="Rectángulo 232" width="4" height="3" transform="translate(51.246 65.716)"/>
        <rect id="Rectángulo_233" data-name="Rectángulo 233" width="4" height="3" transform="translate(51.246 68.716)"/>
        <rect id="Rectángulo_234" data-name="Rectángulo 234" width="4" height="4" transform="translate(51.246 71.716)"/>
        <rect id="Rectángulo_235" data-name="Rectángulo 235" width="3" height="4" transform="translate(55.246 -0.284)"/>
        <rect id="Rectángulo_236" data-name="Rectángulo 236" width="3" height="4" transform="translate(55.246 6.716)"/>
        <rect id="Rectángulo_237" data-name="Rectángulo 237" width="3" height="3" transform="translate(55.246 13.716)"/>
        <rect id="Rectángulo_238" data-name="Rectángulo 238" width="3" height="3" transform="translate(55.246 20.716)"/>
        <rect id="Rectángulo_239" data-name="Rectángulo 239" width="3" height="3" transform="translate(55.246 27.716)"/>
        <rect id="Rectángulo_240" data-name="Rectángulo 240" width="3" height="3" transform="translate(55.246 41.716)"/>
        <rect id="Rectángulo_241" data-name="Rectángulo 241" width="3" height="4" transform="translate(55.246 54.716)"/>
        <rect id="Rectángulo_242" data-name="Rectángulo 242" width="3" height="3" transform="translate(55.246 58.716)"/>
        <rect id="Rectángulo_243" data-name="Rectángulo 243" width="3" height="4" transform="translate(55.246 61.716)"/>
        <rect id="Rectángulo_244" data-name="Rectángulo 244" width="3" height="3" transform="translate(55.246 65.716)"/>
        <rect id="Rectángulo_245" data-name="Rectángulo 245" width="3" height="3" transform="translate(55.246 68.716)"/>
        <rect id="Rectángulo_246" data-name="Rectángulo 246" width="3" height="3" transform="translate(55.246 75.716)"/>
        <rect id="Rectángulo_247" data-name="Rectángulo 247" width="3" height="3" transform="translate(55.246 82.716)"/>
        <rect id="Rectángulo_248" data-name="Rectángulo 248" width="4" height="3" transform="translate(58.246 27.716)"/>
        <rect id="Rectángulo_249" data-name="Rectángulo 249" width="4" height="3" transform="translate(58.246 41.716)"/>
        <rect id="Rectángulo_250" data-name="Rectángulo 250" width="4" height="4" transform="translate(58.246 47.716)"/>
        <rect id="Rectángulo_251" data-name="Rectángulo 251" width="4" height="4" transform="translate(58.246 54.716)"/>
        <rect id="Rectángulo_252" data-name="Rectángulo 252" width="4" height="3" transform="translate(58.246 68.716)"/>
        <rect id="Rectángulo_253" data-name="Rectángulo 253" width="4" height="4" transform="translate(58.246 71.716)"/>
        <rect id="Rectángulo_254" data-name="Rectángulo 254" width="4" height="3" transform="translate(58.246 75.716)"/>
        <rect id="Rectángulo_255" data-name="Rectángulo 255" width="4" height="4" transform="translate(58.246 78.716)"/>
        <rect id="Rectángulo_256" data-name="Rectángulo 256" width="3" height="4" transform="translate(62.246 -0.284)"/>
        <rect id="Rectángulo_257" data-name="Rectángulo 257" width="3" height="3" transform="translate(62.246 3.716)"/>
        <rect id="Rectángulo_258" data-name="Rectángulo 258" width="3" height="4" transform="translate(62.246 6.716)"/>
        <rect id="Rectángulo_259" data-name="Rectángulo 259" width="3" height="3" transform="translate(62.246 10.716)"/>
        <rect id="Rectángulo_260" data-name="Rectángulo 260" width="3" height="3" transform="translate(62.246 13.716)"/>
        <rect id="Rectángulo_261" data-name="Rectángulo 261" width="3" height="4" transform="translate(62.246 16.716)"/>
        <rect id="Rectángulo_262" data-name="Rectángulo 262" width="3" height="3" transform="translate(62.246 20.716)"/>
        <rect id="Rectángulo_263" data-name="Rectángulo 263" width="3" height="3" transform="translate(62.246 34.716)"/>
        <rect id="Rectángulo_264" data-name="Rectángulo 264" width="3" height="4" transform="translate(62.246 37.716)"/>
        <rect id="Rectángulo_265" data-name="Rectángulo 265" width="3" height="3" transform="translate(62.246 41.716)"/>
        <rect id="Rectángulo_266" data-name="Rectángulo 266" width="3" height="4" transform="translate(62.246 54.716)"/>
        <rect id="Rectángulo_267" data-name="Rectángulo 267" width="3" height="4" transform="translate(62.246 61.716)"/>
        <rect id="Rectángulo_268" data-name="Rectángulo 268" width="3" height="3" transform="translate(62.246 68.716)"/>
        <rect id="Rectángulo_269" data-name="Rectángulo 269" width="3" height="4" transform="translate(62.246 71.716)"/>
        <rect id="Rectángulo_270" data-name="Rectángulo 270" width="3" height="4" transform="translate(62.246 78.716)"/>
        <rect id="Rectángulo_271" data-name="Rectángulo 271" width="4" height="4" transform="translate(65.246 -0.284)"/>
        <rect id="Rectángulo_272" data-name="Rectángulo 272" width="4" height="3" transform="translate(65.246 20.716)"/>
        <rect id="Rectángulo_273" data-name="Rectángulo 273" width="4" height="4" transform="translate(65.246 30.716)"/>
        <rect id="Rectángulo_274" data-name="Rectángulo 274" width="4" height="4" transform="translate(65.246 37.716)"/>
        <rect id="Rectángulo_275" data-name="Rectángulo 275" width="4" height="3" transform="translate(65.246 41.716)"/>
        <rect id="Rectángulo_276" data-name="Rectángulo 276" width="4" height="3" transform="translate(65.246 51.716)"/>
        <rect id="Rectángulo_277" data-name="Rectángulo 277" width="4" height="4" transform="translate(65.246 54.716)"/>
        <rect id="Rectángulo_278" data-name="Rectángulo 278" width="4" height="3" transform="translate(65.246 68.716)"/>
        <rect id="Rectángulo_279" data-name="Rectángulo 279" width="4" height="3" transform="translate(65.246 75.716)"/>
        <rect id="Rectángulo_280" data-name="Rectángulo 280" width="4" height="4" transform="translate(65.246 78.716)"/>
        <rect id="Rectángulo_281" data-name="Rectángulo 281" width="3" height="4" transform="translate(69.246 -0.284)"/>
        <rect id="Rectángulo_282" data-name="Rectángulo 282" width="3" height="4" transform="translate(69.246 6.716)"/>
        <rect id="Rectángulo_283" data-name="Rectángulo 283" width="3" height="3" transform="translate(69.246 10.716)"/>
        <rect id="Rectángulo_284" data-name="Rectángulo 284" width="3" height="3" transform="translate(69.246 13.716)"/>
        <rect id="Rectángulo_285" data-name="Rectángulo 285" width="3" height="3" transform="translate(69.246 20.716)"/>
        <rect id="Rectángulo_286" data-name="Rectángulo 286" width="3" height="3" transform="translate(69.246 27.716)"/>
        <rect id="Rectángulo_287" data-name="Rectángulo 287" width="3" height="4" transform="translate(69.246 30.716)"/>
        <rect id="Rectángulo_288" data-name="Rectángulo 288" width="3" height="3" transform="translate(69.246 34.716)"/>
        <rect id="Rectángulo_289" data-name="Rectángulo 289" width="3" height="4" transform="translate(69.246 37.716)"/>
        <rect id="Rectángulo_290" data-name="Rectángulo 290" width="3" height="3" transform="translate(69.246 44.716)"/>
        <rect id="Rectángulo_291" data-name="Rectángulo 291" width="3" height="4" transform="translate(69.246 47.716)"/>
        <rect id="Rectángulo_292" data-name="Rectángulo 292" width="3" height="3" transform="translate(69.246 51.716)"/>
        <rect id="Rectángulo_293" data-name="Rectángulo 293" width="3" height="4" transform="translate(69.246 54.716)"/>
        <rect id="Rectángulo_294" data-name="Rectángulo 294" width="3" height="3" transform="translate(69.246 58.716)"/>
        <rect id="Rectángulo_295" data-name="Rectángulo 295" width="3" height="4" transform="translate(69.246 61.716)"/>
        <rect id="Rectángulo_296" data-name="Rectángulo 296" width="3" height="3" transform="translate(69.246 65.716)"/>
        <rect id="Rectángulo_297" data-name="Rectángulo 297" width="3" height="3" transform="translate(69.246 68.716)"/>
        <rect id="Rectángulo_298" data-name="Rectángulo 298" width="3" height="3" transform="translate(69.246 75.716)"/>
        <rect id="Rectángulo_299" data-name="Rectángulo 299" width="3" height="4" transform="translate(69.246 78.716)"/>
        <rect id="Rectángulo_300" data-name="Rectángulo 300" width="3" height="4" transform="translate(72.246 -0.284)"/>
        <rect id="Rectángulo_301" data-name="Rectángulo 301" width="3" height="4" transform="translate(72.246 6.716)"/>
        <rect id="Rectángulo_302" data-name="Rectángulo 302" width="3" height="3" transform="translate(72.246 10.716)"/>
        <rect id="Rectángulo_303" data-name="Rectángulo 303" width="3" height="3" transform="translate(72.246 13.716)"/>
        <rect id="Rectángulo_304" data-name="Rectángulo 304" width="3" height="3" transform="translate(72.246 20.716)"/>
        <rect id="Rectángulo_305" data-name="Rectángulo 305" width="3" height="4" transform="translate(72.246 30.716)"/>
        <rect id="Rectángulo_306" data-name="Rectángulo 306" width="3" height="3" transform="translate(72.246 41.716)"/>
        <rect id="Rectángulo_307" data-name="Rectángulo 307" width="3" height="3" transform="translate(72.246 44.716)"/>
        <rect id="Rectángulo_308" data-name="Rectángulo 308" width="3" height="4" transform="translate(72.246 47.716)"/>
        <rect id="Rectángulo_309" data-name="Rectángulo 309" width="3" height="3" transform="translate(72.246 51.716)"/>
        <rect id="Rectángulo_310" data-name="Rectángulo 310" width="3" height="4" transform="translate(72.246 54.716)"/>
        <rect id="Rectángulo_311" data-name="Rectángulo 311" width="3" height="3" transform="translate(72.246 58.716)"/>
        <rect id="Rectángulo_312" data-name="Rectángulo 312" width="3" height="3" transform="translate(72.246 65.716)"/>
        <rect id="Rectángulo_313" data-name="Rectángulo 313" width="3" height="3" transform="translate(72.246 68.716)"/>
        <rect id="Rectángulo_314" data-name="Rectángulo 314" width="3" height="4" transform="translate(72.246 71.716)"/>
        <rect id="Rectángulo_315" data-name="Rectángulo 315" width="3" height="4" transform="translate(72.246 78.716)"/>
        <rect id="Rectángulo_316" data-name="Rectángulo 316" width="3" height="3" transform="translate(72.246 82.716)"/>
        <rect id="Rectángulo_317" data-name="Rectángulo 317" width="4" height="4" transform="translate(75.246 -0.284)"/>
        <rect id="Rectángulo_318" data-name="Rectángulo 318" width="4" height="4" transform="translate(75.246 6.716)"/>
        <rect id="Rectángulo_319" data-name="Rectángulo 319" width="4" height="3" transform="translate(75.246 10.716)"/>
        <rect id="Rectángulo_320" data-name="Rectángulo 320" width="4" height="3" transform="translate(75.246 13.716)"/>
        <rect id="Rectángulo_321" data-name="Rectángulo 321" width="4" height="3" transform="translate(75.246 20.716)"/>
        <rect id="Rectángulo_322" data-name="Rectángulo 322" width="4" height="3" transform="translate(75.246 27.716)"/>
        <rect id="Rectángulo_323" data-name="Rectángulo 323" width="4" height="4" transform="translate(75.246 30.716)"/>
        <rect id="Rectángulo_324" data-name="Rectángulo 324" width="4" height="3" transform="translate(75.246 34.716)"/>
        <rect id="Rectángulo_325" data-name="Rectángulo 325" width="4" height="4" transform="translate(75.246 37.716)"/>
        <rect id="Rectángulo_326" data-name="Rectángulo 326" width="4" height="3" transform="translate(75.246 44.716)"/>
        <rect id="Rectángulo_327" data-name="Rectángulo 327" width="4" height="3" transform="translate(75.246 51.716)"/>
        <rect id="Rectángulo_328" data-name="Rectángulo 328" width="4" height="4" transform="translate(75.246 54.716)"/>
        <rect id="Rectángulo_329" data-name="Rectángulo 329" width="4" height="3" transform="translate(75.246 58.716)"/>
        <rect id="Rectángulo_330" data-name="Rectángulo 330" width="4" height="3" transform="translate(75.246 75.716)"/>
        <rect id="Rectángulo_331" data-name="Rectángulo 331" width="4" height="4" transform="translate(75.246 78.716)"/>
        <rect id="Rectángulo_332" data-name="Rectángulo 332" width="3" height="4" transform="translate(79.246 -0.284)"/>
        <rect id="Rectángulo_333" data-name="Rectángulo 333" width="3" height="3" transform="translate(79.246 20.716)"/>
        <rect id="Rectángulo_334" data-name="Rectángulo 334" width="3" height="3" transform="translate(79.246 27.716)"/>
        <rect id="Rectángulo_335" data-name="Rectángulo 335" width="3" height="4" transform="translate(79.246 30.716)"/>
        <rect id="Rectángulo_336" data-name="Rectángulo 336" width="3" height="3" transform="translate(79.246 44.716)"/>
        <rect id="Rectángulo_337" data-name="Rectángulo 337" width="3" height="4" transform="translate(79.246 47.716)"/>
        <rect id="Rectángulo_338" data-name="Rectángulo 338" width="3" height="3" transform="translate(79.246 51.716)"/>
        <rect id="Rectángulo_339" data-name="Rectángulo 339" width="3" height="3" transform="translate(79.246 65.716)"/>
        <rect id="Rectángulo_340" data-name="Rectángulo 340" width="3" height="4" transform="translate(79.246 71.716)"/>
        <rect id="Rectángulo_341" data-name="Rectángulo 341" width="3" height="3" transform="translate(79.246 75.716)"/>
        <rect id="Rectángulo_342" data-name="Rectángulo 342" width="3" height="4" transform="translate(79.246 78.716)"/>
        <rect id="Rectángulo_343" data-name="Rectángulo 343" width="4" height="4" transform="translate(82.246 -0.284)"/>
        <rect id="Rectángulo_344" data-name="Rectángulo 344" width="4" height="3" transform="translate(82.246 3.716)"/>
        <rect id="Rectángulo_345" data-name="Rectángulo 345" width="4" height="4" transform="translate(82.246 6.716)"/>
        <rect id="Rectángulo_346" data-name="Rectángulo 346" width="4" height="3" transform="translate(82.246 10.716)"/>
        <rect id="Rectángulo_347" data-name="Rectángulo 347" width="4" height="3" transform="translate(82.246 13.716)"/>
        <rect id="Rectángulo_348" data-name="Rectángulo 348" width="4" height="4" transform="translate(82.246 16.716)"/>
        <rect id="Rectángulo_349" data-name="Rectángulo 349" width="4" height="3" transform="translate(82.246 20.716)"/>
        <rect id="Rectángulo_350" data-name="Rectángulo 350" width="4" height="3" transform="translate(82.246 27.716)"/>
        <rect id="Rectángulo_351" data-name="Rectángulo 351" width="4" height="3" transform="translate(82.246 34.716)"/>
        <rect id="Rectángulo_352" data-name="Rectángulo 352" width="4" height="3" transform="translate(82.246 41.716)"/>
        <rect id="Rectángulo_353" data-name="Rectángulo 353" width="4" height="4" transform="translate(82.246 47.716)"/>
        <rect id="Rectángulo_354" data-name="Rectángulo 354" width="4" height="4" transform="translate(82.246 54.716)"/>
        <rect id="Rectángulo_355" data-name="Rectángulo 355" width="4" height="4" transform="translate(82.246 61.716)"/>
        <rect id="Rectángulo_356" data-name="Rectángulo 356" width="4" height="3" transform="translate(82.246 65.716)"/>
        <rect id="Rectángulo_357" data-name="Rectángulo 357" width="4" height="3" transform="translate(82.246 68.716)"/>
        <rect id="Rectángulo_358" data-name="Rectángulo 358" width="4" height="4" transform="translate(82.246 71.716)"/>
        <rect id="Rectángulo_359" data-name="Rectángulo 359" width="4" height="3" transform="translate(82.246 75.716)"/>
        <rect id="Rectángulo_360" data-name="Rectángulo 360" width="4" height="4" transform="translate(82.246 78.716)"/>
        <rect id="Rectángulo_361" data-name="Rectángulo 361" width="4" height="3" transform="translate(82.246 82.716)"/>
      </g>
    </g>
    <g id="div" transform="translate(194 651)">
      <circle id="Oval_2" data-name="Oval 2" cx="3" cy="3" r="3" fill="#f1f1f1"/>
      <circle id="Oval_2_Copy_3" data-name="Oval 2 Copy 3" cx="3" cy="3" r="3" transform="translate(31)" fill="#f1f1f1"/>
      <circle id="Oval_2_Copy_2" data-name="Oval 2 Copy 2" cx="3" cy="3" r="3" transform="translate(16)" fill="#f1f1f1"/>
      <circle id="Oval_2_Copy_4" data-name="Oval 2 Copy 4" cx="3" cy="3" r="3" transform="translate(47)" fill="#f1f1f1"/>
      <circle id="Oval_2_Copy_5" data-name="Oval 2 Copy 5" cx="3" cy="3" r="3" transform="translate(63)" fill="#f1f1f1"/>
      <circle id="Oval_2_Copy_6" data-name="Oval 2 Copy 6" cx="3" cy="3" r="3" transform="translate(96)" fill="#f1f1f1"/>
      <circle id="Oval_2_Copy_7" data-name="Oval 2 Copy 7" cx="3" cy="3" r="3" transform="translate(80)" fill="#f1f1f1"/>
      <circle id="Oval_2_Copy_8" data-name="Oval 2 Copy 8" cx="3" cy="3" r="3" transform="translate(112)" fill="#f1f1f1"/>
      <circle id="Oval_2-2" data-name="Oval 2" cx="3" cy="3" r="3" transform="translate(127)" fill="#f1f1f1"/>
      <ellipse id="Oval_2_Copy_3-2" data-name="Oval 2 Copy 3" cx="2.5" cy="3" rx="2.5" ry="3" transform="translate(160)" fill="#f1f1f1"/>
      <circle id="Oval_2_Copy_2-2" data-name="Oval 2 Copy 2" cx="3" cy="3" r="3" transform="translate(143)" fill="#f1f1f1"/>
      <circle id="Oval_2_Copy_4-2" data-name="Oval 2 Copy 4" cx="3" cy="3" r="3" transform="translate(175)" fill="#f1f1f1"/>
      <circle id="Oval_2_Copy_5-2" data-name="Oval 2 Copy 5" cx="3" cy="3" r="3" transform="translate(191)" fill="#f1f1f1"/>
    </g>
    <path id="PVR_4930_AYUSH_6721" data-name="PVR 4930 AYUSH 6721" d="M4.512-8.4a3.794,3.794,0,0,1,2.52.768A2.613,2.613,0,0,1,7.944-5.52a2.6,2.6,0,0,1-.912,2.106,3.814,3.814,0,0,1-2.52.762H2.256V0H1.368V-8.4ZM4.488-3.432A2.924,2.924,0,0,0,6.4-3.978a1.889,1.889,0,0,0,.66-1.542A1.917,1.917,0,0,0,6.4-7.086a2.924,2.924,0,0,0-1.908-.546H2.256v4.2ZM20.376-8.4,16.656,0H15.78L12.06-8.4h.96l3.216,7.3,3.24-7.3ZM30.924,0,29-2.7a6.085,6.085,0,0,1-.672.036H26.076V0h-.888V-8.4h3.144a3.794,3.794,0,0,1,2.52.768,2.613,2.613,0,0,1,.912,2.112,2.73,2.73,0,0,1-.5,1.662,2.759,2.759,0,0,1-1.422.978L31.9,0ZM28.308-3.42a2.9,2.9,0,0,0,1.908-.552,1.907,1.907,0,0,0,.66-1.548,1.917,1.917,0,0,0-.66-1.566,2.924,2.924,0,0,0-1.908-.546H26.076V-3.42ZM50.6-2.208h-1.68V0H48.06V-2.208H43.32v-.624L47.772-8.4h.96l-4.3,5.424h3.648V-4.92h.84v1.944H50.6Zm6.912-6.264a3.1,3.1,0,0,1,2.556,1.1,4.815,4.815,0,0,1,.888,3.1A5.33,5.33,0,0,1,60.48-1.9a3.362,3.362,0,0,1-1.344,1.47,3.966,3.966,0,0,1-2.016.5,3.786,3.786,0,0,1-1.992-.456l.348-.7a2.932,2.932,0,0,0,1.632.4,2.786,2.786,0,0,0,2.184-.882,3.714,3.714,0,0,0,.792-2.562q0-.312-.036-.684a2.265,2.265,0,0,1-1,1.062,3.2,3.2,0,0,1-1.572.378,3.322,3.322,0,0,1-1.47-.312,2.392,2.392,0,0,1-1-.882,2.43,2.43,0,0,1-.36-1.326,2.482,2.482,0,0,1,.372-1.356,2.456,2.456,0,0,1,1.026-.906A3.318,3.318,0,0,1,57.516-8.472Zm.1,4.368a2.5,2.5,0,0,0,1.122-.24A1.891,1.891,0,0,0,59.5-5a1.668,1.668,0,0,0,.276-.936,1.63,1.63,0,0,0-.258-.888,1.853,1.853,0,0,0-.762-.66,2.656,2.656,0,0,0-1.2-.252,2.171,2.171,0,0,0-1.482.5,1.673,1.673,0,0,0-.57,1.326,1.655,1.655,0,0,0,.57,1.32A2.28,2.28,0,0,0,57.612-4.1Zm10.932-.7a3.109,3.109,0,0,1,2.01.714,2.181,2.181,0,0,1,.69,1.674A2.364,2.364,0,0,1,70.9-1.134a2.372,2.372,0,0,1-1.032.882A3.876,3.876,0,0,1,68.2.072a5.008,5.008,0,0,1-1.722-.294,3.5,3.5,0,0,1-1.3-.786l.42-.684a3.086,3.086,0,0,0,1.116.7A4.078,4.078,0,0,0,68.2-.72a2.5,2.5,0,0,0,1.6-.45,1.5,1.5,0,0,0,.564-1.242,1.472,1.472,0,0,0-.564-1.224,2.728,2.728,0,0,0-1.7-.444h-.6v-.636l2.328-2.916h-4.3V-8.4h5.4v.612ZM79.4.072A3.02,3.02,0,0,1,77.67-.444a3.382,3.382,0,0,1-1.188-1.482A5.6,5.6,0,0,1,76.056-4.2a5.6,5.6,0,0,1,.426-2.274A3.382,3.382,0,0,1,77.67-7.956,3.02,3.02,0,0,1,79.4-8.472a3.02,3.02,0,0,1,1.734.516,3.421,3.421,0,0,1,1.194,1.482A5.531,5.531,0,0,1,82.764-4.2a5.531,5.531,0,0,1-.432,2.274A3.421,3.421,0,0,1,81.138-.444,3.02,3.02,0,0,1,79.4.072Zm0-.792a2.128,2.128,0,0,0,1.29-.408,2.637,2.637,0,0,0,.87-1.188A5.075,5.075,0,0,0,81.876-4.2a5.075,5.075,0,0,0-.312-1.884,2.637,2.637,0,0,0-.87-1.188A2.128,2.128,0,0,0,79.4-7.68a2.128,2.128,0,0,0-1.29.408,2.637,2.637,0,0,0-.87,1.188A5.075,5.075,0,0,0,76.932-4.2a5.075,5.075,0,0,0,.312,1.884,2.637,2.637,0,0,0,.87,1.188A2.128,2.128,0,0,0,79.4-.72Zm20.952-1.524h-4.68L94.668,0h-.924l3.84-8.4h.876L102.3,0h-.936Zm-.324-.72L98.016-7.476,96-2.964Zm9.648.06V0H108.8V-2.9l-3.36-5.5h.948l2.88,4.716,2.88-4.716h.888Zm11.6,2.976a3.388,3.388,0,0,1-2.544-.936,3.749,3.749,0,0,1-.912-2.724V-8.4h.888v4.776a3.141,3.141,0,0,0,.66,2.184,2.459,2.459,0,0,0,1.908.72,2.474,2.474,0,0,0,1.92-.72,3.141,3.141,0,0,0,.66-2.184V-8.4h.864v4.812a3.764,3.764,0,0,1-.906,2.724A3.368,3.368,0,0,1,121.284.072Zm12.036,0a5.4,5.4,0,0,1-1.794-.3A3.3,3.3,0,0,1,130.2-1.02l.348-.684a3.332,3.332,0,0,0,1.212.738,4.429,4.429,0,0,0,1.56.282,2.852,2.852,0,0,0,1.692-.414,1.275,1.275,0,0,0,.564-1.074,1.075,1.075,0,0,0-.306-.8,2.066,2.066,0,0,0-.75-.462,12.13,12.13,0,0,0-1.236-.354,12.985,12.985,0,0,1-1.512-.462,2.483,2.483,0,0,1-.966-.678,1.8,1.8,0,0,1-.4-1.236,2.1,2.1,0,0,1,.336-1.158,2.3,2.3,0,0,1,1.032-.834,4.224,4.224,0,0,1,1.728-.312,5.087,5.087,0,0,1,1.41.2,4.052,4.052,0,0,1,1.194.546l-.3.708a4.129,4.129,0,0,0-1.128-.522,4.21,4.21,0,0,0-1.176-.174,2.715,2.715,0,0,0-1.662.426,1.322,1.322,0,0,0-.558,1.1,1.1,1.1,0,0,0,.306.81,2,2,0,0,0,.768.468q.462.162,1.242.354a12.5,12.5,0,0,1,1.494.45,2.452,2.452,0,0,1,.966.672,1.778,1.778,0,0,1,.4,1.218,2.068,2.068,0,0,1-.342,1.158,2.3,2.3,0,0,1-1.05.828A4.386,4.386,0,0,1,133.32.072ZM149-8.4V0h-.876V-3.876h-5.256V0h-.888V-8.4h.888v3.744h5.256V-8.4ZM164.82-5.028a3.322,3.322,0,0,1,1.47.312,2.392,2.392,0,0,1,1,.882,2.43,2.43,0,0,1,.36,1.326,2.482,2.482,0,0,1-.372,1.356,2.456,2.456,0,0,1-1.026.906,3.318,3.318,0,0,1-1.47.318,3.1,3.1,0,0,1-2.556-1.1,4.815,4.815,0,0,1-.888-3.1,5.329,5.329,0,0,1,.48-2.376,3.362,3.362,0,0,1,1.344-1.47,3.966,3.966,0,0,1,2.016-.5,3.786,3.786,0,0,1,1.992.456l-.348.7a2.932,2.932,0,0,0-1.632-.4,2.786,2.786,0,0,0-2.184.882,3.714,3.714,0,0,0-.792,2.562q0,.3.036.684a2.265,2.265,0,0,1,1-1.062A3.2,3.2,0,0,1,164.82-5.028ZM164.748-.66a2.171,2.171,0,0,0,1.482-.5,1.673,1.673,0,0,0,.57-1.326,1.655,1.655,0,0,0-.57-1.32,2.28,2.28,0,0,0-1.542-.492,2.5,2.5,0,0,0-1.122.24,1.891,1.891,0,0,0-.762.66,1.668,1.668,0,0,0-.276.936,1.63,1.63,0,0,0,.258.888,1.853,1.853,0,0,0,.762.66A2.656,2.656,0,0,0,164.748-.66ZM178.08-8.4v.612L174.564,0h-.936l3.456-7.632h-4.32V-6.06h-.852V-8.4ZM188.556-.768V0h-5.892V-.612l3.492-3.42a4.519,4.519,0,0,0,.894-1.122,2.137,2.137,0,0,0,.234-.954,1.408,1.408,0,0,0-.51-1.158,2.261,2.261,0,0,0-1.458-.414,2.879,2.879,0,0,0-2.292.936l-.612-.528a3.223,3.223,0,0,1,1.254-.888,4.509,4.509,0,0,1,1.722-.312,3.145,3.145,0,0,1,2.034.606,2.021,2.021,0,0,1,.75,1.662,2.851,2.851,0,0,1-.288,1.248,5.233,5.233,0,0,1-1.092,1.38L183.936-.768ZM195.564-8.4V0H194.7V-7.632h-1.98V-8.4Z" transform="translate(194 788)"/>
    <g id="barcode" transform="translate(160 734)">
      <rect id="Rectangle_4" data-name="Rectangle 4" width="3" height="39"/>
      <rect id="Rectangle_4_Copy_18" data-name="Rectangle 4 Copy 18" width="2" height="39" transform="translate(73)"/>
      <rect id="Rectangle_4_Copy_4" data-name="Rectangle 4 Copy 4" width="3" height="39" transform="translate(14)"/>
      <rect id="Rectangle_4_Copy_19" data-name="Rectangle 4 Copy 19" width="3" height="39" transform="translate(87)"/>
      <rect id="Rectangle_4_Copy_7" data-name="Rectangle 4 Copy 7" width="3" height="39" transform="translate(27)"/>
      <rect id="Rectangle_4_Copy_20" data-name="Rectangle 4 Copy 20" width="2" height="39" transform="translate(100)"/>
      <rect id="Rectangle_4_Copy_8" data-name="Rectangle 4 Copy 8" width="2" height="39" transform="translate(35)"/>
      <rect id="Rectangle_4_Copy_21" data-name="Rectangle 4 Copy 21" width="3" height="39" transform="translate(107)"/>
      <rect id="Rectangle_4_Copy_10" data-name="Rectangle 4 Copy 10" width="3" height="39" transform="translate(42)"/>
      <rect id="Rectangle_4_Copy_22" data-name="Rectangle 4 Copy 22" width="2" height="39" transform="translate(115)"/>
      <rect id="Rectangle_4_Copy_17" data-name="Rectangle 4 Copy 17" width="2" height="39" transform="translate(67)"/>
      <rect id="Rectangle_4_Copy_23" data-name="Rectangle 4 Copy 23" width="3" height="39" transform="translate(139)"/>
      <rect id="Rectangle_4_Copy" data-name="Rectangle 4 Copy" width="2" height="39" transform="translate(4)"/>
      <rect id="Rectangle_4_Copy_24" data-name="Rectangle 4 Copy 24" width="2" height="39" transform="translate(77)"/>
      <rect id="Rectangle_4_Copy_2" data-name="Rectangle 4 Copy 2" width="1" height="39" transform="translate(8)"/>
      <rect id="Rectangle_4_Copy_25" data-name="Rectangle 4 Copy 25" width="2" height="39" transform="translate(80)"/>
      <rect id="Rectangle_4_Copy_26" data-name="Rectangle 4 Copy 26" width="1" height="39" transform="translate(84)"/>
      <rect id="Rectangle_4_Copy_5" data-name="Rectangle 4 Copy 5" width="1" height="39" transform="translate(19)"/>
      <rect id="Rectangle_4_Copy_27" data-name="Rectangle 4 Copy 27" width="2" height="39" transform="translate(91)"/>
      <rect id="Rectangle_4_Copy_6" data-name="Rectangle 4 Copy 6" width="1" height="39" transform="translate(24)"/>
      <rect id="Rectangle_4_Copy_28" data-name="Rectangle 4 Copy 28" width="2" height="39" transform="translate(96)"/>
      <rect id="Rectangle_4_Copy_9" data-name="Rectangle 4 Copy 9" width="2" height="39" transform="translate(31)"/>
      <rect id="Rectangle_4_Copy_29" data-name="Rectangle 4 Copy 29" width="2" height="39" transform="translate(104)"/>
      <rect id="Rectangle_4_Copy_11" data-name="Rectangle 4 Copy 11" width="2" height="39" transform="translate(39)"/>
      <rect id="Rectangle_4_Copy_30" data-name="Rectangle 4 Copy 30" width="1" height="39" transform="translate(112)"/>
      <rect id="Rectangle_4_Copy_12" data-name="Rectangle 4 Copy 12" width="2" height="39" transform="translate(46)"/>
      <rect id="Rectangle_4_Copy_31" data-name="Rectangle 4 Copy 31" width="2" height="39" transform="translate(119)"/>
      <rect id="Rectangle_4_Copy_16" data-name="Rectangle 4 Copy 16" width="2" height="39" transform="translate(63)"/>
      <rect id="Rectangle_4_Copy_32" data-name="Rectangle 4 Copy 32" width="2" height="39" transform="translate(136)"/>
      <rect id="Rectangle_4_Copy_13" data-name="Rectangle 4 Copy 13" width="1" height="39" transform="translate(52)"/>
      <rect id="Rectangle_4_Copy_33" data-name="Rectangle 4 Copy 33" width="2" height="39" transform="translate(124)"/>
      <rect id="Rectangle_4_Copy_14" data-name="Rectangle 4 Copy 14" width="2" height="39" transform="translate(55)"/>
      <rect id="Rectangle_4_Copy_34" data-name="Rectangle 4 Copy 34" width="1" height="39" transform="translate(128)"/>
      <rect id="Rectangle_4_Copy_15" data-name="Rectangle 4 Copy 15" width="2" height="39" transform="translate(60)"/>
      <rect id="Rectangle_4_Copy_35" data-name="Rectangle 4 Copy 35" width="1" height="39" transform="translate(133)"/>
      <rect id="Rectangle_4-2" data-name="Rectangle 4" width="2" height="39" transform="translate(144)"/>
      <rect id="Rectangle_4_Copy_18-2" data-name="Rectangle 4 Copy 18" width="3" height="39" transform="translate(216)"/>
      <rect id="Rectangle_4_Copy_4-2" data-name="Rectangle 4 Copy 4" width="3" height="39" transform="translate(158)"/>
      <rect id="Rectangle_4_Copy_19-2" data-name="Rectangle 4 Copy 19" width="2" height="39" transform="translate(231)"/>
      <rect id="Rectangle_4_Copy_7-2" data-name="Rectangle 4 Copy 7" width="2" height="39" transform="translate(171)"/>
      <rect id="Rectangle_4_Copy_20-2" data-name="Rectangle 4 Copy 20" width="3" height="39" transform="translate(243)"/>
      <rect id="Rectangle_4_Copy_8-2" data-name="Rectangle 4 Copy 8" width="3" height="39" transform="translate(178)"/>
      <rect id="Rectangle_4_Copy_21-2" data-name="Rectangle 4 Copy 21" width="2" height="39" transform="translate(251)"/>
      <rect id="Rectangle_4_Copy_10-2" data-name="Rectangle 4 Copy 10" width="2" height="39" transform="translate(186)"/>
      <rect id="Rectangle_4_Copy_22-2" data-name="Rectangle 4 Copy 22" width="2" height="39" transform="translate(259)"/>
      <rect id="Rectangle_4_Copy_17-2" data-name="Rectangle 4 Copy 17" width="3" height="39" transform="translate(210)"/>
      <rect id="Rectangle_4_Copy-2" data-name="Rectangle 4 Copy" width="2" height="39" transform="translate(148)"/>
      <rect id="Rectangle_4_Copy_24-2" data-name="Rectangle 4 Copy 24" width="2" height="39" transform="translate(220)"/>
      <rect id="Rectangle_4_Copy_2-2" data-name="Rectangle 4 Copy 2" width="2" height="39" transform="translate(151)"/>
      <rect id="Rectangle_4_Copy_25-2" data-name="Rectangle 4 Copy 25" width="1" height="39" transform="translate(224)"/>
      <rect id="Rectangle_4_Copy_3" data-name="Rectangle 4 Copy 3" width="1" height="39" transform="translate(155)"/>
      <rect id="Rectangle_4_Copy_26-2" data-name="Rectangle 4 Copy 26" width="2" height="39" transform="translate(227)"/>
      <rect id="Rectangle_4_Copy_5-2" data-name="Rectangle 4 Copy 5" width="2" height="39" transform="translate(162)"/>
      <rect id="Rectangle_4_Copy_27-2" data-name="Rectangle 4 Copy 27" width="2" height="39" transform="translate(235)"/>
      <rect id="Rectangle_4_Copy_6-2" data-name="Rectangle 4 Copy 6" width="2" height="39" transform="translate(167)"/>
      <rect id="Rectangle_4_Copy_28-2" data-name="Rectangle 4 Copy 28" width="2" height="39" transform="translate(240)"/>
      <rect id="Rectangle_4_Copy_9-2" data-name="Rectangle 4 Copy 9" width="2" height="39" transform="translate(175)"/>
      <rect id="Rectangle_4_Copy_29-2" data-name="Rectangle 4 Copy 29" width="1" height="39" transform="translate(248)"/>
      <rect id="Rectangle_4_Copy_11-2" data-name="Rectangle 4 Copy 11" width="2" height="39" transform="translate(182)"/>
      <rect id="Rectangle_4_Copy_30-2" data-name="Rectangle 4 Copy 30" width="2" height="39" transform="translate(255)"/>
      <rect id="Rectangle_4_Copy_12-2" data-name="Rectangle 4 Copy 12" width="2" height="39" transform="translate(190)"/>
      <rect id="Rectangle_4_Copy_31-2" data-name="Rectangle 4 Copy 31" width="1" height="39" transform="translate(263)"/>
      <rect id="Rectangle_4_Copy_16-2" data-name="Rectangle 4 Copy 16" width="2" height="39" transform="translate(207)"/>
      <rect id="Rectangle_4_Copy_13-2" data-name="Rectangle 4 Copy 13" width="2" height="39" transform="translate(195)"/>
      <rect id="Rectangle_4_Copy_14-2" data-name="Rectangle 4 Copy 14" width="1" height="39" transform="translate(199)"/>
      <rect id="Rectangle_4_Copy_15-2" data-name="Rectangle 4 Copy 15" width="1" height="39" transform="translate(204)"/>
    </g>
  </g>
</svg>
