<svg xmlns="http://www.w3.org/2000/svg" xmlns:xlink="http://www.w3.org/1999/xlink" width="349.243" height="449.104" viewBox="0 0 349.243 449.104">
  <defs>
    <filter id="Sustracci贸n_8" x="0" y="0" width="349.243" height="449.104" filterUnits="userSpaceOnUse">
      <feOffset dy="3" input="SourceAlpha"/>
      <feGaussianBlur stdDeviation="7.5" result="blur"/>
      <feFlood flood-color="#a5b0b5" flood-opacity="0.29"/>
      <feComposite operator="in" in2="blur"/>
      <feComposite in="SourceGraphic"/>
    </filter>
    <filter id="Oval_3_Copy" x="278.347" y="38" width="29" height="29" filterUnits="userSpaceOnUse">
      <feOffset input="SourceAlpha"/>
      <feGaussianBlur stdDeviation="1" result="blur-2"/>
      <feFlood flood-opacity="0.153"/>
      <feComposite operator="in" in2="blur-2"/>
      <feComposite in="SourceGraphic"/>
    </filter>
  </defs>
  <g id="Grupo_564" data-name="Grupo 564" transform="translate(-12563.5 -13755.5)">
    <g transform="matrix(1, 0, 0, 1, 12563.5, 13755.5)" filter="url(#Sustracci贸n_8)">
      <g id="Sustracci贸n_8-2" data-name="Sustracci贸n 8" transform="translate(-191.5 11576.5)" fill="#fff">
        <path d="M 510.2427368164062 -11153.3955078125 L 222.0013885498047 -11153.3955078125 C 217.8646392822266 -11153.3955078125 214.4991912841797 -11156.759765625 214.4991912841797 -11160.89453125 L 214.4991912841797 -11299.5126953125 C 214.6681365966797 -11299.50390625 214.8353881835938 -11299.4990234375 214.9997863769531 -11299.4990234375 C 220.2380828857422 -11299.4990234375 224.4997863769531 -11303.7607421875 224.4997863769531 -11308.9990234375 C 224.4997863769531 -11314.2373046875 220.2380828857422 -11318.4990234375 214.9997863769531 -11318.4990234375 C 214.8338012695312 -11318.4990234375 214.6665649414062 -11318.4951171875 214.4991912841797 -11318.486328125 L 214.4991912841797 -11549.0009765625 C 214.4991912841797 -11553.1357421875 217.8646392822266 -11556.5 222.0013885498047 -11556.5 L 510.2427368164062 -11556.5 C 514.3778686523438 -11556.5 517.7420654296875 -11553.1357421875 517.7420654296875 -11549.0009765625 L 517.7420654296875 -11318.4951171875 C 512.6231079101562 -11318.357421875 508.5013427734375 -11314.150390625 508.5013427734375 -11308.9990234375 C 508.5013427734375 -11303.84765625 512.6231079101562 -11299.640625 517.7421264648438 -11299.5029296875 L 517.7420654296875 -11160.89453125 C 517.7420654296875 -11156.759765625 514.3778686523438 -11153.3955078125 510.2427368164062 -11153.3955078125 Z" stroke="none"/>
        <path d="M 510.2427368164062 -11153.8955078125 C 514.1021728515625 -11153.8955078125 517.2420654296875 -11157.03515625 517.2420654296875 -11160.89453125 L 517.2421264648438 -11299.02734375 C 512.0814819335938 -11299.4169921875 508.0013427734375 -11303.740234375 508.0013427734375 -11308.9990234375 C 508.0013427734375 -11314.2578125 512.0814208984375 -11318.5810546875 517.2420654296875 -11318.970703125 L 517.2420654296875 -11549.0009765625 C 517.2420654296875 -11552.8603515625 514.1021728515625 -11556 510.2427368164062 -11556 L 222.0013885498047 -11556 C 218.1403350830078 -11556 214.9991912841797 -11552.8603515625 214.9991912841797 -11549.0009765625 L 214.9991912841797 -11318.9990234375 C 214.9993896484375 -11318.9990234375 214.9995880126953 -11318.9990234375 214.9997863769531 -11318.9990234375 C 220.5137786865234 -11318.9990234375 224.9997863769531 -11314.5126953125 224.9997863769531 -11308.9990234375 C 224.9997863769531 -11303.4853515625 220.5137786865234 -11298.9990234375 214.9997863769531 -11298.9990234375 C 214.9995880126953 -11298.9990234375 214.9993896484375 -11298.9990234375 214.9991912841797 -11298.9990234375 L 214.9991912841797 -11160.89453125 C 214.9991912841797 -11157.03515625 218.1403350830078 -11153.8955078125 222.0013885498047 -11153.8955078125 L 510.2427368164062 -11153.8955078125 M 510.2427368164062 -11152.8955078125 L 222.0013885498047 -11152.8955078125 C 217.5889892578125 -11152.8955078125 213.9991912841797 -11156.4833984375 213.9991912841797 -11160.89453125 L 213.9991912841797 -11300.0546875 C 214.3309326171875 -11300.0185546875 214.667236328125 -11299.9990234375 214.9997863769531 -11299.9990234375 C 219.9623870849609 -11299.9990234375 223.9997863769531 -11304.0361328125 223.9997863769531 -11308.9990234375 C 223.9997863769531 -11313.9619140625 219.9623870849609 -11317.9990234375 214.9997863769531 -11317.9990234375 C 214.6670379638672 -11317.9990234375 214.3303833007812 -11317.98046875 213.9991912841797 -11317.9443359375 L 213.9991912841797 -11549.0009765625 C 213.9991912841797 -11553.412109375 217.5889892578125 -11557 222.0013885498047 -11557 L 510.2427368164062 -11557 C 514.653564453125 -11557 518.2420654296875 -11553.412109375 518.2420654296875 -11549.0009765625 L 518.2420654296875 -11317.99609375 C 518.169677734375 -11317.998046875 518.09130859375 -11317.9990234375 518.0013427734375 -11317.9990234375 C 513.0386962890625 -11317.9990234375 509.0013427734375 -11313.9619140625 509.0013427734375 -11308.9990234375 C 509.0013427734375 -11304.0361328125 513.0386962890625 -11299.9990234375 518.0013427734375 -11299.9990234375 C 518.1017456054688 -11299.9990234375 518.176025390625 -11300 518.2421264648438 -11300.0029296875 L 518.2420654296875 -11160.89453125 C 518.2420654296875 -11156.4833984375 514.653564453125 -11152.8955078125 510.2427368164062 -11152.8955078125 Z" stroke="none" fill="#5e50b5"/>
      </g>
    </g>
    <path id="Trazado_127" data-name="Trazado 127" d="M94.085,21.22a6.318,6.318,0,0,1-2.717-.583A5.323,5.323,0,0,1,89.333,19l1.628-1.958a3.711,3.711,0,0,0,3.058,1.76q2.4,0,2.4-2.838V8H90.939V5.6h8.338V15.808a5.6,5.6,0,0,1-1.32,4.059A5.171,5.171,0,0,1,94.085,21.22ZM114.391,9.252V21h-2.618V19.5a4.376,4.376,0,0,1-1.65,1.221,5.309,5.309,0,0,1-2.134.429,5.107,5.107,0,0,1-3.707-1.309,5.165,5.165,0,0,1-1.353-3.883V9.252h2.75v6.336a3.4,3.4,0,0,0,.715,2.365,2.62,2.62,0,0,0,2.035.781,3.082,3.082,0,0,0,2.343-.913,3.668,3.668,0,0,0,.869-2.629V9.252Zm8.1-.132a5.728,5.728,0,0,1,3.971,1.243,4.8,4.8,0,0,1,1.375,3.751V21h-2.6V19.57a3.2,3.2,0,0,1-1.441,1.177,5.633,5.633,0,0,1-2.255.407,5.525,5.525,0,0,1-2.31-.451,3.569,3.569,0,0,1-1.529-1.254,3.182,3.182,0,0,1-.539-1.815,3.111,3.111,0,0,1,1.177-2.541,5.845,5.845,0,0,1,3.707-.957h3.036V13.96a2.408,2.408,0,0,0-.737-1.892,3.189,3.189,0,0,0-2.189-.66,6.318,6.318,0,0,0-1.947.308,4.783,4.783,0,0,0-1.617.858l-1.078-2a6.675,6.675,0,0,1,2.222-1.078A9.887,9.887,0,0,1,122.487,9.12Zm-.374,10.032a3.551,3.551,0,0,0,1.837-.473,2.574,2.574,0,0,0,1.133-1.353V15.962h-2.838q-2.376,0-2.376,1.562a1.4,1.4,0,0,0,.594,1.188A2.723,2.723,0,0,0,122.113,19.152ZM138.019,9.12a4.909,4.909,0,0,1,3.564,1.3,5.12,5.12,0,0,1,1.342,3.85V21h-2.75V14.62a3.3,3.3,0,0,0-.726-2.321,2.684,2.684,0,0,0-2.068-.781,3.175,3.175,0,0,0-2.4.913,3.639,3.639,0,0,0-.88,2.629V21h-2.75V9.252h2.618V10.77a4.3,4.3,0,0,1,1.716-1.232A6.175,6.175,0,0,1,138.019,9.12ZM159.1,5.6a8.526,8.526,0,0,1,3.487.66,5.07,5.07,0,0,1,2.277,1.892,5.293,5.293,0,0,1,.792,2.926,5.307,5.307,0,0,1-.792,2.915,5.046,5.046,0,0,1-2.277,1.9,8.526,8.526,0,0,1-3.487.66h-3.476V21h-2.86V5.6Zm-.132,8.536a4.393,4.393,0,0,0,2.838-.792,2.76,2.76,0,0,0,.968-2.266,2.76,2.76,0,0,0-.968-2.266,4.393,4.393,0,0,0-2.838-.792h-3.344v6.116Zm20.284,1.056q0,.286-.044.814h-9.218a3.2,3.2,0,0,0,1.265,2.057,4.146,4.146,0,0,0,2.541.759,4.282,4.282,0,0,0,3.19-1.276l1.474,1.694a4.966,4.966,0,0,1-2,1.43,7.933,7.933,0,0,1-6.138-.286,5.545,5.545,0,0,1-2.277-2.145,6.057,6.057,0,0,1-.8-3.113,6.147,6.147,0,0,1,.781-3.091,5.54,5.54,0,0,1,2.167-2.145,6.323,6.323,0,0,1,3.124-.77,6.164,6.164,0,0,1,3.069.759,5.375,5.375,0,0,1,2.112,2.134A6.471,6.471,0,0,1,179.247,15.192Zm-5.94-3.872a3.25,3.25,0,0,0-3.344,2.86h6.666a3.242,3.242,0,0,0-1.078-2.068A3.278,3.278,0,0,0,173.307,11.32Zm11.2-.352q1.188-1.848,4.18-1.848v2.618a3.491,3.491,0,0,0-.638-.066,3.322,3.322,0,0,0-2.508.935,3.729,3.729,0,0,0-.9,2.695V21h-2.75V9.252h2.618Zm17.446,4.224q0,.286-.044.814h-9.218a3.2,3.2,0,0,0,1.265,2.057,4.146,4.146,0,0,0,2.541.759,4.282,4.282,0,0,0,3.19-1.276l1.474,1.694a4.966,4.966,0,0,1-2,1.43,7.933,7.933,0,0,1-6.138-.286,5.545,5.545,0,0,1-2.277-2.145,6.057,6.057,0,0,1-.8-3.113,6.147,6.147,0,0,1,.781-3.091,5.54,5.54,0,0,1,2.167-2.145,6.323,6.323,0,0,1,3.124-.77,6.164,6.164,0,0,1,3.069.759,5.375,5.375,0,0,1,2.112,2.134A6.471,6.471,0,0,1,201.951,15.192Zm-5.94-3.872a3.25,3.25,0,0,0-3.344,2.86h6.666a3.242,3.242,0,0,0-1.078-2.068A3.278,3.278,0,0,0,196.011,11.32Zm17.644,7.48V21H203.513V19.262l6.446-7.81h-6.314v-2.2h9.834V10.99l-6.468,7.81Z" transform="translate(12586 13923)" fill="#5e50b5"/>
    <path id="Trazado_128" data-name="Trazado 128" d="M92.872,10.2h-2.79v2.73h-.945V10.2h-2.79V9.315h2.79V6.57h.945V9.315h2.79Zm4.59-1.4a5.4,5.4,0,0,1,3.323.817,2.742,2.742,0,0,1,1.042,2.288,3.141,3.141,0,0,1-.427,1.635,2.912,2.912,0,0,1-1.283,1.132,4.808,4.808,0,0,1-2.1.413,6.216,6.216,0,0,1-2.138-.368,4.369,4.369,0,0,1-1.627-.983l.525-.855a3.876,3.876,0,0,0,1.38.877A4.98,4.98,0,0,0,98,14.1a3.1,3.1,0,0,0,2.018-.585,1.916,1.916,0,0,0,.712-1.56,1.86,1.86,0,0,0-.8-1.635,4.94,4.94,0,0,0-2.707-.555H94.988l.54-5.265h5.745v.96h-4.8l-.36,3.345Zm14.655,3.435h-2.1V15h-1.08V12.24h-5.925v-.78l5.565-6.96h1.2l-5.37,6.78h4.56V8.85h1.05v2.43h2.1Zm9.105,2.85a3.775,3.775,0,0,1-2.168-.645,4.227,4.227,0,0,1-1.485-1.852,7,7,0,0,1-.533-2.842,7,7,0,0,1,.533-2.842,4.227,4.227,0,0,1,1.485-1.852,3.964,3.964,0,0,1,4.335,0,4.276,4.276,0,0,1,1.493,1.852,6.914,6.914,0,0,1,.54,2.842,6.914,6.914,0,0,1-.54,2.842,4.276,4.276,0,0,1-1.493,1.852A3.775,3.775,0,0,1,121.223,15.09Zm0-.99a2.66,2.66,0,0,0,1.612-.51,3.3,3.3,0,0,0,1.088-1.485,6.344,6.344,0,0,0,.39-2.355,6.344,6.344,0,0,0-.39-2.355,3.3,3.3,0,0,0-1.088-1.485,2.8,2.8,0,0,0-3.225,0,3.3,3.3,0,0,0-1.088,1.485,6.344,6.344,0,0,0-.39,2.355,6.344,6.344,0,0,0,.39,2.355,3.3,3.3,0,0,0,1.088,1.485A2.66,2.66,0,0,0,121.223,14.1Zm8.625-9.6V15h-1.08V5.46h-2.475V4.5Zm5.415,0V15h-1.08V5.46h-2.475V4.5Zm9.345,0V15h-1.08V5.46h-2.475V4.5Zm5.415,0V15h-1.08V5.46h-2.475V4.5Zm5.265,4.305a5.4,5.4,0,0,1,3.323.817,2.742,2.742,0,0,1,1.042,2.288,3.141,3.141,0,0,1-.428,1.635,2.912,2.912,0,0,1-1.282,1.132,4.808,4.808,0,0,1-2.1.413,6.216,6.216,0,0,1-2.137-.368,4.369,4.369,0,0,1-1.628-.983l.525-.855a3.877,3.877,0,0,0,1.38.877,4.98,4.98,0,0,0,1.845.338,3.1,3.1,0,0,0,2.018-.585,1.916,1.916,0,0,0,.712-1.56,1.86,1.86,0,0,0-.8-1.635,4.94,4.94,0,0,0-2.708-.555h-2.235l.54-5.265H159.1v.96h-4.8l-.36,3.345Zm8.64-4.305V15h-1.08V5.46h-2.475V4.5Zm5.415,0V15h-1.08V5.46h-2.475V4.5Zm8.52,4.995a3.191,3.191,0,0,1,1.523.99,2.452,2.452,0,0,1,.533,1.59,2.648,2.648,0,0,1-.5,1.6,3.123,3.123,0,0,1-1.417,1.05,5.838,5.838,0,0,1-2.167.368,4.85,4.85,0,0,1-2.97-.81,2.609,2.609,0,0,1-1.08-2.2,2.491,2.491,0,0,1,.518-1.6,3.12,3.12,0,0,1,1.507-.983,2.619,2.619,0,0,1-1.23-.908,2.362,2.362,0,0,1-.42-1.4,2.4,2.4,0,0,1,1-2.025,4.352,4.352,0,0,1,2.678-.75,5.147,5.147,0,0,1,1.942.337,2.937,2.937,0,0,1,1.3.967,2.408,2.408,0,0,1,.465,1.47,2.3,2.3,0,0,1-.435,1.4A2.716,2.716,0,0,1,177.863,9.495Zm-4.62-2.28a1.627,1.627,0,0,0,.69,1.38,3.146,3.146,0,0,0,1.9.51,3.181,3.181,0,0,0,1.912-.51,1.607,1.607,0,0,0,.7-1.365,1.624,1.624,0,0,0-.713-1.395,3.194,3.194,0,0,0-1.9-.51,3.153,3.153,0,0,0-1.9.51A1.621,1.621,0,0,0,173.243,7.215Zm2.6,6.96a3.664,3.664,0,0,0,2.182-.57,1.809,1.809,0,0,0,.788-1.545,1.79,1.79,0,0,0-.788-1.538,4.486,4.486,0,0,0-4.35,0,1.79,1.79,0,0,0-.787,1.538,1.809,1.809,0,0,0,.78,1.552A3.665,3.665,0,0,0,175.838,14.175Zm14.5-1.935h-2.1V15h-1.08V12.24h-5.925v-.78L186.8,4.5H188l-5.37,6.78h4.56V8.85h1.05v2.43h2.1Zm7.65-7.74v.765L193.6,15h-1.17l4.32-9.54h-5.4V7.425h-1.065V4.5Zm4.7-.09a3.871,3.871,0,0,1,3.195,1.372,6.019,6.019,0,0,1,1.11,3.877,6.662,6.662,0,0,1-.6,2.97,4.2,4.2,0,0,1-1.68,1.837,4.957,4.957,0,0,1-2.52.623,4.732,4.732,0,0,1-2.49-.57l.435-.87a3.665,3.665,0,0,0,2.04.5,3.482,3.482,0,0,0,2.73-1.1,4.643,4.643,0,0,0,.99-3.2q0-.39-.045-.855a2.831,2.831,0,0,1-1.245,1.327,4,4,0,0,1-1.965.472,4.153,4.153,0,0,1-1.838-.39,2.99,2.99,0,0,1-1.253-1.1,3.038,3.038,0,0,1-.45-1.657,3.1,3.1,0,0,1,.465-1.695,3.07,3.07,0,0,1,1.283-1.133A4.147,4.147,0,0,1,202.688,4.41Zm.12,5.46a3.129,3.129,0,0,0,1.4-.3,2.364,2.364,0,0,0,.952-.825,2.085,2.085,0,0,0,.345-1.17,2.037,2.037,0,0,0-.322-1.11,2.317,2.317,0,0,0-.952-.825,3.32,3.32,0,0,0-1.5-.315,2.713,2.713,0,0,0-1.853.622,2.092,2.092,0,0,0-.712,1.657,2.069,2.069,0,0,0,.712,1.65A2.85,2.85,0,0,0,202.807,9.87Zm9.93,5.22a3.775,3.775,0,0,1-2.167-.645,4.227,4.227,0,0,1-1.485-1.852,7,7,0,0,1-.533-2.842,7,7,0,0,1,.533-2.842,4.227,4.227,0,0,1,1.485-1.852,3.964,3.964,0,0,1,4.335,0A4.276,4.276,0,0,1,216.4,6.908a6.914,6.914,0,0,1,.54,2.842,6.914,6.914,0,0,1-.54,2.842,4.276,4.276,0,0,1-1.492,1.852A3.775,3.775,0,0,1,212.737,15.09Zm0-.99a2.66,2.66,0,0,0,1.613-.51,3.3,3.3,0,0,0,1.087-1.485,6.344,6.344,0,0,0,.39-2.355,6.344,6.344,0,0,0-.39-2.355A3.3,3.3,0,0,0,214.35,5.91a2.8,2.8,0,0,0-3.225,0,3.3,3.3,0,0,0-1.087,1.485,6.344,6.344,0,0,0-.39,2.355,6.344,6.344,0,0,0,.39,2.355,3.3,3.3,0,0,0,1.087,1.485A2.66,2.66,0,0,0,212.737,14.1Z" transform="translate(12587 13962)" fill="#5f6d74"/>
    <path id="Trazado_129" data-name="Trazado 129" d="M87.33,16.36V19H76.75V16.9l5.4-5.1a5.735,5.735,0,0,0,1.16-1.41,2.565,2.565,0,0,0,.3-1.17,1.547,1.547,0,0,0-.57-1.29,2.652,2.652,0,0,0-1.67-.45,3.835,3.835,0,0,0-1.66.35,3.179,3.179,0,0,0-1.24,1.05L76.11,7.36a5.536,5.536,0,0,1,2.26-1.91,7.548,7.548,0,0,1,3.3-.69,6.785,6.785,0,0,1,2.73.51,4.208,4.208,0,0,1,1.82,1.44,3.726,3.726,0,0,1,.65,2.19,4.882,4.882,0,0,1-.48,2.14,8.238,8.238,0,0,1-1.86,2.28l-3.22,3.04Zm22.72.04V19H99.21V5h10.58V7.6h-7.36v3.04h6.5v2.52h-6.5V16.4ZM127.47,5V19h-2.66l-6.98-8.5V19h-3.2V5h2.68l6.96,8.5V5Zm8.22,2.64h-4.48V5h12.2V7.64h-4.48V19h-3.24ZM156.07,19l-2.7-3.9h-2.98V19h-3.24V5h6.06a7.777,7.777,0,0,1,3.23.62,4.8,4.8,0,0,1,2.11,1.76,4.849,4.849,0,0,1,.74,2.7,4.752,4.752,0,0,1-.75,2.69,4.754,4.754,0,0,1-2.13,1.73l3.14,4.5Zm-.06-8.92a2.218,2.218,0,0,0-.76-1.81,3.4,3.4,0,0,0-2.22-.63h-2.64v4.88h2.64a3.365,3.365,0,0,0,2.22-.64A2.224,2.224,0,0,0,156.01,10.08ZM173.07,16h-6.5l-1.24,3h-3.32l6.24-14h3.2l6.26,14h-3.4Zm-1.02-2.46-2.22-5.36-2.22,5.36ZM181.17,5h6.36a8.938,8.938,0,0,1,4.03.87,6.514,6.514,0,0,1,2.72,2.45,6.891,6.891,0,0,1,.97,3.68,6.891,6.891,0,0,1-.97,3.68,6.514,6.514,0,0,1-2.72,2.45,8.938,8.938,0,0,1-4.03.87h-6.36Zm6.2,11.34a4.7,4.7,0,0,0,3.35-1.17A4.132,4.132,0,0,0,191.97,12a4.132,4.132,0,0,0-1.25-3.17,4.7,4.7,0,0,0-3.35-1.17h-2.96v8.68ZM208.71,16h-6.5l-1.24,3h-3.32l6.24-14h3.2l6.26,14h-3.4Zm-1.02-2.46-2.22-5.36-2.22,5.36Zm13.72,5.7a11.455,11.455,0,0,1-3.21-.45,7.528,7.528,0,0,1-2.49-1.17l1.1-2.44a7.464,7.464,0,0,0,2.14,1.06,8.038,8.038,0,0,0,2.48.4,3.962,3.962,0,0,0,2.04-.41,1.239,1.239,0,0,0,.66-1.09,1.042,1.042,0,0,0-.39-.83,2.957,2.957,0,0,0-1-.53q-.61-.2-1.65-.44a22.808,22.808,0,0,1-2.62-.76,4.257,4.257,0,0,1-1.75-1.22,3.3,3.3,0,0,1-.73-2.24,3.9,3.9,0,0,1,.66-2.21,4.44,4.44,0,0,1,1.99-1.57,8.12,8.12,0,0,1,3.25-.58,10.761,10.761,0,0,1,2.62.32,7.74,7.74,0,0,1,2.24.92l-1,2.46a7.806,7.806,0,0,0-3.88-1.1,3.638,3.638,0,0,0-2.01.44,1.343,1.343,0,0,0-.65,1.16,1.134,1.134,0,0,0,.75,1.07,11.775,11.775,0,0,0,2.29.69,22.809,22.809,0,0,1,2.62.76,4.339,4.339,0,0,1,1.75,1.2,3.217,3.217,0,0,1,.73,2.22,3.823,3.823,0,0,1-.67,2.19,4.5,4.5,0,0,1-2.01,1.57A8.194,8.194,0,0,1,221.41,19.24Z" transform="translate(12586 14060)" fill="#5f6d74"/>
    <g id="div" transform="translate(12640 14020)">
      <circle id="Oval_2" data-name="Oval 2" cx="3" cy="3" r="3" fill="#f1f1f1"/>
      <circle id="Oval_2_Copy_3" data-name="Oval 2 Copy 3" cx="3" cy="3" r="3" transform="translate(31)" fill="#f1f1f1"/>
      <circle id="Oval_2_Copy_2" data-name="Oval 2 Copy 2" cx="3" cy="3" r="3" transform="translate(16)" fill="#f1f1f1"/>
      <circle id="Oval_2_Copy_4" data-name="Oval 2 Copy 4" cx="3" cy="3" r="3" transform="translate(47)" fill="#f1f1f1"/>
      <circle id="Oval_2_Copy_5" data-name="Oval 2 Copy 5" cx="3" cy="3" r="3" transform="translate(63)" fill="#f1f1f1"/>
      <circle id="Oval_2_Copy_6" data-name="Oval 2 Copy 6" cx="3" cy="3" r="3" transform="translate(96)" fill="#f1f1f1"/>
      <circle id="Oval_2_Copy_7" data-name="Oval 2 Copy 7" cx="3" cy="3" r="3" transform="translate(80)" fill="#f1f1f1"/>
      <circle id="Oval_2_Copy_8" data-name="Oval 2 Copy 8" cx="3" cy="3" r="3" transform="translate(112)" fill="#f1f1f1"/>
      <circle id="Oval_2-2" data-name="Oval 2" cx="3" cy="3" r="3" transform="translate(127)" fill="#f1f1f1"/>
      <ellipse id="Oval_2_Copy_3-2" data-name="Oval 2 Copy 3" cx="2.5" cy="3" rx="2.5" ry="3" transform="translate(160)" fill="#f1f1f1"/>
      <circle id="Oval_2_Copy_2-2" data-name="Oval 2 Copy 2" cx="3" cy="3" r="3" transform="translate(143)" fill="#f1f1f1"/>
      <circle id="Oval_2_Copy_4-2" data-name="Oval 2 Copy 4" cx="3" cy="3" r="3" transform="translate(175)" fill="#f1f1f1"/>
      <circle id="Oval_2_Copy_5-2" data-name="Oval 2 Copy 5" cx="3" cy="3" r="3" transform="translate(191)" fill="#f1f1f1"/>
    </g>
    <path id="PVR_4930_AYUSH_6721" data-name="PVR 4930 AYUSH 6721" d="M4.512-8.4a3.794,3.794,0,0,1,2.52.768A2.613,2.613,0,0,1,7.944-5.52a2.6,2.6,0,0,1-.912,2.106,3.814,3.814,0,0,1-2.52.762H2.256V0H1.368V-8.4ZM4.488-3.432A2.924,2.924,0,0,0,6.4-3.978a1.889,1.889,0,0,0,.66-1.542A1.917,1.917,0,0,0,6.4-7.086a2.924,2.924,0,0,0-1.908-.546H2.256v4.2ZM20.376-8.4,16.656,0H15.78L12.06-8.4h.96l3.216,7.3,3.24-7.3ZM30.924,0,29-2.7a6.085,6.085,0,0,1-.672.036H26.076V0h-.888V-8.4h3.144a3.794,3.794,0,0,1,2.52.768,2.613,2.613,0,0,1,.912,2.112,2.73,2.73,0,0,1-.5,1.662,2.759,2.759,0,0,1-1.422.978L31.9,0ZM28.308-3.42a2.9,2.9,0,0,0,1.908-.552,1.907,1.907,0,0,0,.66-1.548,1.917,1.917,0,0,0-.66-1.566,2.924,2.924,0,0,0-1.908-.546H26.076V-3.42ZM50.6-2.208h-1.68V0H48.06V-2.208H43.32v-.624L47.772-8.4h.96l-4.3,5.424h3.648V-4.92h.84v1.944H50.6Zm6.912-6.264a3.1,3.1,0,0,1,2.556,1.1,4.815,4.815,0,0,1,.888,3.1A5.33,5.33,0,0,1,60.48-1.9a3.362,3.362,0,0,1-1.344,1.47,3.966,3.966,0,0,1-2.016.5,3.786,3.786,0,0,1-1.992-.456l.348-.7a2.932,2.932,0,0,0,1.632.4,2.786,2.786,0,0,0,2.184-.882,3.714,3.714,0,0,0,.792-2.562q0-.312-.036-.684a2.265,2.265,0,0,1-1,1.062,3.2,3.2,0,0,1-1.572.378,3.322,3.322,0,0,1-1.47-.312,2.392,2.392,0,0,1-1-.882,2.43,2.43,0,0,1-.36-1.326,2.482,2.482,0,0,1,.372-1.356,2.456,2.456,0,0,1,1.026-.906A3.318,3.318,0,0,1,57.516-8.472Zm.1,4.368a2.5,2.5,0,0,0,1.122-.24A1.891,1.891,0,0,0,59.5-5a1.668,1.668,0,0,0,.276-.936,1.63,1.63,0,0,0-.258-.888,1.853,1.853,0,0,0-.762-.66,2.656,2.656,0,0,0-1.2-.252,2.171,2.171,0,0,0-1.482.5,1.673,1.673,0,0,0-.57,1.326,1.655,1.655,0,0,0,.57,1.32A2.28,2.28,0,0,0,57.612-4.1Zm10.932-.7a3.109,3.109,0,0,1,2.01.714,2.181,2.181,0,0,1,.69,1.674A2.364,2.364,0,0,1,70.9-1.134a2.372,2.372,0,0,1-1.032.882A3.876,3.876,0,0,1,68.2.072a5.008,5.008,0,0,1-1.722-.294,3.5,3.5,0,0,1-1.3-.786l.42-.684a3.086,3.086,0,0,0,1.116.7A4.078,4.078,0,0,0,68.2-.72a2.5,2.5,0,0,0,1.6-.45,1.5,1.5,0,0,0,.564-1.242,1.472,1.472,0,0,0-.564-1.224,2.728,2.728,0,0,0-1.7-.444h-.6v-.636l2.328-2.916h-4.3V-8.4h5.4v.612ZM79.4.072A3.02,3.02,0,0,1,77.67-.444a3.382,3.382,0,0,1-1.188-1.482A5.6,5.6,0,0,1,76.056-4.2a5.6,5.6,0,0,1,.426-2.274A3.382,3.382,0,0,1,77.67-7.956,3.02,3.02,0,0,1,79.4-8.472a3.02,3.02,0,0,1,1.734.516,3.421,3.421,0,0,1,1.194,1.482A5.531,5.531,0,0,1,82.764-4.2a5.531,5.531,0,0,1-.432,2.274A3.421,3.421,0,0,1,81.138-.444,3.02,3.02,0,0,1,79.4.072Zm0-.792a2.128,2.128,0,0,0,1.29-.408,2.637,2.637,0,0,0,.87-1.188A5.075,5.075,0,0,0,81.876-4.2a5.075,5.075,0,0,0-.312-1.884,2.637,2.637,0,0,0-.87-1.188A2.128,2.128,0,0,0,79.4-7.68a2.128,2.128,0,0,0-1.29.408,2.637,2.637,0,0,0-.87,1.188A5.075,5.075,0,0,0,76.932-4.2a5.075,5.075,0,0,0,.312,1.884,2.637,2.637,0,0,0,.87,1.188A2.128,2.128,0,0,0,79.4-.72Zm20.952-1.524h-4.68L94.668,0h-.924l3.84-8.4h.876L102.3,0h-.936Zm-.324-.72L98.016-7.476,96-2.964Zm9.648.06V0H108.8V-2.9l-3.36-5.5h.948l2.88,4.716,2.88-4.716h.888Zm11.6,2.976a3.388,3.388,0,0,1-2.544-.936,3.749,3.749,0,0,1-.912-2.724V-8.4h.888v4.776a3.141,3.141,0,0,0,.66,2.184,2.459,2.459,0,0,0,1.908.72,2.474,2.474,0,0,0,1.92-.72,3.141,3.141,0,0,0,.66-2.184V-8.4h.864v4.812a3.764,3.764,0,0,1-.906,2.724A3.368,3.368,0,0,1,121.284.072Zm12.036,0a5.4,5.4,0,0,1-1.794-.3A3.3,3.3,0,0,1,130.2-1.02l.348-.684a3.332,3.332,0,0,0,1.212.738,4.429,4.429,0,0,0,1.56.282,2.852,2.852,0,0,0,1.692-.414,1.275,1.275,0,0,0,.564-1.074,1.075,1.075,0,0,0-.306-.8,2.066,2.066,0,0,0-.75-.462,12.13,12.13,0,0,0-1.236-.354,12.985,12.985,0,0,1-1.512-.462,2.483,2.483,0,0,1-.966-.678,1.8,1.8,0,0,1-.4-1.236,2.1,2.1,0,0,1,.336-1.158,2.3,2.3,0,0,1,1.032-.834,4.224,4.224,0,0,1,1.728-.312,5.087,5.087,0,0,1,1.41.2,4.052,4.052,0,0,1,1.194.546l-.3.708a4.129,4.129,0,0,0-1.128-.522,4.21,4.21,0,0,0-1.176-.174,2.715,2.715,0,0,0-1.662.426,1.322,1.322,0,0,0-.558,1.1,1.1,1.1,0,0,0,.306.81,2,2,0,0,0,.768.468q.462.162,1.242.354a12.5,12.5,0,0,1,1.494.45,2.452,2.452,0,0,1,.966.672,1.778,1.778,0,0,1,.4,1.218,2.068,2.068,0,0,1-.342,1.158,2.3,2.3,0,0,1-1.05.828A4.386,4.386,0,0,1,133.32.072ZM149-8.4V0h-.876V-3.876h-5.256V0h-.888V-8.4h.888v3.744h5.256V-8.4ZM164.82-5.028a3.322,3.322,0,0,1,1.47.312,2.392,2.392,0,0,1,1,.882,2.43,2.43,0,0,1,.36,1.326,2.482,2.482,0,0,1-.372,1.356,2.456,2.456,0,0,1-1.026.906,3.318,3.318,0,0,1-1.47.318,3.1,3.1,0,0,1-2.556-1.1,4.815,4.815,0,0,1-.888-3.1,5.329,5.329,0,0,1,.48-2.376,3.362,3.362,0,0,1,1.344-1.47,3.966,3.966,0,0,1,2.016-.5,3.786,3.786,0,0,1,1.992.456l-.348.7a2.932,2.932,0,0,0-1.632-.4,2.786,2.786,0,0,0-2.184.882,3.714,3.714,0,0,0-.792,2.562q0,.3.036.684a2.265,2.265,0,0,1,1-1.062A3.2,3.2,0,0,1,164.82-5.028ZM164.748-.66a2.171,2.171,0,0,0,1.482-.5,1.673,1.673,0,0,0,.57-1.326,1.655,1.655,0,0,0-.57-1.32,2.28,2.28,0,0,0-1.542-.492,2.5,2.5,0,0,0-1.122.24,1.891,1.891,0,0,0-.762.66,1.668,1.668,0,0,0-.276.936,1.63,1.63,0,0,0,.258.888,1.853,1.853,0,0,0,.762.66A2.656,2.656,0,0,0,164.748-.66ZM178.08-8.4v.612L174.564,0h-.936l3.456-7.632h-4.32V-6.06h-.852V-8.4ZM188.556-.768V0h-5.892V-.612l3.492-3.42a4.519,4.519,0,0,0,.894-1.122,2.137,2.137,0,0,0,.234-.954,1.408,1.408,0,0,0-.51-1.158,2.261,2.261,0,0,0-1.458-.414,2.879,2.879,0,0,0-2.292.936l-.612-.528a3.223,3.223,0,0,1,1.254-.888,4.509,4.509,0,0,1,1.722-.312,3.145,3.145,0,0,1,2.034.606,2.021,2.021,0,0,1,.75,1.662,2.851,2.851,0,0,1-.288,1.248,5.233,5.233,0,0,1-1.092,1.38L183.936-.768ZM195.564-8.4V0H194.7V-7.632h-1.98V-8.4Z" transform="translate(12640 14157)"/>
    <g id="barcode" transform="translate(12606 14103)">
      <rect id="Rectangle_4" data-name="Rectangle 4" width="3" height="39"/>
      <rect id="Rectangle_4_Copy_18" data-name="Rectangle 4 Copy 18" width="2" height="39" transform="translate(73)"/>
      <rect id="Rectangle_4_Copy_4" data-name="Rectangle 4 Copy 4" width="3" height="39" transform="translate(14)"/>
      <rect id="Rectangle_4_Copy_19" data-name="Rectangle 4 Copy 19" width="3" height="39" transform="translate(87)"/>
      <rect id="Rectangle_4_Copy_7" data-name="Rectangle 4 Copy 7" width="3" height="39" transform="translate(27)"/>
      <rect id="Rectangle_4_Copy_20" data-name="Rectangle 4 Copy 20" width="2" height="39" transform="translate(100)"/>
      <rect id="Rectangle_4_Copy_8" data-name="Rectangle 4 Copy 8" width="2" height="39" transform="translate(35)"/>
      <rect id="Rectangle_4_Copy_21" data-name="Rectangle 4 Copy 21" width="3" height="39" transform="translate(107)"/>
      <rect id="Rectangle_4_Copy_10" data-name="Rectangle 4 Copy 10" width="3" height="39" transform="translate(42)"/>
      <rect id="Rectangle_4_Copy_22" data-name="Rectangle 4 Copy 22" width="2" height="39" transform="translate(115)"/>
      <rect id="Rectangle_4_Copy_17" data-name="Rectangle 4 Copy 17" width="2" height="39" transform="translate(67)"/>
      <rect id="Rectangle_4_Copy_23" data-name="Rectangle 4 Copy 23" width="3" height="39" transform="translate(139)"/>
      <rect id="Rectangle_4_Copy" data-name="Rectangle 4 Copy" width="2" height="39" transform="translate(4)"/>
      <rect id="Rectangle_4_Copy_24" data-name="Rectangle 4 Copy 24" width="2" height="39" transform="translate(77)"/>
      <rect id="Rectangle_4_Copy_2" data-name="Rectangle 4 Copy 2" width="1" height="39" transform="translate(8)"/>
      <rect id="Rectangle_4_Copy_25" data-name="Rectangle 4 Copy 25" width="2" height="39" transform="translate(80)"/>
      <rect id="Rectangle_4_Copy_26" data-name="Rectangle 4 Copy 26" width="1" height="39" transform="translate(84)"/>
      <rect id="Rectangle_4_Copy_5" data-name="Rectangle 4 Copy 5" width="1" height="39" transform="translate(19)"/>
      <rect id="Rectangle_4_Copy_27" data-name="Rectangle 4 Copy 27" width="2" height="39" transform="translate(91)"/>
      <rect id="Rectangle_4_Copy_6" data-name="Rectangle 4 Copy 6" width="1" height="39" transform="translate(24)"/>
      <rect id="Rectangle_4_Copy_28" data-name="Rectangle 4 Copy 28" width="2" height="39" transform="translate(96)"/>
      <rect id="Rectangle_4_Copy_9" data-name="Rectangle 4 Copy 9" width="2" height="39" transform="translate(31)"/>
      <rect id="Rectangle_4_Copy_29" data-name="Rectangle 4 Copy 29" width="2" height="39" transform="translate(104)"/>
      <rect id="Rectangle_4_Copy_11" data-name="Rectangle 4 Copy 11" width="2" height="39" transform="translate(39)"/>
      <rect id="Rectangle_4_Copy_30" data-name="Rectangle 4 Copy 30" width="1" height="39" transform="translate(112)"/>
      <rect id="Rectangle_4_Copy_12" data-name="Rectangle 4 Copy 12" width="2" height="39" transform="translate(46)"/>
      <rect id="Rectangle_4_Copy_31" data-name="Rectangle 4 Copy 31" width="2" height="39" transform="translate(119)"/>
      <rect id="Rectangle_4_Copy_16" data-name="Rectangle 4 Copy 16" width="2" height="39" transform="translate(63)"/>
      <rect id="Rectangle_4_Copy_32" data-name="Rectangle 4 Copy 32" width="2" height="39" transform="translate(136)"/>
      <rect id="Rectangle_4_Copy_13" data-name="Rectangle 4 Copy 13" width="1" height="39" transform="translate(52)"/>
      <rect id="Rectangle_4_Copy_33" data-name="Rectangle 4 Copy 33" width="2" height="39" transform="translate(124)"/>
      <rect id="Rectangle_4_Copy_14" data-name="Rectangle 4 Copy 14" width="2" height="39" transform="translate(55)"/>
      <rect id="Rectangle_4_Copy_34" data-name="Rectangle 4 Copy 34" width="1" height="39" transform="translate(128)"/>
      <rect id="Rectangle_4_Copy_15" data-name="Rectangle 4 Copy 15" width="2" height="39" transform="translate(60)"/>
      <rect id="Rectangle_4_Copy_35" data-name="Rectangle 4 Copy 35" width="1" height="39" transform="translate(133)"/>
      <rect id="Rectangle_4-2" data-name="Rectangle 4" width="2" height="39" transform="translate(144)"/>
      <rect id="Rectangle_4_Copy_18-2" data-name="Rectangle 4 Copy 18" width="3" height="39" transform="translate(216)"/>
      <rect id="Rectangle_4_Copy_4-2" data-name="Rectangle 4 Copy 4" width="3" height="39" transform="translate(158)"/>
      <rect id="Rectangle_4_Copy_19-2" data-name="Rectangle 4 Copy 19" width="2" height="39" transform="translate(231)"/>
      <rect id="Rectangle_4_Copy_7-2" data-name="Rectangle 4 Copy 7" width="2" height="39" transform="translate(171)"/>
      <rect id="Rectangle_4_Copy_20-2" data-name="Rectangle 4 Copy 20" width="3" height="39" transform="translate(243)"/>
      <rect id="Rectangle_4_Copy_8-2" data-name="Rectangle 4 Copy 8" width="3" height="39" transform="translate(178)"/>
      <rect id="Rectangle_4_Copy_21-2" data-name="Rectangle 4 Copy 21" width="2" height="39" transform="translate(251)"/>
      <rect id="Rectangle_4_Copy_10-2" data-name="Rectangle 4 Copy 10" width="2" height="39" transform="translate(186)"/>
      <rect id="Rectangle_4_Copy_22-2" data-name="Rectangle 4 Copy 22" width="2" height="39" transform="translate(259)"/>
      <rect id="Rectangle_4_Copy_17-2" data-name="Rectangle 4 Copy 17" width="3" height="39" transform="translate(210)"/>
      <rect id="Rectangle_4_Copy-2" data-name="Rectangle 4 Copy" width="2" height="39" transform="translate(148)"/>
      <rect id="Rectangle_4_Copy_24-2" data-name="Rectangle 4 Copy 24" width="2" height="39" transform="translate(220)"/>
      <rect id="Rectangle_4_Copy_2-2" data-name="Rectangle 4 Copy 2" width="2" height="39" transform="translate(151)"/>
      <rect id="Rectangle_4_Copy_25-2" data-name="Rectangle 4 Copy 25" width="1" height="39" transform="translate(224)"/>
      <rect id="Rectangle_4_Copy_3" data-name="Rectangle 4 Copy 3" width="1" height="39" transform="translate(155)"/>
      <rect id="Rectangle_4_Copy_26-2" data-name="Rectangle 4 Copy 26" width="2" height="39" transform="translate(227)"/>
      <rect id="Rectangle_4_Copy_5-2" data-name="Rectangle 4 Copy 5" width="2" height="39" transform="translate(162)"/>
      <rect id="Rectangle_4_Copy_27-2" data-name="Rectangle 4 Copy 27" width="2" height="39" transform="translate(235)"/>
      <rect id="Rectangle_4_Copy_6-2" data-name="Rectangle 4 Copy 6" width="2" height="39" transform="translate(167)"/>
      <rect id="Rectangle_4_Copy_28-2" data-name="Rectangle 4 Copy 28" width="2" height="39" transform="translate(240)"/>
      <rect id="Rectangle_4_Copy_9-2" data-name="Rectangle 4 Copy 9" width="2" height="39" transform="translate(175)"/>
      <rect id="Rectangle_4_Copy_29-2" data-name="Rectangle 4 Copy 29" width="1" height="39" transform="translate(248)"/>
      <rect id="Rectangle_4_Copy_11-2" data-name="Rectangle 4 Copy 11" width="2" height="39" transform="translate(182)"/>
      <rect id="Rectangle_4_Copy_30-2" data-name="Rectangle 4 Copy 30" width="2" height="39" transform="translate(255)"/>
      <rect id="Rectangle_4_Copy_12-2" data-name="Rectangle 4 Copy 12" width="2" height="39" transform="translate(190)"/>
      <rect id="Rectangle_4_Copy_31-2" data-name="Rectangle 4 Copy 31" width="1" height="39" transform="translate(263)"/>
      <rect id="Rectangle_4_Copy_16-2" data-name="Rectangle 4 Copy 16" width="2" height="39" transform="translate(207)"/>
      <rect id="Rectangle_4_Copy_13-2" data-name="Rectangle 4 Copy 13" width="2" height="39" transform="translate(195)"/>
      <rect id="Rectangle_4_Copy_14-2" data-name="Rectangle 4 Copy 14" width="1" height="39" transform="translate(199)"/>
      <rect id="Rectangle_4_Copy_15-2" data-name="Rectangle 4 Copy 15" width="1" height="39" transform="translate(204)"/>
    </g>
    <g id="Grupo_563" data-name="Grupo 563" transform="translate(12446 13375)">
      <g id="Elipse_17" data-name="Elipse 17" transform="translate(250 439)" fill="none" stroke="#5e50b5" stroke-width="2">
        <ellipse cx="42.5" cy="43" rx="42.5" ry="43" stroke="none"/>
        <ellipse cx="42.5" cy="43" rx="41.5" ry="42" fill="none"/>
      </g>
      <path id="Trazado_126" data-name="Trazado 126" d="M29.885,29.18a7.225,7.225,0,0,1-3.33-.78,6.49,6.49,0,0,1-2.49-2.22l1.32-1.5a5.261,5.261,0,0,0,4.53,2.58q3.9,0,3.9-4.62V9.92h-7.68V8h9.87V22.55a7.067,7.067,0,0,1-1.545,4.965A5.94,5.94,0,0,1,29.885,29.18ZM50.525,8a9.485,9.485,0,0,1,6.3,1.92A6.534,6.534,0,0,1,59.1,15.2a6.49,6.49,0,0,1-2.28,5.265,9.536,9.536,0,0,1-6.3,1.9h-5.64V29h-2.22V8Zm-.06,12.42a7.31,7.31,0,0,0,4.77-1.365,4.723,4.723,0,0,0,1.65-3.855,4.792,4.792,0,0,0-1.65-3.915,7.31,7.31,0,0,0-4.77-1.365h-5.58v10.5Z" transform="translate(250 465)" fill="#1b2125"/>
    </g>
    <g transform="matrix(1, 0, 0, 1, 12563.5, 13755.5)" filter="url(#Oval_3_Copy)">
      <circle id="Oval_3_Copy-2" data-name="Oval 3 Copy" cx="11" cy="11" r="11" transform="translate(281.85 41.5)" fill="#f5f5f5" stroke="#a5b0b5" stroke-miterlimit="10" stroke-width="1"/>
    </g>
    <g id="ic_check_copy" data-name="ic_check copy" transform="translate(12844 13797)">
      <path id="Shape" d="M0,0H24V24H0Z" fill="none"/>
      <circle id="Oval_3_Copy-3" data-name="Oval 3 Copy" cx="12" cy="12" r="12" fill="#5e50b5"/>
      <path id="Shape-2" data-name="Shape" d="M5.707,9.713a1,1,0,0,1-1.414,0L.707,6.127a1,1,0,0,1,0-1.414h0a1,1,0,0,1,1.407,0L4.646,7.237a.5.5,0,0,0,.707,0L11.88.71a1,1,0,0,1,1.417,0h0a1,1,0,0,1,0,1.412Z" transform="translate(5 7)" fill="#fff"/>
    </g>
  </g>
</svg>
