<svg xmlns="http://www.w3.org/2000/svg" width="167.493" height="59.733" viewBox="0 0 167.493 59.733">
  <g id="Group_235" data-name="Group 235" transform="translate(-403.735 -217.761)">
    <path id="Path_74" data-name="Path 74" d="M7.04.2a11.109,11.109,0,0,1-3.2-.451A7.047,7.047,0,0,1,1.386-1.474,1.236,1.236,0,0,1,.88-2.53a1.24,1.24,0,0,1,.275-.8A.814.814,0,0,1,1.8-3.674a1.787,1.787,0,0,1,.9.308,6.6,6.6,0,0,0,1.98.99,8,8,0,0,0,2.288.308,4.505,4.505,0,0,0,2.464-.561A1.836,1.836,0,0,0,10.3-4.268a1.409,1.409,0,0,0-.8-1.287A10.633,10.633,0,0,0,6.82-6.424a15.834,15.834,0,0,1-3.146-.968A4.442,4.442,0,0,1,1.848-8.8a3.642,3.642,0,0,1-.616-2.178A4.1,4.1,0,0,1,2-13.42,5.073,5.073,0,0,1,4.147-15.1a7.6,7.6,0,0,1,3.091-.6,7.673,7.673,0,0,1,5.126,1.672,1.652,1.652,0,0,1,.407.473,1.249,1.249,0,0,1,.121.583,1.24,1.24,0,0,1-.275.8.814.814,0,0,1-.649.341,1.215,1.215,0,0,1-.407-.066,3.262,3.262,0,0,1-.495-.242,7.433,7.433,0,0,0-1.749-.979,5.93,5.93,0,0,0-2.079-.319,4.077,4.077,0,0,0-2.365.6A1.937,1.937,0,0,0,4-11.154a1.544,1.544,0,0,0,.77,1.386,9.025,9.025,0,0,0,2.618.9,17.615,17.615,0,0,1,3.179.979,4.715,4.715,0,0,1,1.87,1.375,3.306,3.306,0,0,1,.649,2.09,3.993,3.993,0,0,1-.759,2.409A4.947,4.947,0,0,1,10.2-.385,8.027,8.027,0,0,1,7.04.2Zm13.09-11.22a4.481,4.481,0,0,1,3.333,1.111,4.651,4.651,0,0,1,1.089,3.377v5.368a1.241,1.241,0,0,1-.352.935,1.333,1.333,0,0,1-.968.341A1.287,1.287,0,0,1,22.3-.242a1.229,1.229,0,0,1-.363-.924V-1.65A2.87,2.87,0,0,1,20.757-.308,3.53,3.53,0,0,1,18.9.176a4.317,4.317,0,0,1-1.958-.44,3.483,3.483,0,0,1-1.386-1.21,3.057,3.057,0,0,1-.506-1.716,2.718,2.718,0,0,1,.6-1.87,3.636,3.636,0,0,1,1.969-.99,17.931,17.931,0,0,1,3.762-.308h.55v-.506a2.253,2.253,0,0,0-.462-1.573,1.966,1.966,0,0,0-1.5-.495,4.747,4.747,0,0,0-1.3.187q-.66.187-1.562.539a2.2,2.2,0,0,1-.836.286.827.827,0,0,1-.649-.286,1.087,1.087,0,0,1-.253-.748,1.126,1.126,0,0,1,.187-.649,1.775,1.775,0,0,1,.627-.517,7.171,7.171,0,0,1,1.837-.66A9.479,9.479,0,0,1,20.13-11.022ZM19.448-1.8a2.35,2.35,0,0,0,1.793-.737,2.666,2.666,0,0,0,.693-1.9v-.462h-.4a15.177,15.177,0,0,0-2.288.132,2.221,2.221,0,0,0-1.166.462,1.176,1.176,0,0,0-.352.9,1.493,1.493,0,0,0,.5,1.155A1.746,1.746,0,0,0,19.448-1.8ZM28.71.132a1.422,1.422,0,0,1-.979-.341,1.239,1.239,0,0,1-.385-.979V-14.322a1.2,1.2,0,0,1,.385-.968,1.451,1.451,0,0,1,.979-.33,1.494,1.494,0,0,1,.99.33,1.188,1.188,0,0,1,.4.968V-1.188a1.221,1.221,0,0,1-.4.979A1.464,1.464,0,0,1,28.71.132Zm12.738-3.08a.74.74,0,0,1,.605.286,1.19,1.19,0,0,1,.231.77A1.334,1.334,0,0,1,41.47-.748a7.354,7.354,0,0,1-1.694.671,6.984,6.984,0,0,1-1.8.253,5.606,5.606,0,0,1-4.114-1.5A5.484,5.484,0,0,1,32.34-5.412,6.278,6.278,0,0,1,33-8.338a4.8,4.8,0,0,1,1.859-1.98,5.265,5.265,0,0,1,2.717-.7,4.875,4.875,0,0,1,2.53.638,4.326,4.326,0,0,1,1.672,1.8,5.986,5.986,0,0,1,.594,2.75q0,.946-.836.946h-6.49A3.461,3.461,0,0,0,35.9-2.651a2.887,2.887,0,0,0,2.112.715,4,4,0,0,0,1.243-.176A12.269,12.269,0,0,0,40.48-2.6,2.428,2.428,0,0,1,41.448-2.948ZM37.642-9.086a2.361,2.361,0,0,0-1.793.7,3.324,3.324,0,0,0-.8,2.024h4.972a3.137,3.137,0,0,0-.66-2.035A2.177,2.177,0,0,0,37.642-9.086ZM57.75.2A7.738,7.738,0,0,1,53.823-.77a6.436,6.436,0,0,1-2.585-2.772,9.334,9.334,0,0,1-.9-4.224,9.265,9.265,0,0,1,.9-4.213,6.449,6.449,0,0,1,2.585-2.761,7.738,7.738,0,0,1,3.927-.968,8.505,8.505,0,0,1,2.728.429,7.088,7.088,0,0,1,2.266,1.243,1.262,1.262,0,0,1,.4.462,1.432,1.432,0,0,1,.11.594,1.262,1.262,0,0,1-.264.814.793.793,0,0,1-.638.33,1.627,1.627,0,0,1-.9-.308,6.524,6.524,0,0,0-1.76-.979,5.61,5.61,0,0,0-1.8-.275,4.228,4.228,0,0,0-3.465,1.43,6.479,6.479,0,0,0-1.177,4.2,6.519,6.519,0,0,0,1.177,4.224,4.228,4.228,0,0,0,3.465,1.43A5.178,5.178,0,0,0,59.631-2.4a8.39,8.39,0,0,0,1.815-.968,3.078,3.078,0,0,1,.44-.22,1.232,1.232,0,0,1,.462-.088.793.793,0,0,1,.638.33,1.262,1.262,0,0,1,.264.814,1.45,1.45,0,0,1-.11.583,1.232,1.232,0,0,1-.4.473A7.088,7.088,0,0,1,60.478-.231,8.505,8.505,0,0,1,57.75.2ZM66.858.132a1.422,1.422,0,0,1-.979-.341,1.239,1.239,0,0,1-.385-.979V-9.68a1.2,1.2,0,0,1,.385-.968,1.451,1.451,0,0,1,.979-.33,1.494,1.494,0,0,1,.99.33,1.188,1.188,0,0,1,.4.968v8.492a1.221,1.221,0,0,1-.4.979A1.464,1.464,0,0,1,66.858.132Zm0-13.068a1.681,1.681,0,0,1-1.188-.407,1.385,1.385,0,0,1-.44-1.067,1.351,1.351,0,0,1,.44-1.056,1.71,1.71,0,0,1,1.188-.4,1.719,1.719,0,0,1,1.177.4,1.335,1.335,0,0,1,.451,1.056,1.385,1.385,0,0,1-.44,1.067A1.681,1.681,0,0,1,66.858-12.936ZM77.33-11.022a3.6,3.6,0,0,1,2.882,1.1A4.988,4.988,0,0,1,81.158-6.6v5.412a1.286,1.286,0,0,1-.363.968,1.377,1.377,0,0,1-1,.352A1.417,1.417,0,0,1,78.782-.22a1.265,1.265,0,0,1-.374-.968V-6.446a2.852,2.852,0,0,0-.473-1.826,1.818,1.818,0,0,0-1.485-.572,2.51,2.51,0,0,0-1.9.748,2.777,2.777,0,0,0-.715,2v4.906a1.265,1.265,0,0,1-.374.968,1.417,1.417,0,0,1-1.012.352,1.377,1.377,0,0,1-1-.352,1.286,1.286,0,0,1-.363-.968V-9.7a1.21,1.21,0,0,1,.374-.924,1.417,1.417,0,0,1,1.012-.352,1.311,1.311,0,0,1,.935.341,1.166,1.166,0,0,1,.363.891v.594a3.72,3.72,0,0,1,1.474-1.386A4.436,4.436,0,0,1,77.33-11.022ZM92.466-2.948a.74.74,0,0,1,.6.286,1.19,1.19,0,0,1,.231.77,1.334,1.334,0,0,1-.814,1.144,7.354,7.354,0,0,1-1.694.671,6.984,6.984,0,0,1-1.8.253,5.606,5.606,0,0,1-4.114-1.5,5.484,5.484,0,0,1-1.518-4.092,6.278,6.278,0,0,1,.66-2.926,4.8,4.8,0,0,1,1.859-1.98,5.265,5.265,0,0,1,2.717-.7,4.875,4.875,0,0,1,2.53.638A4.326,4.326,0,0,1,92.8-8.58a5.986,5.986,0,0,1,.594,2.75q0,.946-.836.946h-6.49a3.461,3.461,0,0,0,.858,2.233,2.887,2.887,0,0,0,2.112.715,4,4,0,0,0,1.243-.176A12.269,12.269,0,0,0,91.5-2.6,2.428,2.428,0,0,1,92.466-2.948ZM88.66-9.086a2.361,2.361,0,0,0-1.793.7,3.324,3.324,0,0,0-.8,2.024h4.972a3.137,3.137,0,0,0-.66-2.035A2.177,2.177,0,0,0,88.66-9.086Z" transform="translate(477.838 253.414)" fill="#5f6d74"/>
    <g id="Group_181" data-name="Group 181" transform="translate(403.735 217.761)">
      <path id="Path_12" data-name="Path 12" d="M448.194,253.967A15.927,15.927,0,0,1,433.6,263.51v5.775s-14.935-5.187-15.882-20.539c-.027-.385-.047-.773-.047-1.164a15.93,15.93,0,0,1,30.558-6.307,2.434,2.434,0,0,0,2.226,1.5h9.628a2.4,2.4,0,0,0,2.329-3.016,29.866,29.866,0,1,0,0,15.75,2.408,2.408,0,0,0-2.328-3.03h-9.666A2.437,2.437,0,0,0,448.194,253.967Z" transform="translate(-403.735 -217.761)" fill="#5f6d74"/>
      <circle id="Ellipse_6" data-name="Ellipse 6" cx="2.047" cy="2.047" r="2.047" transform="translate(21.718 28.397)" fill="#5f6d74"/>
      <circle id="Ellipse_7" data-name="Ellipse 7" cx="2.047" cy="2.047" r="2.047" transform="translate(28.104 28.397)" fill="#5f6d74"/>
      <circle id="Ellipse_8" data-name="Ellipse 8" cx="2.047" cy="2.047" r="2.047" transform="translate(34.49 28.397)" fill="#5f6d74"/>
    </g>
  </g>
</svg>
