<svg xmlns="http://www.w3.org/2000/svg" width="169.103" height="59.733" viewBox="0 0 169.103 59.733">
  <g id="Group_234" data-name="Group 234" transform="translate(-403.735 -217.761)">
    <text id="Sale_Cine" data-name="Sale Cine" transform="translate(477.838 253.414)" fill="#5f6d74" font-size="22" font-family="Nunito-Bold, Nunito" font-weight="700"><tspan x="0" y="0">Sale Cine</tspan></text>
    <g id="Group_181" data-name="Group 181" transform="translate(403.735 217.761)">
      <path id="Path_12" data-name="Path 12" d="M448.194,253.967A15.927,15.927,0,0,1,433.6,263.51v5.775s-14.935-5.187-15.882-20.539c-.027-.385-.047-.773-.047-1.164a15.93,15.93,0,0,1,30.558-6.307,2.434,2.434,0,0,0,2.226,1.5h9.628a2.4,2.4,0,0,0,2.329-3.016,29.866,29.866,0,1,0,0,15.75,2.408,2.408,0,0,0-2.328-3.03h-9.666A2.437,2.437,0,0,0,448.194,253.967Z" transform="translate(-403.735 -217.761)" fill="#5e50b5"/>
      <circle id="Ellipse_6" data-name="Ellipse 6" cx="2.047" cy="2.047" r="2.047" transform="translate(21.718 28.397)" fill="#5f6d74"/>
      <circle id="Ellipse_7" data-name="Ellipse 7" cx="2.047" cy="2.047" r="2.047" transform="translate(28.104 28.397)" fill="#5f6d74"/>
      <circle id="Ellipse_8" data-name="Ellipse 8" cx="2.047" cy="2.047" r="2.047" transform="translate(34.49 28.397)" fill="#5f6d74"/>
    </g>
  </g>
</svg>
