<svg xmlns="http://www.w3.org/2000/svg" width="214.303" height="73.513" viewBox="0 0 214.303 73.513">
  <g id="Group_299" data-name="Group 299" transform="translate(-403.735 -217.761)">
    <path id="Path_73" data-name="Path 73" d="M9.28.261A14.644,14.644,0,0,1,5.061-.333a9.289,9.289,0,0,1-3.234-1.61A1.63,1.63,0,0,1,1.16-3.335a1.635,1.635,0,0,1,.362-1.058,1.073,1.073,0,0,1,.856-.45,2.356,2.356,0,0,1,1.189.406,8.7,8.7,0,0,0,2.61,1.3,10.539,10.539,0,0,0,3.016.406,5.939,5.939,0,0,0,3.248-.74,2.42,2.42,0,0,0,1.131-2.161,1.858,1.858,0,0,0-1.059-1.7A14.016,14.016,0,0,0,8.99-8.468,20.872,20.872,0,0,1,4.843-9.744,5.856,5.856,0,0,1,2.436-11.6a4.8,4.8,0,0,1-.812-2.871A5.4,5.4,0,0,1,2.639-17.69a6.687,6.687,0,0,1,2.828-2.219,10.015,10.015,0,0,1,4.075-.8A10.114,10.114,0,0,1,16.3-18.5a2.178,2.178,0,0,1,.537.624,1.647,1.647,0,0,1,.16.769,1.635,1.635,0,0,1-.363,1.058,1.073,1.073,0,0,1-.855.45,1.6,1.6,0,0,1-.537-.087,4.3,4.3,0,0,1-.652-.319A9.8,9.8,0,0,0,12.281-17.3a7.816,7.816,0,0,0-2.74-.42,5.375,5.375,0,0,0-3.118.8A2.553,2.553,0,0,0,5.278-14.7a2.036,2.036,0,0,0,1.015,1.827,11.9,11.9,0,0,0,3.451,1.189A23.22,23.22,0,0,1,13.935-10.4,6.215,6.215,0,0,1,16.4-8.584a4.358,4.358,0,0,1,.856,2.755,5.263,5.263,0,0,1-1,3.175A6.521,6.521,0,0,1,13.441-.507,10.581,10.581,0,0,1,9.28.261Zm17.255-14.79a5.907,5.907,0,0,1,4.394,1.464,6.131,6.131,0,0,1,1.435,4.452v7.076A1.636,1.636,0,0,1,31.9-.3a1.757,1.757,0,0,1-1.276.449,1.7,1.7,0,0,1-1.233-.464,1.62,1.62,0,0,1-.478-1.218v-.638A3.784,3.784,0,0,1,27.361-.406a4.654,4.654,0,0,1-2.45.638,5.69,5.69,0,0,1-2.581-.58,4.591,4.591,0,0,1-1.827-1.6A4.03,4.03,0,0,1,19.836-4.2a3.583,3.583,0,0,1,.8-2.465,4.793,4.793,0,0,1,2.6-1.305,23.636,23.636,0,0,1,4.959-.406h.725v-.667a2.969,2.969,0,0,0-.609-2.073,2.591,2.591,0,0,0-1.972-.652,6.258,6.258,0,0,0-1.711.246q-.87.247-2.059.711a2.9,2.9,0,0,1-1.1.377,1.091,1.091,0,0,1-.856-.377,1.433,1.433,0,0,1-.333-.986,1.484,1.484,0,0,1,.247-.856,2.34,2.34,0,0,1,.826-.681,9.453,9.453,0,0,1,2.421-.87A12.494,12.494,0,0,1,26.535-14.529Zm-.9,12.151A3.1,3.1,0,0,0,28-3.35a3.514,3.514,0,0,0,.914-2.509v-.609h-.522a20.006,20.006,0,0,0-3.016.174,2.928,2.928,0,0,0-1.537.609,1.551,1.551,0,0,0-.464,1.189,1.967,1.967,0,0,0,.653,1.522A2.3,2.3,0,0,0,25.636-2.378ZM37.845.174a1.874,1.874,0,0,1-1.29-.449,1.633,1.633,0,0,1-.508-1.29V-18.879a1.588,1.588,0,0,1,.508-1.276,1.913,1.913,0,0,1,1.29-.435,1.97,1.97,0,0,1,1.305.435,1.566,1.566,0,0,1,.522,1.276V-1.566a1.61,1.61,0,0,1-.522,1.29A1.929,1.929,0,0,1,37.845.174Zm16.791-4.06a.976.976,0,0,1,.8.377,1.569,1.569,0,0,1,.3,1.015A1.758,1.758,0,0,1,54.665-.986,9.694,9.694,0,0,1,52.432-.1a9.206,9.206,0,0,1-2.378.334A7.389,7.389,0,0,1,44.631-1.74a7.229,7.229,0,0,1-2-5.394,8.276,8.276,0,0,1,.87-3.857,6.326,6.326,0,0,1,2.451-2.61,6.94,6.94,0,0,1,3.581-.928,6.427,6.427,0,0,1,3.335.841,5.7,5.7,0,0,1,2.2,2.378,7.891,7.891,0,0,1,.783,3.625q0,1.247-1.1,1.247H46.2a4.563,4.563,0,0,0,1.131,2.944,3.806,3.806,0,0,0,2.784.942,5.279,5.279,0,0,0,1.639-.232,16.173,16.173,0,0,0,1.61-.638A3.2,3.2,0,0,1,54.636-3.886Zm-5.017-8.091a3.112,3.112,0,0,0-2.363.928A4.382,4.382,0,0,0,46.2-8.381h6.554a4.135,4.135,0,0,0-.87-2.682A2.869,2.869,0,0,0,49.619-11.977ZM76.125.261a10.2,10.2,0,0,1-5.176-1.276,8.483,8.483,0,0,1-3.408-3.654,12.3,12.3,0,0,1-1.189-5.568,12.213,12.213,0,0,1,1.189-5.554,8.5,8.5,0,0,1,3.408-3.64,10.2,10.2,0,0,1,5.176-1.276,11.212,11.212,0,0,1,3.6.565A9.344,9.344,0,0,1,82.708-18.5a1.663,1.663,0,0,1,.522.609,1.888,1.888,0,0,1,.145.783,1.663,1.663,0,0,1-.348,1.073,1.045,1.045,0,0,1-.841.435A2.144,2.144,0,0,1,81-16.008a8.6,8.6,0,0,0-2.32-1.291,7.4,7.4,0,0,0-2.378-.363,5.573,5.573,0,0,0-4.567,1.885,8.541,8.541,0,0,0-1.552,5.539,8.593,8.593,0,0,0,1.552,5.568A5.573,5.573,0,0,0,76.3-2.784,6.825,6.825,0,0,0,78.6-3.161,11.06,11.06,0,0,0,81-4.437a4.058,4.058,0,0,1,.58-.29,1.625,1.625,0,0,1,.609-.116,1.045,1.045,0,0,1,.841.435,1.663,1.663,0,0,1,.348,1.073,1.912,1.912,0,0,1-.145.769,1.624,1.624,0,0,1-.522.623A9.344,9.344,0,0,1,79.721-.3,11.212,11.212,0,0,1,76.125.261ZM88.131.174a1.874,1.874,0,0,1-1.29-.449,1.633,1.633,0,0,1-.507-1.29V-12.76a1.588,1.588,0,0,1,.507-1.276,1.913,1.913,0,0,1,1.29-.435,1.97,1.97,0,0,1,1.305.435,1.566,1.566,0,0,1,.522,1.276V-1.566a1.61,1.61,0,0,1-.522,1.29A1.929,1.929,0,0,1,88.131.174Zm0-17.226a2.216,2.216,0,0,1-1.566-.537,1.826,1.826,0,0,1-.58-1.406,1.781,1.781,0,0,1,.58-1.392,2.254,2.254,0,0,1,1.566-.522,2.265,2.265,0,0,1,1.551.522,1.76,1.76,0,0,1,.595,1.392,1.826,1.826,0,0,1-.58,1.406A2.216,2.216,0,0,1,88.131-17.052Zm13.8,2.523a4.739,4.739,0,0,1,3.8,1.45A6.576,6.576,0,0,1,106.981-8.7v7.134A1.7,1.7,0,0,1,106.5-.29a1.816,1.816,0,0,1-1.32.464,1.868,1.868,0,0,1-1.334-.464,1.668,1.668,0,0,1-.493-1.276V-8.5a3.76,3.76,0,0,0-.623-2.407,2.4,2.4,0,0,0-1.958-.754,3.309,3.309,0,0,0-2.508.986,3.66,3.66,0,0,0-.942,2.639v6.467A1.668,1.668,0,0,1,96.831-.29,1.868,1.868,0,0,1,95.5.174,1.816,1.816,0,0,1,94.178-.29,1.7,1.7,0,0,1,93.7-1.566V-12.789a1.6,1.6,0,0,1,.493-1.218,1.868,1.868,0,0,1,1.334-.464,1.728,1.728,0,0,1,1.232.45,1.537,1.537,0,0,1,.479,1.174v.783a4.9,4.9,0,0,1,1.943-1.827A5.847,5.847,0,0,1,101.935-14.529ZM121.887-3.886a.976.976,0,0,1,.8.377,1.569,1.569,0,0,1,.3,1.015,1.758,1.758,0,0,1-1.073,1.508,9.694,9.694,0,0,1-2.233.885,9.206,9.206,0,0,1-2.378.334,7.389,7.389,0,0,1-5.423-1.972,7.229,7.229,0,0,1-2-5.394,8.276,8.276,0,0,1,.87-3.857A6.326,6.326,0,0,1,113.2-13.6a6.94,6.94,0,0,1,3.581-.928,6.427,6.427,0,0,1,3.335.841,5.7,5.7,0,0,1,2.2,2.378,7.891,7.891,0,0,1,.783,3.625q0,1.247-1.1,1.247h-8.555a4.563,4.563,0,0,0,1.131,2.944,3.806,3.806,0,0,0,2.784.942A5.279,5.279,0,0,0,119-2.784a16.173,16.173,0,0,0,1.61-.638A3.2,3.2,0,0,1,121.887-3.886Zm-5.017-8.091a3.112,3.112,0,0,0-2.364.928,4.382,4.382,0,0,0-1.059,2.668H120a4.135,4.135,0,0,0-.87-2.682A2.869,2.869,0,0,0,116.87-11.977Z" transform="translate(494.933 263.563)" fill="#fff"/>
    <g id="Group_181" data-name="Group 181" transform="translate(403.735 217.761)">
      <path id="Path_12" data-name="Path 12" d="M458.45,262.32a19.6,19.6,0,0,1-17.96,11.745v7.107s-18.381-6.384-19.546-25.277c-.033-.474-.057-.951-.057-1.433a19.6,19.6,0,0,1,37.607-7.762,3,3,0,0,0,2.74,1.846h11.849a2.957,2.957,0,0,0,2.867-3.712,36.756,36.756,0,1,0,0,19.383,2.964,2.964,0,0,0-2.865-3.729h-11.9A3,3,0,0,0,458.45,262.32Z" transform="translate(-403.735 -217.761)" fill="#fff"/>
      <circle id="Ellipse_6" data-name="Ellipse 6" cx="2.519" cy="2.519" r="2.519" transform="translate(26.728 34.948)" fill="#fff"/>
      <circle id="Ellipse_7" data-name="Ellipse 7" cx="2.519" cy="2.519" r="2.519" transform="translate(34.588 34.948)" fill="#fff"/>
      <circle id="Ellipse_8" data-name="Ellipse 8" cx="2.519" cy="2.519" r="2.519" transform="translate(42.447 34.948)" fill="#fff"/>
    </g>
  </g>
</svg>
