<svg xmlns="http://www.w3.org/2000/svg" width="106" height="21.25" viewBox="0 0 106 21.25">
  <g id="Group_397" data-name="Group 397" transform="translate(-703 -985)">
    <g id="cards" transform="translate(703 985)">
      <g id="credit-cards_mastercard">
        <g id="Layer_1">
          <path id="Shape" d="M1.25,0h27.5A1.218,1.218,0,0,1,30,1.176V18.824A1.218,1.218,0,0,1,28.75,20H1.25A1.218,1.218,0,0,1,0,18.824V1.176A1.218,1.218,0,0,1,1.25,0Z" fill="#4361c3"/>
          <path id="Shape-2" data-name="Shape" d="M4.531,0A4.531,4.531,0,1,1,0,4.531,4.535,4.535,0,0,1,4.531,0Z" transform="translate(14.063 6.25)" fill="#ffaf38"/>
          <rect id="Rectangle-path" width="3.125" height="0.625" transform="translate(14.688 8.438)" fill="#ffaf38"/>
          <path id="Shape-3" data-name="Shape" d="M4.531,9.063A4.531,4.531,0,1,1,9.063,4.531,4.535,4.535,0,0,1,4.531,9.063Z" transform="translate(6.875 6.25)" fill="#eb3636"/>
          <path id="Shape-4" data-name="Shape" d="M4.375,4.375H.312V3.75H4.375v.624Zm-.312-1.25H0V2.5H4.063v.624Zm0-1.25H0V1.25H4.063v.624ZM4.375.625H.312V0H4.375V.624Z" transform="translate(14.375 8.438)" fill="#ffaf38"/>
          <path id="Shape-5" data-name="Shape" d="M1.25,21.25h.563L30,1.813V1.25A1.254,1.254,0,0,0,28.75,0H1.25A1.254,1.254,0,0,0,0,1.25V20A1.254,1.254,0,0,0,1.25,21.25Z" fill="#fff" opacity="0.05"/>
        </g>
      </g>
      <g id="credit-cards_visa" transform="translate(38)">
        <g id="Layer_1-2" data-name="Layer_1">
          <g id="Group">
            <rect id="Rectangle-path-2" data-name="Rectangle-path" width="30" height="9.412" transform="translate(0 5.294)" fill="#f9f9f9"/>
            <path id="Shape-6" data-name="Shape" d="M1.25,0h27.5A1.218,1.218,0,0,1,30,1.176V5.294H0V1.176A1.218,1.218,0,0,1,1.25,0Z" fill="#09599e"/>
            <path id="Shape-7" data-name="Shape" d="M0,0H30V4.118a1.218,1.218,0,0,1-1.25,1.176H1.25A1.218,1.218,0,0,1,0,4.118Z" transform="translate(0 14.706)" fill="#e59703"/>
            <path id="Shape-8" data-name="Shape" d="M1.25,19.971A1.218,1.218,0,0,1,0,18.794V1.176A1.218,1.218,0,0,1,1.25,0h27.5A1.218,1.218,0,0,1,30,1.176" fill="#fff" opacity="0.05"/>
            <g id="Group-2" data-name="Group" transform="translate(5.313 7.353)">
              <path id="Shape-9" data-name="Shape" d="M0,4.971.906,0H2.344L1.438,4.971Z" transform="translate(6.281 0.147)" fill="#00589f"/>
              <path id="Shape-10" data-name="Shape" d="M4.313.206A4.188,4.188,0,0,0,3.031,0C1.594,0,.594.676.594,1.647c0,.706.719,1.118,1.25,1.353.563.235.75.412.75.618,0,.324-.437.5-.875.5A3.3,3.3,0,0,1,.375,3.853L.188,3.735,0,4.853a4.525,4.525,0,0,0,1.594.265c1.5,0,2.5-.676,2.5-1.706,0-.559-.375-1-1.219-1.353-.5-.235-.812-.382-.812-.618,0-.206.25-.441.813-.441a3.109,3.109,0,0,1,1.063.176l.125.059L4.313.206" transform="translate(8.625 0.088)" fill="#00589f"/>
              <path id="Shape-11" data-name="Shape" d="M1.5,4.971H0L2.125.412A.716.716,0,0,1,2.875,0H4L5.187,4.969H3.844s-.006-.019-.014-.048c-.037-.134-.149-.543-.174-.687H1.813c-.062.116-.31.729-.312.735ZM2.969,1.324c-.061.171-.183.458-.188.47s-.44,1.094-.563,1.383v.03H3.406L3.063,1.765Z" transform="translate(12.625 0.176)" fill="#00589f"/>
              <path id="Shape-12" data-name="Shape" d="M3.563.029,2.156,3.412,2,2.735A4.006,4.006,0,0,0,0,.647L1.313,4.971H2.844L5.125,0H3.563" transform="translate(1.5 0.147)" fill="#00589f"/>
              <path id="Shape-13" data-name="Shape" d="M2.344,0H.031L0,.118A4.746,4.746,0,0,1,3.5,2.706L3,.441C2.938.118,2.656.029,2.344,0" transform="translate(0 0.147)" fill="#f9a51a"/>
            </g>
          </g>
        </g>
      </g>
      <g id="credit-cards_amex" transform="translate(76)">
        <g id="Layer_1-3" data-name="Layer_1">
          <path id="Shape-14" data-name="Shape" d="M1.25,0h27.5A1.218,1.218,0,0,1,30,1.176V18.824A1.218,1.218,0,0,1,28.75,20H1.25A1.218,1.218,0,0,1,0,18.824V1.176A1.218,1.218,0,0,1,1.25,0Z" fill="#2aa0d0"/>
          <path id="Shape-15" data-name="Shape" d="M16.708,5.029H12.958a.3.3,0,0,1-.312-.265.3.3,0,0,1-.313.265h-1.25a.287.287,0,0,1-.312-.294V3.029L9.958,4.853a.275.275,0,0,1-.281.176H8.708a.3.3,0,0,1-.282-.176L7.646,3.059V4.735a.287.287,0,0,1-.312.294h-2.5a.3.3,0,0,1-.281-.176l-.438-1H2.4l-.469,1a.277.277,0,0,1-.282.176H.3a.321.321,0,0,1-.249-.147.327.327,0,0,1-.032-.294L2.177.176A.3.3,0,0,1,2.458,0H4.114A.3.3,0,0,1,4.4.176L5.771,3.059V.294A.287.287,0,0,1,6.083,0H7.708a.363.363,0,0,1,.282.176l1.25,2.382,1-2.353A.276.276,0,0,1,10.52.03h1.813a.3.3,0,0,1,.313.265A.3.3,0,0,1,12.958.03h3.749a.329.329,0,0,1,.313.293v.883a.288.288,0,0,1-.313.294H14.521v.293h2.125a.287.287,0,0,1,.312.294v.883a.287.287,0,0,1-.312.293H14.521v.294h2.187a.288.288,0,0,1,.313.294v.882A.288.288,0,0,1,16.708,5.029ZM3.271,1.794l-.282.589h.563Z" transform="translate(3.917 7.618)" fill="#2aa0d0"/>
          <path id="Shape-16" data-name="Shape" d="M4.687,5H3.875a.352.352,0,0,1-.22-.088L2.469,3.735,1.282,4.912A.294.294,0,0,1,1.063,5H.312A.287.287,0,0,1,0,4.706V.294A.287.287,0,0,1,.312,0h.844a.241.241,0,0,1,.219.118L2.5,1.324,3.594.088A.366.366,0,0,1,3.844,0h.843a.291.291,0,0,1,.219.088A.258.258,0,0,1,5,.294v.764a.258.258,0,0,1-.095.206L3.656,2.529l1.25,1.265A.257.257,0,0,1,5,4v.707a.26.26,0,0,1-.095.206A.291.291,0,0,1,4.687,5ZM.625,1.794V3.236L1.344,2.5Z" transform="translate(20.938 7.647)" fill="#2aa0d0"/>
          <path id="Shape-17" data-name="Shape" d="M0,1.588H1.5L.75,0Z" transform="translate(6.438 8.706)" fill="#fff"/>
          <path id="Shape-18" data-name="Shape" d="M0,2.941,1.469,1.471,0,0Z" transform="translate(21.25 8.706)" fill="#fff"/>
          <path id="Shape-19" data-name="Shape" d="M9.995,5.648H9.025a.623.623,0,0,1-.562-.354l-.187-.441v.206a.609.609,0,0,1-.626.589h-2.5a.612.612,0,0,1-.594-.383l-.344-.823H2.9l-.375.824a.624.624,0,0,1-.563.353H.619a.623.623,0,0,1-.531-.265.591.591,0,0,1-.031-.559L2.213.383A.615.615,0,0,1,2.776.03H4.432a.615.615,0,0,1,.563.353L5.775,2V.617A.608.608,0,0,1,6.4.03H7.994a.6.6,0,0,1,.563.323l.938,1.795.75-1.765A.645.645,0,0,1,10.838,0H12.65a.55.55,0,0,1,.312.088A.558.558,0,0,1,13.275,0h3.75a.55.55,0,0,1,.312.088A.56.56,0,0,1,17.651,0h.843a.678.678,0,0,1,.469.206l.875.941.875-.941A.578.578,0,0,1,21.182,0h.844a.637.637,0,0,1,.437.176.567.567,0,0,1,.187.412v.764a.67.67,0,0,1-.157.412L21.432,2.823l1.062,1.059a.674.674,0,0,1,.157.411V5a.566.566,0,0,1-.187.411.637.637,0,0,1-.437.176h-.751a.66.66,0,0,1-.469-.176l-.968-.97-.968.97a.716.716,0,0,1-.469.176h-.75a.559.559,0,0,1-.313-.088.551.551,0,0,1-.312.088h-3.75a.557.557,0,0,1-.312-.088.551.551,0,0,1-.312.088H11.4A.608.608,0,0,1,10.776,5V4.853l-.188.441A.709.709,0,0,1,9.995,5.648Zm9.843-2.059h0L21.275,5h.751V4.294L20.557,2.823l1.469-1.471V.589h-.844L19.838,2.059,18.494.589h-.843V5h.75l1.437-1.411Zm-6.563-3V5h3.75V4.117h-2.5V3.236h2.438V2.353H14.525V1.471h2.5V.589ZM11.4,1.8h0V5h1.25V.589H10.838l-1.25,2.97L8.025.589H6.431V4.706L4.463.589H2.806L.651,5H1.994l.531-1.177H4.65L5.151,5h2.5V1.823L9.025,5h.969Z" transform="translate(3.6 7.353)" fill="#fff"/>
          <path id="Shape-20" data-name="Shape" d="M1.25,20h.563L30,1.706V1.176A1.218,1.218,0,0,0,28.75,0H1.25A1.218,1.218,0,0,0,0,1.176V18.824A1.218,1.218,0,0,0,1.25,20Z" fill="#fff" opacity="0.05"/>
        </g>
      </g>
    </g>
  </g>
</svg>
